<svg id="Layer_1" data-name="Layer 1" xmlns="http://www.w3.org/2000/svg" xmlns:xlink="http://www.w3.org/1999/xlink" width="2031.7" height="678" viewBox="0 0 2031.7 678"><defs><style>.cls-1,.cls-27,.cls-5{fill:#fff;}.cls-1,.cls-2{fill-rule:evenodd;}.cls-2{fill:url(#linear-gradient);}.cls-3{mask:url(#mask);}.cls-4{fill:none;}.cls-6{fill:#c4d7b6;}.cls-7{fill:#e3ead3;}.cls-8{fill:#447337;}.cls-9{fill:#6fbf5c;}.cls-10{fill:#5a9c4b;}.cls-11{fill:#9bd96f;}.cls-12{fill:#b37624;}.cls-13{fill:#9c452d;}.cls-14{fill:#de5833;}.cls-15{fill:#230545;}.cls-16{fill:#544463;}.cls-17{fill:#f1a031;}.cls-18{fill:#ffb652;}.cls-19{fill:#2f6894;}.cls-20{fill:#357db6;}.cls-21{fill:#60a5da;}.cls-22{fill:#7d3623;}.cls-23{fill:#ef9f3f;}.cls-24{fill:#fec585;}.cls-25{fill:#abbda0;}.cls-26{fill:#ffc16c;}.cls-27{isolation:isolate;opacity:0.8;}</style><linearGradient id="linear-gradient" x1="30.4848" y1="839.9997" x2="30.4848" y2="840.448" gradientTransform="matrix(1980, 0, 0, -600, -59370, 504361)" gradientUnits="userSpaceOnUse"><stop offset="0" stop-color="#f3e9de"/><stop offset="0.1468" stop-color="#ece8e2"/><stop offset="1" stop-color="#afd2ec"/></linearGradient><mask id="mask" x="0" y="0" width="2031.7" height="678" maskUnits="userSpaceOnUse"><g transform="translate(26.5 18)"><g id="c"><path id="a" class="cls-1" d="M0,0H1980V600H0Z"/></g></g></mask></defs><path id="a-2" data-name="a" class="cls-2" d="M0,0H1980V600H0Z" transform="translate(26.5 18)"/><g class="cls-3"><path class="cls-4" d="M-14-18H1986V648H-14Z" transform="translate(26.5 18)"/><path class="cls-5" d="M1950.8,221.2c-1.2.3-2.5.7-3.7,1.1a28.6887,28.6887,0,0,0-40.3-16.3,47.1368,47.1368,0,0,0-57.5-16c-2.6.1-5.1.3-7.7.5a40.175,40.175,0,0,0-66.7,22.5c-.7,0-1.3-.1-2-.1a30.9656,30.9656,0,0,0-25.1,12.8,62.63,62.63,0,0,0-61.3-10.3,64.0253,64.0253,0,0,0-17-5.6,16.4753,16.4753,0,0,0-3.2-.4,31.1779,31.1779,0,0,0-56.2,15.7,42.1513,42.1513,0,0,0-27.3-3.6,42.9009,42.9009,0,0,0-33.5,32.7,21.9394,21.9394,0,0,0-9-2.4,12.6712,12.6712,0,0,0-24.3,2.5,15.5489,15.5489,0,0,0-10.1,7.2,25.7869,25.7869,0,0,0-24.6-8.6,26.4649,26.4649,0,0,0-8.6,3.3,37.0621,37.0621,0,0,0-27.7-5.3,37.51,37.51,0,0,0-15.2,6.9v-.3a37.0207,37.0207,0,0,0-72.3-11.2c-.6-.3-1.3-.6-2-.9a33.4777,33.4777,0,0,0-31.6,3.1,31.24,31.24,0,0,0-20.5,21.4,65.3753,65.3753,0,0,0-12.5-1.2,67.4672,67.4672,0,0,0-37.6,11.5,37.0232,37.0232,0,0,0-66.2,6.2,21.738,21.738,0,0,0-3.6-.2,26.729,26.729,0,0,0-22.1,11.6,38.071,38.071,0,0,0-12.7-2.2,8.075,8.075,0,0,0-1.6.1,39.0327,39.0327,0,0,0-74.4,4,36.6585,36.6585,0,0,0-16,8.6,32.39,32.39,0,0,0-6-2.7,33.8626,33.8626,0,0,0-42.9,21.1,34.3067,34.3067,0,0,0-1.4,16.1,34.0881,34.0881,0,0,0-26.4,10.8,32.2368,32.2368,0,0,0-14.5-3.4,33.3364,33.3364,0,0,0-11.4,2,37.0643,37.0643,0,0,0-49.6-34.9,36.9839,36.9839,0,0,0-54.7-11.7,91.81,91.81,0,0,0-76.7-41,94.6764,94.6764,0,0,0-13,.9c-4-2.4-9.1-5-14.1-6a29.0015,29.0015,0,0,0-19,2.7l-2.7,1.5v10.9a27.35,27.35,0,0,0-5-.5,27.9137,27.9137,0,0,0-27.4,22.5,39.0794,39.0794,0,0,0-16.1-3.5c-1.2,0-2.3.1-3.4.2,0-.1,0-.1.1-.2a23.11,23.11,0,0,1-23.1-23.1V255.3a27.9883,27.9883,0,0,0-28-27.2,28.8057,28.8057,0,0,0-5.9.6,52.3429,52.3429,0,0,0-81.9,9.4,32.463,32.463,0,0,0-7.7,3.8,29.22,29.22,0,0,0-43.8-8.3,31.7764,31.7764,0,0,0-14,1.6,31.1458,31.1458,0,0,0-58.7-16.4,42.7608,42.7608,0,0,0-70.2,8.5,33.6165,33.6165,0,0,0-7.5,2.7,28.6941,28.6941,0,0,0-40.5-16.9,47.1371,47.1371,0,0,0-57.5-16c-2.6.1-5.1.3-7.7.5a40.16,40.16,0,0,0-67.3,28.5A120.5465,120.5465,0,0,0,142.1,243,62.4449,62.4449,0,0,0,71,222.6,64.0253,64.0253,0,0,0,54,217a16.4753,16.4753,0,0,0-3.2-.4A31.1779,31.1779,0,0,0-5.4,232.3a45.9941,45.9941,0,0,0-9.4-3.4V400h2000V198.2a42.772,42.772,0,0,0-34.4,23Z" transform="translate(26.5 18)"/><path class="cls-6" d="M1321.1,241.8l270.7,135.4L1321.1,512.6,1100,402h60.9Z" transform="translate(26.5 18)"/><path class="cls-7" d="M1321.1,241.8,1160.9,402H1100l-49.7-24.8Z" transform="translate(26.5 18)"/><path class="cls-6" d="M1309.5,410.2l10.8-10.8L1446.6,264h-33.4l54.2-45.1,223.8,111.9v46.9L1467.8,489.5Z" transform="translate(26.5 18)"/><path class="cls-7" d="M1467.2,218.9,1422.1,264h33.4L1309,410.6l-112.5-56.3Z" transform="translate(26.5 18)"/><path class="cls-6" d="M1182.3,456.8,1334.1,305h-37.5l26-26,.2-.1,270.7,135.4L1322.8,549.7l-140.5-70.2L1052,414.3l22.7-11.3Z" transform="translate(26.5 18)"/><path class="cls-7" d="M1339,300,1182.3,456.8,1074.7,403l247.9-124-21,21Zm215-4.9v43.2l86.6-86.5Z" transform="translate(26.5 18)"/><path class="cls-6" d="M1460.2,432.3l180.4-180.5,50.6,25.2V497.3l-50.5,25.2Z" transform="translate(26.5 18)"/><path class="cls-7" d="M1751.5,444.4l225.4-225.6L1638.7,388Z" transform="translate(26.5 18)"/><path class="cls-6" d="M1751.2,444.4l225.7-225.6,28.3,15.7V433l-19,119.6-9.4,4.7Z" transform="translate(26.5 18)"/><path class="cls-6" d="M1651.5,477.7,1775.7,353h-95.8l73.1-73h-25.2l67.6-66.9L1975.2,303V459.8l-179.8,89.9Z" transform="translate(26.5 18)"/><path class="cls-7" d="M1775.7,353,1651,477.3l-192-96,336.4-168.2L1727.8,280H1753l-73.1,73Z" transform="translate(26.5 18)"/><path class="cls-7" d="M1567.1,422.2,1905,255l88.2,83.5-11,99.5V553.1l-76.7,38.3Z" transform="translate(26.5 18)"/><path class="cls-7" d="M1495.1,426.8l154.5,56.4L1822.3,314h-41.1l53.5-54.4Z" transform="translate(26.5 18)"/><path class="cls-6" d="M1822.3,314h-41.1l53.5-54.4L1986,332v39H1764.3Z" transform="translate(26.5 18)"/><path class="cls-7" d="M706.7,384.4,436,249,616.1,429.6Zm-226-13L205.2,232,388.1,416.6Z" transform="translate(26.5 18)"/><path class="cls-6" d="M436,249,616.1,429.6,435.2,519.8,267.7,436.1V332.8Z" transform="translate(26.5 18)"/><path class="cls-6" d="M205.2,232,388.1,416.6,205.2,502.8,37.7,419.1V315.8Z" transform="translate(26.5 18)"/><path class="cls-7" d="M310.9,234l40.6,45.1H319L458,414.5l123.7-45.1Z" transform="translate(26.5 18)"/><path class="cls-6" d="M368.7,325.3H127.1L310.9,234l45.3,45.3H322.7Z" transform="translate(26.5 18)"/><path class="cls-7" d="M1046.7,420.3l-90.2,45.2L776,285Z" transform="translate(26.5 18)"/><path class="cls-6" d="M505.4,420.3,776.2,285l78,78L956.7,465.5,776.2,555.7Z" transform="translate(26.5 18)"/><path class="cls-7" d="M796.9,317l270.8,135.4L796.9,587.8,616.4,497.6Z" transform="translate(26.5 18)"/><path class="cls-6" d="M311.6,377.8,581,244l54.4,53.4H615.1L674,356H596.9l99.8,98.3L581.4,511.5Z" transform="translate(26.5 18)"/><path class="cls-7" d="M674,356l-58.9-58.6h20.3L581,244,852.7,379.8l-156,74.5L596.9,356Z" transform="translate(26.5 18)"/><path class="cls-6" d="M-26.5,396.1V274.5L60,231l53.9,53.2H94.5l57.9,58H75.7l99,99.1L60.4,498.5-26.5,455V396.1Z" transform="translate(26.5 18)"/><path class="cls-7" d="M153,343.2l-59-59h19.9L60,231,331.7,366.1,176.5,443.7,76.1,343.2Z" transform="translate(26.5 18)"/><path class="cls-6" d="M724.4,389l150.1-75,75.9,75Z" transform="translate(26.5 18)"/><path class="cls-7" d="M874.1,314l150.4,75H950Z" transform="translate(26.5 18)"/><path class="cls-6" d="M269.7,271v22.1H256.1l-117.9,117H109.7v-60Z" transform="translate(26.5 18)"/><path class="cls-7" d="M138.6,402.3,269.9,271,540.7,406.4,269.9,541.8,110.2,461.9V407.4Z" transform="translate(26.5 18)"/><path class="cls-6" d="M438.7,282,307.5,421.6H279v-60Z" transform="translate(26.5 18)"/><path class="cls-7" d="M307.6,413.3,438.9,282,709.7,417.4,438.9,552.8,279.2,472.9V418.4Z" transform="translate(26.5 18)"/><path class="cls-7" d="M363.7,349.1v60H335.2l-117.9-117H203.9V270Z" transform="translate(26.5 18)"/><path class="cls-6" d="M203.9,270l82.8,82.4V499.6l-82.4,41.2L13.7,445.4V365.3Z" transform="translate(26.5 18)"/><path class="cls-7" d="M1105.6,328.4l-73.3,86.8-86.8-32.8,159-79.4-14.1,25.4Z" transform="translate(26.5 18)"/><path class="cls-6" d="M977.1,389.2l48.2,13.8,74.7-74.6h-20.9l25.4-25.4,338.1,169.1L1104.5,641.2,766.3,472.1Z" transform="translate(26.5 18)"/><path class="cls-8" d="M1612.4,565.9a17.3056,17.3056,0,0,1,12.5,5.2,41.6882,41.6882,0,0,1,18.4-4.2c8.6,0,68.5,2.6,75.2,7a17.54,17.54,0,0,1,14.8-8,18.2106,18.2106,0,0,1,10.1,3.1,43.03,43.03,0,0,1,83.7,13H1594.7A17.8033,17.8033,0,0,1,1612.4,565.9ZM440.6,482l14.3,57.4-28.6-10Z" transform="translate(26.5 18)"/><path class="cls-9" d="M1949,329a16.4811,16.4811,0,0,0-10.8,2.6l-15.9,10.5a22.2632,22.2632,0,0,1-15.9,3.4l-23.8-3.9a16.8854,16.8854,0,0,0-8.9,1l-17,7a27.8607,27.8607,0,0,1-15.9,1.7l-133.1-24a24.92,24.92,0,0,0-13,1.1l-72.3,25.9a37.2129,37.2129,0,0,1-27.4,2.6l-47.6-14.1a33.3488,33.3488,0,0,0-16.9-.5l-101,22.7a46.6211,46.6211,0,0,1-13.9,1l-101.5-7.6a30.3366,30.3366,0,0,0-13.3,1.9l-19,7a18.7825,18.7825,0,0,1-11,.6l-19.9-4.8a18.9192,18.9192,0,0,0-8.2-.2,47.3134,47.3134,0,0,1-9.3.9H1230s-6.1-.9-9.1-1.6l-20.8-4.1a162.5593,162.5593,0,0,0-18.9-2.4h-6.6a165.3643,165.3643,0,0,0-18.9,2.4l-57.1,11.4c-17,3.5-45,10.4-63.6,15a100.8754,100.8754,0,0,1-38.7,2l-164-23.8a128.9329,128.9329,0,0,0-36.7-.1l-25.7,3.6a91.1941,91.1941,0,0,1-27.6-.2c-2.5-.5-5-.9-6.9-1.4l-84.3-26a79.7242,79.7242,0,0,0-45.4,0l-18.9,5.8c-7.6,2.3-20,2.3-27.6,0L491.6,324c-20.1-6-25.3-6-45.4,0l-37.1,11.3c-.1,0-.2.1-.3.1a89.0228,89.0228,0,0,1-39.4,2.7l-22-3.2a128.9329,128.9329,0,0,0-36.7-.1L285,338.4a91.1941,91.1941,0,0,1-27.6-.2c-2.5-.5-5-.9-6.9-1.4-21.1-6.3-84.3-26-84.3-26a79.7242,79.7242,0,0,0-45.4,0l-18.9,5.8c-7.6,2.3-20,2.3-27.6,0L6.8,296c-5.2-1.5-12.9-2.4-20.8-2.5V474H1038V436h948V333Z" transform="translate(26.5 18)"/><path class="cls-10" d="M1461,357h-20l10-40Z" transform="translate(26.5 18)"/><path class="cls-8" d="M1641,373h-20l10-40Z" transform="translate(26.5 18)"/><path class="cls-10" d="M1628,364h-20l10-40Zm-302-19h-20l10-40Z" transform="translate(26.5 18)"/><path class="cls-8" d="M1314,335h-20l10-40Z" transform="translate(26.5 18)"/><path class="cls-10" d="M1902.2,356h-8.3a2.9349,2.9349,0,0,1-2.9-3.7l7.1-28.3,7.1,28.3a3.1474,3.1474,0,0,1-3,3.7Z" transform="translate(26.5 18)"/><path class="cls-11" d="M1966.9,367h-5.8a2.032,2.032,0,0,1-2-2.6l4.9-19.7,4.9,19.7A2.032,2.032,0,0,1,1966.9,367Zm-198,0h-5.8a2.032,2.032,0,0,1-2-2.6l4.9-19.7,4.9,19.7A2.032,2.032,0,0,1,1768.9,367Z" transform="translate(26.5 18)"/><path class="cls-11" d="M1390.6,324h16.8a1.5525,1.5525,0,0,0,1.1-2.6l-21.8-21.8a9.81,9.81,0,0,0-9.1.9L1268,372h167l-45.4-45.4A1.5018,1.5018,0,0,1,1390.6,324Z" transform="translate(26.5 18)"/><path class="cls-9" d="M1407.4,324h-16.8a1.5525,1.5525,0,0,0-1.1,2.6L1435,372h63l-111.3-72.3,21.8,21.8A1.4919,1.4919,0,0,1,1407.4,324Z" transform="translate(26.5 18)"/><path class="cls-10" d="M1413.2,347.7a9.4854,9.4854,0,0,0-13.1-.1,9.336,9.336,0,0,0-2.6,5,5.8223,5.8223,0,0,0-7.8.3,5.5011,5.5011,0,0,0,.1,8,6.02,6.02,0,0,0,8.2.1,6.5668,6.5668,0,0,0,1.2-1.7,10.6022,10.6022,0,0,0,1,1.2,9.4854,9.4854,0,0,0,13.1.1,8.968,8.968,0,0,0-.1-12.9Z" transform="translate(26.5 18)"/><path class="cls-9" d="M1271,288l30.7,52.7a1.5161,1.5161,0,0,1-1.3,2.3h-10.8a1.4735,1.4735,0,0,0-1.3,2.2L1318,399h68L1278.1,291.1A10.0346,10.0346,0,0,0,1271,288Z" transform="translate(26.5 18)"/><path class="cls-11" d="M1289.5,343h10.8a1.5161,1.5161,0,0,0,1.3-2.3L1271,288a10.0346,10.0346,0,0,0-7.1,3.1L1156,399h162l-29.8-53.8A1.5075,1.5075,0,0,1,1289.5,343Z" transform="translate(26.5 18)"/><path class="cls-10" d="M1408.4,378a13.3638,13.3638,0,0,0,.6-4,14.0412,14.0412,0,0,0-14-14,13.8416,13.8416,0,0,0-9.2,3.5,22.4926,22.4926,0,0,0-30.4,7,15.0573,15.0573,0,0,0-3.6-.6c-5.7,0-10.6,3.1-12.2,8.1h68.8Z" transform="translate(26.5 18)"/><path class="cls-8" d="M1396,379h-20l10-40Z" transform="translate(26.5 18)"/><path class="cls-10" d="M1363,381h-20l10-40Z" transform="translate(26.5 18)"/><path class="cls-9" d="M1561.1,290.2l45,108.8H1670Z" transform="translate(26.5 18)"/><path class="cls-11" d="M1547.9,291.1,1440,399h166.1L1561,290.2A9.9463,9.9463,0,0,0,1547.9,291.1Z" transform="translate(26.5 18)"/><path class="cls-8" d="M1581,371h-20l10-40Z" transform="translate(26.5 18)"/><path class="cls-10" d="M1611,381h-20l10-40Zm-62-23h-20l10-40Z" transform="translate(26.5 18)"/><path class="cls-9" d="M1610.7,374.7a16.0591,16.0591,0,0,0-11.3-4.7h-4.7a16.0593,16.0593,0,0,1-11.3-4.7l-23.6-23.6a16.0589,16.0589,0,0,0-11.3-4.7h-39a16.0592,16.0592,0,0,1,11.3,4.7l23.6,23.6a16.0591,16.0591,0,0,0,11.3,4.7h4.7a16.0593,16.0593,0,0,1,11.3,4.7L1596,399h39Z" transform="translate(26.5 18)"/><path class="cls-10" d="M1357,386.1c-2-10.4-11.1-17.1-22.1-17.1h-1.1a30.1876,30.1876,0,0,0-24.1-12.9,29.8092,29.8092,0,0,0-24.4,12.2,18.8071,18.8071,0,0,0-14.9.5,22.63,22.63,0,0,0-31,6.7,15.0573,15.0573,0,0,0-3.6-.6c-6.8,0-12.4,4.3-12.7,11.1l133.9.1Z" transform="translate(26.5 18)"/><circle class="cls-10" cx="1678.5" cy="417" r="25"/><circle class="cls-10" cx="1716.5" cy="427" r="25"/><circle class="cls-10" cx="1645.5" cy="425" r="25"/><path class="cls-10" d="M1234.4,384a13.3638,13.3638,0,0,0,.6-4,14.0412,14.0412,0,0,0-14-14,13.8416,13.8416,0,0,0-9.2,3.5,22.4926,22.4926,0,0,0-30.4,7,15.0573,15.0573,0,0,0-3.6-.6c-5.7,0-10.6,3.1-12.2,8.1h68.8Z" transform="translate(26.5 18)"/><path class="cls-10" d="M1189.4,387a13.3638,13.3638,0,0,0,.6-4,14.0412,14.0412,0,0,0-14-14,13.8416,13.8416,0,0,0-9.2,3.5,22.4926,22.4926,0,0,0-30.4,7,15.0573,15.0573,0,0,0-3.6-.6c-5.7,0-10.6,3.1-12.2,8.1h68.8Z" transform="translate(26.5 18)"/><circle class="cls-10" cx="1509.5" cy="369" r="25"/><path class="cls-11" d="M1428.6,362.5l5-5a18.931,18.931,0,0,1,13.4-5.6h26.1a4.6907,4.6907,0,0,0,3.5-1.5l13.5-13.5h-41.2a45.47,45.47,0,0,0-32.3,13.4,22.7109,22.7109,0,0,1-16,6.6,15.8847,15.8847,0,0,0-11.3,4.7l-.2.2c-.7.7-1.5,1.4-2.2,2h38.2a4.0077,4.0077,0,0,0,3.5-1.3Z" transform="translate(26.5 18)"/><path class="cls-11" d="M1864.6,370.1a160.2522,160.2522,0,0,0-71.6,0l-100.9,23.4a192.9346,192.9346,0,0,1-64.4,3.7l-37.8-4.2-18.2-18.2a16.0591,16.0591,0,0,0-11.3-4.7h-4.7a16.0593,16.0593,0,0,1-11.3-4.7l-23.6-23.6a16.0589,16.0589,0,0,0-11.3-4.7H1486l-19.4,19.4a18.931,18.931,0,0,1-13.4,5.6h-16a10.3277,10.3277,0,0,0-7.1,2.9l-7.5,7.5a18.931,18.931,0,0,1-13.4,5.6h-53.1l5-5-69.1,6.7a335.0323,335.0323,0,0,1-78.8-.6,250.8989,250.8989,0,0,0-58.1-.2L958.9,402.2a315.2918,315.2918,0,0,1-73.3.1l-293.9-34a334.8052,334.8052,0,0,0-77.5,0l-83.1,10.1c-12.5,1.5-25.3,2.5-37.9,3a424.067,424.067,0,0,1-58.6-1.5c-25.4-2.4-101.2-11.6-101.2-11.6a334.8052,334.8052,0,0,0-77.5,0L72.8,378.4c-12.5,1.5-25.3,2.5-37.9,3a468.9326,468.9326,0,0,1-48.9-.7V603H1985V466h1V398.3l-121.4-28.2Z" transform="translate(26.5 18)"/><path class="cls-7" d="M1403,378h11.1a18.7586,18.7586,0,0,0,13.4-5.6l7.5-7.5a9.8977,9.8977,0,0,1,7.1-2.9h16a18.7586,18.7586,0,0,0,13.4-5.6l19.4-19.4h-11.8l-13.5,13.5a5.0926,5.0926,0,0,1-3.5,1.5H1436a18.7586,18.7586,0,0,0-13.4,5.6l-5,5a5.0926,5.0926,0,0,1-3.5,1.5h-27.2a36.5925,36.5925,0,0,1-20,8.4c-1,.1-2.1.2-3.1.3l-2.7.3-5,5H1403V378Z" transform="translate(26.5 18)"/><path class="cls-9" d="M625,416h3l4-2h-3Z" transform="translate(26.5 18)"/><path class="cls-9" d="M616,420l8-5h12Z" transform="translate(26.5 18)"/><path class="cls-12" d="M629,414V404h3v10Z" transform="translate(26.5 18)"/><path class="cls-13" d="M632,404h-3v4h3Z" transform="translate(26.5 18)"/><path class="cls-10" d="M626.6,395.9,625,405h11l-1.5-9.1H636l-4.6-22.5-.8-4.4v.2L625,395.9Z" transform="translate(26.5 18)"/><path class="cls-9" d="M452.5,412H457l6-3h-4.5Z" transform="translate(26.5 18)"/><path class="cls-9" d="M439,417.5l12-7.5h18Z" transform="translate(26.5 18)"/><path class="cls-12" d="M459,409V394h4v15Z" transform="translate(26.5 18)"/><path class="cls-13" d="M463,394h-4v6h4Z" transform="translate(26.5 18)"/><path class="cls-10" d="M454.7,381l-2.4,14h16.9L467,381h2.2l-7-34.7-1.2-6.7v.2L452.3,381Z" transform="translate(26.5 18)"/><path class="cls-9" d="M109,387h4.5l6-3H115Z" transform="translate(26.5 18)"/><path class="cls-9" d="M95.5,392.5l12-7.5h18Z" transform="translate(26.5 18)"/><path class="cls-12" d="M116,384V369h4v15Z" transform="translate(26.5 18)"/><path class="cls-13" d="M120,369h-4v6h4Z" transform="translate(26.5 18)"/><path class="cls-10" d="M111.7,356l-2.4,14h16.9L124,356h2.2l-7-34.7-1.2-6.7v.2L109.3,356Z" transform="translate(26.5 18)"/><path class="cls-9" d="M234.5,399H239l6-3h-4.5Z" transform="translate(26.5 18)"/><path class="cls-9" d="M221,404.5l12-7.5h18Z" transform="translate(26.5 18)"/><path class="cls-12" d="M241,396V381h4v15Z" transform="translate(26.5 18)"/><path class="cls-13" d="M245,381h-4v6h4Z" transform="translate(26.5 18)"/><path class="cls-10" d="M236.7,368l-2.4,14h16.9L249,368h2.2l-7-34.7-1.2-6.7v.2L234.3,368Z" transform="translate(26.5 18)"/><path class="cls-5" d="M997,529V517.8L981.5,503H961.4l-15-15H925l-12,12H901l-19,18.6V529Z" transform="translate(26.5 18)"/><path class="cls-7" d="M997,535V523.8L981.5,509H961.4l-15-15H925l-12,12H901l-19,18.6V535Z" transform="translate(26.5 18)"/><path class="cls-6" d="M985,533v-6.4L974.4,516H954.8l-15.9-16H928v15H913.6l-18.4,18Z" transform="translate(26.5 18)"/><circle class="cls-8" cx="1771.5" cy="443" r="50"/><circle class="cls-10" cx="1714.5" cy="473" r="50"/><circle class="cls-10" cx="1469.5" cy="447" r="35"/><circle class="cls-10" cx="1339.5" cy="443" r="35"/><circle class="cls-10" cx="1301.5" cy="452" r="35"/><circle class="cls-10" cx="1519.5" cy="455" r="50"/><circle class="cls-10" cx="234.5" cy="449" r="50"/><circle class="cls-8" cx="167.5" cy="455" r="50"/><circle class="cls-8" cx="200.5" cy="442" r="50"/><circle class="cls-8" cx="374.5" cy="462" r="50"/><circle class="cls-8" cx="1825.5" cy="452" r="50"/><circle class="cls-10" cx="1947.5" cy="464" r="50"/><path class="cls-8" d="M1161.8,399l3.9-22h-2.4l11.7-58.4,12.8,58.4h-2l4.5,22H1186l4.3,22h-28.5l4-22Z" transform="translate(26.5 18)"/><path class="cls-10" d="M1175,317.9l-7.7,59.1h-5.2ZM1164.7,377h5.6l-2.2,22h4.1l-4.1,22h-7.6l4-22h-4Z" transform="translate(26.5 18)"/><path class="cls-8" d="M1833.8,378l3.9-22h-2.4l11.7-58.4,12.8,58.4h-2l4.5,22H1858l4.3,22h-28.5l4-22Z" transform="translate(26.5 18)"/><path class="cls-10" d="M1847,296.9l-7.7,59.1h-5.2ZM1836.7,356h5.6l-2.2,22h4.1l-4.1,22h-7.6l4-22h-4Z" transform="translate(26.5 18)"/><path class="cls-8" d="M403.9,391,400,369h2.5l-11.7-58.4L377.9,369h2l-4.4,22h4.3l-4.3,22h28.4l-4-22Z" transform="translate(26.5 18)"/><path class="cls-10" d="M390.8,309.9l7.7,59.1h5.2ZM401.1,369h-5.7l2.3,22h-4.1l4.1,22h7.6l-4.1-22h4.1Z" transform="translate(26.5 18)"/><path class="cls-8" d="M1936,433a50.0182,50.0182,0,0,0,50,50V383A50.0182,50.0182,0,0,0,1936,433Z" transform="translate(26.5 18)"/><path class="cls-8" d="M39.9,391,36,369h2.5L26.8,310.6,13.9,369h2l-4.4,22h4.3l-4.3,22H39.9l-4-22Z" transform="translate(26.5 18)"/><path class="cls-10" d="M26.8,309.9,34.5,369h5.2ZM37.1,369H31.4l2.3,22H29.6l4.1,22h7.6l-4.1-22h4.1Z" transform="translate(26.5 18)"/><path class="cls-9" d="M1986,424.3,1864.6,396a160.2522,160.2522,0,0,0-71.6,0l-100.9,23.4a192.9346,192.9346,0,0,1-64.4,3.7L1409,398.7a251.4569,251.4569,0,0,0-56.2,0l-60.8,7a335.0323,335.0323,0,0,1-78.8-.6,1.2681,1.2681,0,0,1-.6-.1,145.5365,145.5365,0,0,0-90.7,19.5l-135,79.9a133.1885,133.1885,0,0,1-69.3,18.8h-2.3a135.6694,135.6694,0,0,1-50.6-11L614.4,404a145.214,145.214,0,0,0-55.5-12,325.8361,325.8361,0,0,0-44.6,2.2l-83.1,10.1c-12.5,1.5-25.3,2.5-37.9,3a424.0656,424.0656,0,0,1-58.6-1.5c-25.4-2.4-101.2-11.6-101.2-11.6a334.8052,334.8052,0,0,0-77.5,0L72.9,404.3c-12.5,1.5-25.3,2.5-37.9,3a468.9326,468.9326,0,0,1-48.9-.7V629h2000V424.3h-.1Z" transform="translate(26.5 18)"/><path class="cls-11" d="M250,438.4c-.1-.2-.2-.3-.4-.2a4.9508,4.9508,0,0,0-1.3.4,17.1919,17.1919,0,0,0-8.4,6.1c-.3.4-1,.1-.8-.4a19.7653,19.7653,0,0,1,8.6-11.5c.2-.1.2-.3.1-.5s-.3-.2-.5-.2c-.6.2-1,.5-1.5.7A20.2354,20.2354,0,0,0,235,452h5a15.9945,15.9945,0,0,1,9.8-13.1c.2-.1.2-.3.2-.5Zm311-28.3c0-.1-.2-.2-.3-.2a2.92,2.92,0,0,1-.9.2,10.8083,10.8083,0,0,0-5.6,4,.34.34,0,0,1-.6-.3,12.978,12.978,0,0,1,5.7-7.5.3674.3674,0,0,0,.1-.3c-.1-.1-.2-.2-.3-.1a6.8946,6.8946,0,0,1-1,.4,13.1792,13.1792,0,0,0-7.2,12.5h3.3a10.5708,10.5708,0,0,1,6.5-8.6C561,410.4,561,410.3,561,410.1Z" transform="translate(26.5 18)"/><ellipse class="cls-10" cx="477.5" cy="482" rx="5" ry="2"/><ellipse class="cls-10" cx="50.5" cy="470" rx="5" ry="2"/><ellipse class="cls-10" cx="254.5" cy="539" rx="5" ry="2"/><ellipse class="cls-11" cx="270.5" cy="517" rx="5" ry="2"/><ellipse class="cls-11" cx="374.5" cy="474" rx="5" ry="2"/><ellipse class="cls-11" cx="622.5" cy="466" rx="5" ry="2"/><ellipse class="cls-11" cx="126.5" cy="481" rx="5" ry="2"/><ellipse class="cls-11" cx="1336.5" cy="464.5" rx="4" ry="1.5"/><ellipse class="cls-11" cx="1058.5" cy="532.5" rx="4" ry="1.5"/><ellipse class="cls-11" cx="1452.5" cy="475.5" rx="4" ry="1.5"/><ellipse class="cls-11" cx="1215.5" cy="506.5" rx="4" ry="1.5"/><ellipse class="cls-11" cx="1720.5" cy="469.5" rx="4" ry="1.5"/><ellipse class="cls-11" cx="1669.5" cy="524.5" rx="4" ry="1.5"/><ellipse class="cls-11" cx="1533.5" cy="438.5" rx="4" ry="1.5"/><ellipse class="cls-11" cx="1841.5" cy="496.5" rx="4" ry="1.5"/><ellipse class="cls-11" cx="1613.5" cy="484.5" rx="4" ry="1.5"/><ellipse class="cls-11" cx="1931.5" cy="536.5" rx="4" ry="1.5"/><ellipse class="cls-11" cx="1096.5" cy="464.5" rx="4" ry="1.5"/><ellipse class="cls-11" cx="1049.5" cy="441.5" rx="4" ry="1.5"/><ellipse class="cls-11" cx="1105.5" cy="487.5" rx="3" ry="1.5"/><ellipse class="cls-11" cx="622.5" cy="509.5" rx="3" ry="1.5"/><ellipse class="cls-11" cx="318.5" cy="475.5" rx="3" ry="1.5"/><ellipse class="cls-11" cx="114.5" cy="520.5" rx="3" ry="1.5"/><ellipse class="cls-10" cx="1151.5" cy="491" rx="2" ry="1"/><ellipse class="cls-10" cx="1250.5" cy="513" rx="2" ry="1"/><ellipse class="cls-9" cx="1051.5" cy="472" rx="2" ry="1"/><ellipse class="cls-9" cx="1079.5" cy="468" rx="2" ry="1"/><ellipse class="cls-9" cx="1428.5" cy="408" rx="2" ry="1"/><ellipse class="cls-9" cx="1487.5" cy="393" rx="2" ry="1"/><ellipse class="cls-9" cx="1473.5" cy="362" rx="2" ry="1"/><ellipse class="cls-9" cx="1444.5" cy="404" rx="2" ry="1"/><ellipse class="cls-9" cx="1841.5" cy="393" rx="2" ry="1"/><ellipse class="cls-9" cx="1920.5" cy="404" rx="2" ry="1"/><ellipse class="cls-9" cx="1641.5" cy="421" rx="2" ry="1"/><ellipse class="cls-9" cx="1481.5" cy="406" rx="2" ry="1"/><ellipse class="cls-9" cx="1512.5" cy="384" rx="2" ry="1"/><ellipse class="cls-9" cx="1554.5" cy="385" rx="2" ry="1"/><ellipse class="cls-9" cx="1004.5" cy="508" rx="2" ry="1"/><ellipse class="cls-9" cx="927.5" cy="500" rx="2" ry="1"/><ellipse class="cls-9" cx="854.5" cy="462" rx="2" ry="1"/><ellipse class="cls-9" cx="699.5" cy="411" rx="2" ry="1"/><ellipse class="cls-9" cx="458.5" cy="409" rx="2" ry="1"/><ellipse class="cls-9" cx="440.5" cy="415" rx="2" ry="1"/><ellipse class="cls-9" cx="392.5" cy="406" rx="2" ry="1"/><ellipse class="cls-9" cx="318.5" cy="411" rx="2" ry="1"/><ellipse class="cls-9" cx="252.5" cy="392" rx="2" ry="1"/><ellipse class="cls-9" cx="98.5" cy="409" rx="2" ry="1"/><ellipse class="cls-9" cx="702.5" cy="432" rx="2" ry="1"/><ellipse class="cls-9" cx="740.5" cy="415" rx="2" ry="1"/><ellipse class="cls-9" cx="895.5" cy="514" rx="2" ry="1"/><ellipse class="cls-9" cx="982.5" cy="437" rx="2" ry="1"/><ellipse class="cls-9" cx="1035.5" cy="458" rx="2" ry="1"/><ellipse class="cls-9" cx="836.5" cy="448" rx="2" ry="1"/><ellipse class="cls-9" cx="940.5" cy="438" rx="2" ry="1"/><ellipse class="cls-9" cx="780.5" cy="439" rx="2" ry="1"/><ellipse class="cls-9" cx="1143.5" cy="431" rx="2" ry="1"/><ellipse class="cls-9" cx="815.5" cy="430" rx="2" ry="1"/><ellipse class="cls-9" cx="879.5" cy="425" rx="2" ry="1"/><ellipse class="cls-9" cx="642.5" cy="397" rx="2" ry="1"/><ellipse class="cls-9" cx="556.5" cy="389" rx="2" ry="1"/><ellipse class="cls-9" cx="1161.5" cy="412" rx="2" ry="1"/><ellipse class="cls-9" cx="1310.5" cy="406" rx="2" ry="1"/><ellipse class="cls-9" cx="976.5" cy="487" rx="2" ry="1"/><ellipse class="cls-9" cx="1070.5" cy="427" rx="2" ry="1"/><ellipse class="cls-9" cx="1125.5" cy="416" rx="2" ry="1"/><ellipse class="cls-10" cx="483.5" cy="443" rx="2" ry="1"/><ellipse class="cls-10" cx="333.5" cy="533" rx="2" ry="1"/><ellipse class="cls-10" cx="269.5" cy="497" rx="2" ry="1"/><ellipse class="cls-10" cx="49.5" cy="441" rx="2" ry="1"/><ellipse class="cls-10" cx="155.5" cy="469" rx="2" ry="1"/><ellipse class="cls-10" cx="398.5" cy="446" rx="2" ry="1"/><ellipse class="cls-10" cx="407.5" cy="468" rx="2" ry="1"/><ellipse class="cls-10" cx="647.5" cy="444" rx="2" ry="1"/><ellipse class="cls-10" cx="94.5" cy="443" rx="2" ry="1"/><ellipse class="cls-10" cx="222.5" cy="453" rx="2" ry="1"/><ellipse class="cls-10" cx="99.5" cy="537" rx="2" ry="1"/><ellipse class="cls-10" cx="53.5" cy="492" rx="2" ry="1"/><ellipse class="cls-10" cx="35.5" cy="513" rx="2" ry="1"/><ellipse class="cls-10" cx="596.5" cy="478" rx="2" ry="1"/><ellipse class="cls-10" cx="27.5" cy="453" rx="2" ry="1"/><ellipse class="cls-11" cx="1316.5" cy="443" rx="2" ry="1"/><ellipse class="cls-11" cx="1431.5" cy="432" rx="2" ry="1"/><ellipse class="cls-11" cx="1196.5" cy="450" rx="2" ry="1"/><ellipse class="cls-11" cx="448.5" cy="458" rx="2" ry="1"/><ellipse class="cls-11" cx="220.5" cy="427" rx="2" ry="1"/><ellipse class="cls-11" cx="77.5" cy="475" rx="2" ry="1"/><ellipse class="cls-11" cx="132.5" cy="440" rx="2" ry="1"/><ellipse class="cls-11" cx="189.5" cy="455" rx="2" ry="1"/><ellipse class="cls-11" cx="305.5" cy="439" rx="2" ry="1"/><ellipse class="cls-11" cx="161.5" cy="425" rx="2" ry="1"/><ellipse class="cls-11" cx="424.5" cy="444" rx="2" ry="1"/><ellipse class="cls-11" cx="290.5" cy="482" rx="2" ry="1"/><ellipse class="cls-11" cx="534.5" cy="490" rx="2" ry="1"/><ellipse class="cls-10" cx="347.5" cy="433" rx="2" ry="1"/><ellipse class="cls-10" cx="513.5" cy="506" rx="2" ry="1"/><ellipse class="cls-11" cx="462.5" cy="436" rx="2" ry="1"/><ellipse class="cls-11" cx="582.5" cy="465" rx="2" ry="1"/><ellipse class="cls-11" cx="565.5" cy="424" rx="2" ry="1"/><ellipse class="cls-10" cx="1291.5" cy="464.5" rx="3" ry="1.5"/><ellipse class="cls-10" cx="1094.5" cy="528.5" rx="3" ry="1.5"/><ellipse class="cls-10" cx="1413.5" cy="451.5" rx="3" ry="1.5"/><ellipse class="cls-10" cx="1493.5" cy="434.5" rx="3" ry="1.5"/><ellipse class="cls-10" cx="1393.5" cy="512.5" rx="3" ry="1.5"/><path class="cls-7" d="M843,423.3l73.1-19c1.7,0,12.1-.3,13.8-.3l-50.5,15.5a3.9175,3.9175,0,0,0-2.6,4.1,4.0363,4.0363,0,0,0,3.3,3.6L981.9,444a3.5638,3.5638,0,0,1,.2,7L774.3,493.6V461.9L889,447.7a4.0064,4.0064,0,0,0,.3-7.9l-46.1-9.3a3.7162,3.7162,0,0,1-.2-7.2Z" transform="translate(26.5 18)"/><ellipse class="cls-10" cx="1214.5" cy="464.5" rx="3" ry="1.5"/><ellipse class="cls-10" cx="1532.5" cy="458.5" rx="3" ry="1.5"/><ellipse class="cls-10" cx="1727.5" cy="499.5" rx="3" ry="1.5"/><ellipse class="cls-10" cx="1554.5" cy="494.5" rx="3" ry="1.5"/><ellipse class="cls-10" cx="1879.5" cy="527.5" rx="3" ry="1.5"/><circle class="cls-10" cx="854.5" cy="581" r="35"/><circle class="cls-10" cx="805.5" cy="570" r="35"/><ellipse class="cls-10" cx="1838.5" cy="432.5" rx="3" ry="1.5"/><ellipse class="cls-10" cx="1740.5" cy="541.5" rx="3" ry="1.5"/><path class="cls-10" d="M911.7,550.3c-22.6,0-42.5,11.3-52.9,30.7H964.7C954.1,561.6,934.3,550.3,911.7,550.3Z" transform="translate(26.5 18)"/><ellipse class="cls-10" cx="1778.5" cy="437.5" rx="3" ry="1.5"/><path class="cls-10" d="M913.6,560.4A29.99,29.99,0,0,0,892,535.9a29.4707,29.4707,0,0,0-16.4.2,15.8226,15.8226,0,0,0-12.6-6.2,16.8955,16.8955,0,0,0-6.3,1.3,35.1542,35.1542,0,0,0-26.8-19.9v-.4a34.998,34.998,0,0,0-28.6-34.4,68.2986,68.2986,0,0,0-4.8-17.6H652.7a32.602,32.602,0,0,0-.7,7,34.9113,34.9113,0,0,0,15.7,29.2,67.4784,67.4784,0,0,0,66.8,57.8,70.2207,70.2207,0,0,0,14.6-1.6,29.4361,29.4361,0,0,0-6.3,8.1,29.8083,29.8083,0,0,0,1.4,30.5H899.8a29.4388,29.4388,0,0,0,13.8-29.5Z" transform="translate(26.5 18)"/><path class="cls-8" d="M639.7,533a60,60,0,0,0-120,0Zm261.9,41.4A29.99,29.99,0,0,0,880,549.9a29.5871,29.5871,0,0,0-31,10h-1a34.9325,34.9325,0,0,0-30-34.6v-.4a34.998,34.998,0,0,0-28.6-34.4,65.3544,65.3544,0,0,0-4.9-17.7,18.1653,18.1653,0,0,0-16.6-10.9H658.2A18.12,18.12,0,0,0,640,479.7v.2a34.9113,34.9113,0,0,0,15.7,29.2,67.4784,67.4784,0,0,0,66.8,57.8,70.2207,70.2207,0,0,0,14.6-1.6,29.4361,29.4361,0,0,0-6.3,8.1,29.8083,29.8083,0,0,0,1.4,30.5H887.8a29.4388,29.4388,0,0,0,13.8-29.5Z" transform="translate(26.5 18)"/><path class="cls-10" d="M700.7,510a60,60,0,0,0-120,0Z" transform="translate(26.5 18)"/><ellipse class="cls-10" cx="1341.5" cy="494.5" rx="3" ry="1.5"/><ellipse class="cls-10" cx="1167.5" cy="457.5" rx="3" ry="1.5"/><ellipse class="cls-10" cx="1065.5" cy="508.5" rx="3" ry="1.5"/><ellipse class="cls-10" cx="1784.5" cy="509.5" rx="3" ry="1.5"/><path class="cls-10" d="M681.5,474.7a19.965,19.965,0,1,0-19.9-19.9,19.7613,19.7613,0,0,0,19.9,19.9Z" transform="translate(26.5 18)"/><path class="cls-11" d="M1461.1,451a3.1728,3.1728,0,0,1-2.8-1.9,18.5633,18.5633,0,0,0-10.1-10.3.3652.3652,0,0,1-.2-.5.55.55,0,0,1,.5-.3c.6.1,1.1.3,1.6.4a19.9791,19.9791,0,0,1,11.7,10,23.5206,23.5206,0,0,0-10.9-16.9.4809.4809,0,0,1-.2-.6.3652.3652,0,0,1,.5-.2c.7.3,1.2.5,1.8.8a24.32,24.32,0,0,1,12.7,17.2,1.973,1.973,0,0,1-2,2.3Zm337.7-11a1.9555,1.9555,0,0,1-1.9-1.3,12.5308,12.5308,0,0,0-7-7.1.52.52,0,0,1-.2-.4c0-.1.2-.2.3-.2.4.1.7.2,1.1.3a13.5122,13.5122,0,0,1,8,6.8,16.1616,16.1616,0,0,0-7.5-11.6c-.1-.1-.2-.2-.1-.4.1-.1.2-.2.4-.1a6.6549,6.6549,0,0,1,1.2.6,17.0989,17.0989,0,0,1,8.8,11.8,1.3649,1.3649,0,0,1-1.4,1.6h-1.7Zm-159.3,47a3.1727,3.1727,0,0,0,2.8-1.9,18.5638,18.5638,0,0,1,10.1-10.3.3652.3652,0,0,0,.2-.5.55.55,0,0,0-.5-.3c-.6.1-1.1.3-1.6.4a19.98,19.98,0,0,0-11.7,10,23.521,23.521,0,0,1,10.9-16.9.4809.4809,0,0,0,.2-.6.3653.3653,0,0,0-.5-.2c-.7.3-1.2.5-1.8.8a24.32,24.32,0,0,0-12.7,17.2,1.973,1.973,0,0,0,2,2.3Zm319-10a3.1727,3.1727,0,0,0,2.8-1.9,18.5638,18.5638,0,0,1,10.1-10.3.3652.3652,0,0,0,.2-.5.55.55,0,0,0-.5-.3c-.6.1-1.1.3-1.6.4a19.98,19.98,0,0,0-11.7,10,23.521,23.521,0,0,1,10.9-16.9.4809.4809,0,0,0,.2-.6.3653.3653,0,0,0-.5-.2c-.7.3-1.2.5-1.8.8a24.32,24.32,0,0,0-12.7,17.2,1.973,1.973,0,0,0,2,2.3Z" transform="translate(26.5 18)"/><ellipse class="cls-9" cx="1454.5" cy="426.5" rx="3" ry="1.5"/><path class="cls-5" d="M791.5,258a1,1,0,0,1,0-2h9a1,1,0,0,1,0,2Z" transform="translate(26.5 18)"/><path class="cls-8" d="M732.4,435.4l1.2-10.4-.1.1a17.1029,17.1029,0,0,0-6.6,13.6V443h6l12-12c-4.9,0-9.3,1.2-12.5,4.4Z" transform="translate(26.5 18)"/><path class="cls-14" d="M778,526.1,806,443l-28,17Z" transform="translate(26.5 18)"/><path class="cls-13" d="M784,460H687.5v80h85.7L784,508.7Z" transform="translate(26.5 18)"/><path class="cls-14" d="M778,460H687.5v81H773l5-14.9Z" transform="translate(26.5 18)"/><path class="cls-13" d="M773,460H669V598h84.8L773,541Z" transform="translate(26.5 18)"/><path class="cls-11" d="M683.4,443c-2.9,0-6.9.7-8.8,2.8l-6.6,7.6c-2,2-6,4.6-8.8,4.6H631.9a23.982,23.982,0,0,0-17,7l-11.3,11.3a16.059,16.059,0,0,1-11.3,4.7H579.1a15.757,15.757,0,0,0-13.8,8L502,598H651L806,443Z" transform="translate(26.5 18)"/><path class="cls-15" d="M648,346h15V447H648Zm52.1,39L682,346H665l24,50v36h13V393.4A18.7812,18.7812,0,0,0,700.1,385Z" transform="translate(26.5 18)"/><path class="cls-15" d="M648,346h35v18H648Z" transform="translate(26.5 18)"/><path class="cls-16" d="M659,364h4v83h-4Zm42.1,21L683,346h-5l18.1,39a20.2245,20.2245,0,0,1,1.9,8.4V432h5V393.4A18.7812,18.7812,0,0,0,701.1,385Z" transform="translate(26.5 18)"/><path class="cls-14" d="M684.8,280.8a6.1742,6.1742,0,0,0-4.2-1.8H678v67h5V297l5,5,9-9Z" transform="translate(26.5 18)"/><path class="cls-13" d="M727,229.9V286a45.34,45.34,0,0,0,8,1.6V231.5A45.34,45.34,0,0,1,727,229.9Z" transform="translate(26.5 18)"/><path class="cls-14" d="M762,229.9c-9,1.3-18,2.6-27,1.6v56.1c9,1,18-.3,27-1.6,11.7-1.7,23.3-3.4,35,0V229.9C785.3,226.6,773.7,228.3,762,229.9Z" transform="translate(26.5 18)"/><path class="cls-13" d="M680.5,279H644v67h34V283a3.9816,3.9816,0,0,1,3.3-3.9A1.95,1.95,0,0,0,680.5,279Z" transform="translate(26.5 18)"/><path class="cls-15" d="M704,300l-7-7-9,9,6.1,6.1a9.8977,9.8977,0,0,0,7.1,2.9h9.9V300Zm-51-24h11v5H653Zm35.2-20a4.0334,4.0334,0,0,0-3.5-2H680v7h11Z" transform="translate(26.5 18)"/><path class="cls-17" d="M671,272h5v7h-5Z" transform="translate(26.5 18)"/><path class="cls-18" d="M664,272h7v7h-7Z" transform="translate(26.5 18)"/><path class="cls-18" d="M678,276a8.9626,8.9626,0,0,0,9-9V254H669v13A8.9626,8.9626,0,0,0,678,276Z" transform="translate(26.5 18)"/><path class="cls-15" d="M685,258h7.5l-2.5-4h-9a2.0059,2.0059,0,0,1-2-2v-3H663.9a3.553,3.553,0,0,0-1,.2,12.9609,12.9609,0,0,0-6.7,11.3v1a11.8265,11.8265,0,0,0,2.8,7.8V276h7.9a10.3272,10.3272,0,0,0,7.1-2.9l5.1-5.1v-3h1a2.0059,2.0059,0,0,0,2-2v-2A2.8083,2.8083,0,0,1,685,258Z" transform="translate(26.5 18)"/><path class="cls-18" d="M675.5,266a4.0118,4.0118,0,0,0,4,4v-8A4.0118,4.0118,0,0,0,675.5,266Z" transform="translate(26.5 18)"/><path class="cls-19" d="M679,241H669a10.9683,10.9683,0,0,0-11,11v2h28v-6A6.9569,6.9569,0,0,0,679,241Z" transform="translate(26.5 18)"/><path class="cls-15" d="M659,248h-.2a10.571,10.571,0,0,0-.8,4v1h6.9A6.0162,6.0162,0,0,0,659,248Z" transform="translate(26.5 18)"/><path class="cls-20" d="M682,249a5.0429,5.0429,0,0,1,3.8-4.9A6.9814,6.9814,0,0,0,680,241h-9a6.9569,6.9569,0,0,1,7,7v6h9v-1h-5Z" transform="translate(26.5 18)"/><path class="cls-21" d="M685.8,244.1A4.9583,4.9583,0,0,0,682,249v4h5v-5A6.894,6.894,0,0,0,685.8,244.1Z" transform="translate(26.5 18)"/><path class="cls-19" d="M658,252h32v2H658Z" transform="translate(26.5 18)"/><path class="cls-19" d="M694,250h-7l-8,4h11l4-2Z" transform="translate(26.5 18)"/><path class="cls-15" d="M648.5,319h0ZM671,279c-2.5,2.2-3,4.7-3,8v21c0,6.4-7.1,11-13.1,11h5c6,0,13.1-4.6,13.1-11V287c0-3.3.5-5.8,3-8Z" transform="translate(26.5 18)"/><path class="cls-15" d="M676,291.7a1.4152,1.4152,0,0,1-1.4,1.3h-8.1a1.3474,1.3474,0,0,1-1.4-1.3v-.3a1.4152,1.4152,0,0,1,1.4-1.3h8.1a1.3474,1.3474,0,0,1,1.4,1.3Zm0,7.9a1.5027,1.5027,0,0,1-1.4,1.4h-8.1a1.3671,1.3671,0,0,1-1.4-1.4v-.3a1.4152,1.4152,0,0,1,1.4-1.3h8.1a1.3474,1.3474,0,0,1,1.4,1.3Zm7,27.4H667v8h16Zm0-11H667v8h16Z" transform="translate(26.5 18)"/><path class="cls-16" d="M685.5,316H683v8h2.5a1.538,1.538,0,0,0,1.5-1.5v-5A1.538,1.538,0,0,0,685.5,316Zm0,11H683v8h2.5a1.538,1.538,0,0,0,1.5-1.5v-5A1.538,1.538,0,0,0,685.5,327Z" transform="translate(26.5 18)"/><path class="cls-9" d="M663,258H620.6a5.9732,5.9732,0,0,0-4.8,3H663Z" transform="translate(26.5 18)"/><path class="cls-10" d="M615.8,261a11.3974,11.3974,0,0,0-1.6,6,11.1659,11.1659,0,0,0,1.1,5H663V261Z" transform="translate(26.5 18)"/><path class="cls-8" d="M615.2,272c1.2,2.4,3.1,4,5.3,4h42.4v-4Z" transform="translate(26.5 18)"/><path class="cls-15" d="M644.8,267.1a15.9868,15.9868,0,0,1,2.4-9,2.476,2.476,0,0,1,2.1-1.1h1.3a.6336.6336,0,0,1,.5,1,16.21,16.21,0,0,0-2.5,9.2,16.7257,16.7257,0,0,0,2.3,8.9h-3.8A17.1006,17.1006,0,0,1,644.8,267.1Zm-24,0a15.9868,15.9868,0,0,1,2.4-9,2.476,2.476,0,0,1,2.1-1.1h1.3a.6336.6336,0,0,1,.5,1,16.21,16.21,0,0,0-2.5,9.2,16.7257,16.7257,0,0,0,2.3,8.9h-3.8A17.1006,17.1006,0,0,1,620.8,267.1Z" transform="translate(26.5 18)"/><ellipse class="cls-9" cx="689.5" cy="285" rx="7" ry="9"/><ellipse class="cls-5" cx="689.5" cy="285" rx="4" ry="5"/><ellipse class="cls-6" cx="689.5" cy="285" rx="2" ry="3"/><path class="cls-6" d="M649,264h-2a.9448.9448,0,0,1,1,1v3a.9448.9448,0,0,1-1,1h2a.9448.9448,0,0,0,1-1v-3A.9448.9448,0,0,0,649,264Zm-24,0h-2a.9448.9448,0,0,1,1,1v3a.9448.9448,0,0,1-1,1h2a.9448.9448,0,0,0,1-1v-3A.9448.9448,0,0,0,625,264Z" transform="translate(26.5 18)"/><path class="cls-5" d="M648,268v-3a.9448.9448,0,0,0-1-1h-3a.9448.9448,0,0,0-1,1v3a.9448.9448,0,0,0,1,1h3A.9448.9448,0,0,0,648,268Zm-24,0v-3a.9448.9448,0,0,0-1-1h-3a.9448.9448,0,0,0-1,1v3a.9448.9448,0,0,0,1,1h3A.9448.9448,0,0,0,624,268Z" transform="translate(26.5 18)"/><path class="cls-20" d="M656.5,276H628.7a10.4747,10.4747,0,0,0-5.9,3l-2.3,2.3a14,14,0,0,0-3.8,12.9l8.1,36.8h34.9Z" transform="translate(26.5 18)"/><path class="cls-16" d="M659.8,331h-35l1.3,6h34Z" transform="translate(26.5 18)"/><path class="cls-15" d="M626.1,337v.1a7.5782,7.5782,0,0,0,7.3,5.9h27l-.4-6Z" transform="translate(26.5 18)"/><path class="cls-20" d="M657,275.9Z" transform="translate(26.5 18)"/><path class="cls-19" d="M643.3,294.2a14.4414,14.4414,0,0,1,.8-8.5,13.76,13.76,0,0,1,2.3-3.6.0979.0979,0,0,1,.1-.1c.1-.1.2-.3.4-.4.1-.1.2-.2.2-.3l.4-.4H631.4a10.5961,10.5961,0,0,0-7.5,3.1l-2.3,2.3a14,14,0,0,0-3.8,12.9l1.6,7.5a2.9873,2.9873,0,0,0,2.9,2.4h20.5a2.9867,2.9867,0,0,0,2.9-3.6Z" transform="translate(26.5 18)"/><path class="cls-21" d="M649.4,279l-2.3,2.3a14,14,0,0,0-3.8,12.9l9.4,42.9A7.5782,7.5782,0,0,0,660,343c4.1,0,8-3.4,8-7.5v-49c0-5.3-4.4-9.7-9.4-10.5h-3.3A10.4747,10.4747,0,0,0,649.4,279Z" transform="translate(26.5 18)"/><path class="cls-20" d="M643.3,294.2a14,14,0,0,1,3.8-12.9H617.6a14,14,0,0,0-3.8,12.9l1.6,7.5a2.9873,2.9873,0,0,0,2.9,2.4h23.4a2.9867,2.9867,0,0,0,2.9-3.6Z" transform="translate(26.5 18)"/><path class="cls-19" d="M640.4,277a9.9582,9.9582,0,0,1,1.1-1h-9.4a13.1092,13.1092,0,0,0-2.8,2l-2.3,2.3c-.3.3-.6.7-.9,1h10.2a10.6146,10.6146,0,0,1,1.7-2Zm-15,0a9.9582,9.9582,0,0,1,1.1-1h-.8a10.4747,10.4747,0,0,0-5.9,3l-2.3,2.3h3.9a10.6146,10.6146,0,0,1,1.7-2Zm21.7-1a13.1092,13.1092,0,0,0-2.8,2l-2.3,2.3c-.3.3-.6.7-.9,1H647l2.3-2.3a11.1365,11.1365,0,0,1,5.9-3Z" transform="translate(26.5 18)"/><path class="cls-16" d="M634.3,292.2l2.8,13.8H641l-2.7-12.8a14.172,14.172,0,0,1,2.9-11.9h-4.8A14.34,14.34,0,0,0,634.3,292.2Z" transform="translate(26.5 18)"/><path class="cls-15" d="M644.4,278a9.507,9.507,0,0,1,2.8-2h-5.6a5.2413,5.2413,0,0,0-1.1,1l-2.3,2.3a16.3194,16.3194,0,0,0-1.7,2h4.8c.3-.3.6-.7.9-1Z" transform="translate(26.5 18)"/><path class="cls-16" d="M619.3,292.2l2.8,13.8H626l-2.7-12.8a14.172,14.172,0,0,1,2.9-11.9h-4.8A14.34,14.34,0,0,0,619.3,292.2Z" transform="translate(26.5 18)"/><path class="cls-15" d="M629.4,278a9.507,9.507,0,0,1,2.8-2h-5.6a5.2413,5.2413,0,0,0-1.1,1l-2.3,2.3a16.3194,16.3194,0,0,0-1.7,2h4.8c.3-.3.6-.7.9-1Zm8.5,26a1.0551,1.0551,0,0,0-1,1.2l.6,2.8.4,2.2a.9738.9738,0,0,0,1,.8h1.9a1.0551,1.0551,0,0,0,1-1.2l-1-5a.9738.9738,0,0,0-1-.8Zm-15.4,4,.4,2.2a.9738.9738,0,0,0,1,.8h1.9a1.0551,1.0551,0,0,0,1-1.2l-1-5a.9738.9738,0,0,0-1-.8h-1.9a1.0551,1.0551,0,0,0-1,1.2Z" transform="translate(26.5 18)"/><circle class="cls-15" cx="655.5" cy="312" r="3"/><path class="cls-16" d="M624.7,316h15.7a1.0551,1.0551,0,0,0,1-1.2l-.2-1a.9738.9738,0,0,0-1-.8H625.3a1.0551,1.0551,0,0,0-1,1.2Z" transform="translate(26.5 18)"/><path class="cls-15" d="M627.2,320H627a1.7206,1.7206,0,0,1-1.7-1.4l-.6-2.6h3l.6,2.6A1.0652,1.0652,0,0,1,627.2,320Z" transform="translate(26.5 18)"/><path class="cls-16" d="M644,325H627.8a.9738.9738,0,0,1-1-.8l-.2-1a1.0013,1.0013,0,0,1,1-1.2h14.9a.9738.9738,0,0,1,1,.8Z" transform="translate(26.5 18)"/><path class="cls-15" d="M643.4,329h.2a1.0652,1.0652,0,0,0,1.1-1.4L644,325h-3l.6,2.6A1.921,1.921,0,0,0,643.4,329Z" transform="translate(26.5 18)"/><path class="cls-7" d="M665,312.6l-1-2.6h-5v19h4a4.0118,4.0118,0,0,0,4-4v-9A3.756,3.756,0,0,0,665,312.6Z" transform="translate(26.5 18)"/><path class="cls-6" d="M659,325v-9a3.756,3.756,0,0,1,2-3.4l1-2.6h-4l-1,2.6a3.9939,3.9939,0,0,0-2,3.4v9a4.0118,4.0118,0,0,0,4,4h3v-.1A4.0788,4.0788,0,0,1,659,325Z" transform="translate(26.5 18)"/><path class="cls-20" d="M659,321v13a4.6457,4.6457,0,1,0,9,0V321Z" transform="translate(26.5 18)"/><path class="cls-19" d="M659,334V321h-5v13a6.0176,6.0176,0,0,0,6,6h2a6.8037,6.8037,0,0,0,1.5-.2A6.0021,6.0021,0,0,1,659,334Z" transform="translate(26.5 18)"/><path class="cls-15" d="M663.5,308h-5a1.5,1.5,0,0,0,0,3h5a1.5,1.5,0,0,0,0-3Z" transform="translate(26.5 18)"/><path class="cls-15" d="M662,306h-2a.9448.9448,0,0,0-1,1v1a.9448.9448,0,0,0,1,1h2a.9448.9448,0,0,0,1-1v-1A.9448.9448,0,0,0,662,306Z" transform="translate(26.5 18)"/><path class="cls-16" d="M654,324h14v3H654Zm0,6h14v3H654Z" transform="translate(26.5 18)"/><path class="cls-15" d="M654,324h5v3h-5Zm0,6h5v3h-5Z" transform="translate(26.5 18)"/><path class="cls-19" d="M659,299h3V286a.9448.9448,0,0,0-1-1h-1a.9448.9448,0,0,0-1,1Z" transform="translate(26.5 18)"/><path class="cls-15" d="M660.6,303h-.2a1.3671,1.3671,0,0,1-1.4-1.4V299h3v2.6A1.3671,1.3671,0,0,1,660.6,303Z" transform="translate(26.5 18)"/><path class="cls-19" d="M651,299h3V286a.9448.9448,0,0,0-1-1h-1a.9448.9448,0,0,0-1,1Z" transform="translate(26.5 18)"/><path class="cls-15" d="M652.6,303h-.2a1.3671,1.3671,0,0,1-1.4-1.4V299h3v2.6A1.3671,1.3671,0,0,1,652.6,303Z" transform="translate(26.5 18)"/><path class="cls-8" d="M658,343H631a3.779,3.779,0,0,0-3.1,2H658Z" transform="translate(26.5 18)"/><path class="cls-10" d="M627.9,345a6.7556,6.7556,0,0,0-.9,3.5c0,3,1.8,5.5,4,5.5h27v-9Z" transform="translate(26.5 18)"/><ellipse class="cls-9" cx="684.5" cy="366.5" rx="4" ry="5.5"/><ellipse class="cls-7" cx="684.5" cy="366.5" rx="2" ry="3.5"/><path class="cls-15" d="M651,343h-3a7.7888,7.7888,0,0,0-1.9,5.5A8.2725,8.2725,0,0,0,648,354h3a8.9105,8.9105,0,0,1,0-11Zm-13,0h-3a7.7888,7.7888,0,0,0-1.9,5.5A8.2725,8.2725,0,0,0,635,354h3a8.9105,8.9105,0,0,1,0-11Zm0,11h3v6h-3Z" transform="translate(26.5 18)"/><path class="cls-16" d="M651,354h3v6h-3Z" transform="translate(26.5 18)"/><path class="cls-15" d="M727,443h-5V227a2.0059,2.0059,0,0,1,2-2h1a2.0059,2.0059,0,0,1,2,2Z" transform="translate(26.5 18)"/><path class="cls-18" d="M727,294v3a.9448.9448,0,0,1-1,1h-3a.9448.9448,0,0,1-1-1v-2.7a1.8824,1.8824,0,0,0-1.8-.1,1.9612,1.9612,0,0,0-1.2,1.9v2.4a2.4757,2.4757,0,0,1-2.5,2.5H711v9h15a6.0176,6.0176,0,0,0,6-6v-5A4.9514,4.9514,0,0,0,727,294Z" transform="translate(26.5 18)"/><path class="cls-22" d="M689,432h9v11h-9Z" transform="translate(26.5 18)"/><path class="cls-13" d="M715,443H698V432h5l9.8,4.9a3.9833,3.9833,0,0,1,2.2,3.6Z" transform="translate(26.5 18)"/><path class="cls-22" d="M648,447h11v11H648Z" transform="translate(26.5 18)"/><path class="cls-13" d="M675,458H659V447h4l9.8,4.9a3.9833,3.9833,0,0,1,2.2,3.6Z" transform="translate(26.5 18)"/><path class="cls-8" d="M628.3,443.2c.7.2,1.2.3,1.8.5A22.5955,22.5955,0,0,1,643.4,455a26.25,26.25,0,0,0-12.5-19.1l.4-.9a19.475,19.475,0,0,1,2,.9A28.0041,28.0041,0,0,1,647,451.7a18.9012,18.9012,0,0,1,1,6.3h-8.5a9.1229,9.1229,0,0,0-1.3-4.8,20.8571,20.8571,0,0,0-10.3-9.1l.4-.9Z" transform="translate(26.5 18)"/><path class="cls-9" d="M692.9,465.1,715,443H681.4c-2.9,0-6.9.7-8.8,2.8l-6.6,7.6c-2,2-6,4.6-8.8,4.6H648l-7.9,7.9a2.9706,2.9706,0,0,0,2.1,5.1h36.5a20.0615,20.0615,0,0,0,14.2-5.9Z" transform="translate(26.5 18)"/><path class="cls-5" d="M755.5,303c-1.9,0-3.8-.1-5.6-.2a.8963.8963,0,0,1-.9-.9.9448.9448,0,0,1,1-1c1.8.1,3.6.2,5.5.2a159.1371,159.1371,0,0,0,20.7-1.8,124.653,124.653,0,0,1,17.1-1.3c1.6,0,3.3,0,4.8.1a1.0021,1.0021,0,0,1,1,1,.9078.9078,0,0,1-.3.7,1.08,1.08,0,0,1-.7.3c-1.6-.1-3.2-.1-4.8-.1a126.0019,126.0019,0,0,0-17.2,1.3,178.7745,178.7745,0,0,1-20.6,1.7Zm-9.2-78a49.3286,49.3286,0,0,1-5.5-.3.9866.9866,0,0,1-.9-1,.975.975,0,0,1,1-1.1,47.8449,47.8449,0,0,0,5.4.2,128.73,128.73,0,0,0,18.5-1.8h.1a1.0953,1.0953,0,0,1,1,1.1,1.2064,1.2064,0,0,1-.8,1.1C758.5,224.1,752.5,225,746.3,225Zm2.5,90a41.5368,41.5368,0,0,1-4.9-.3.9866.9866,0,0,1-.9-1,.9751.9751,0,0,1,1-1.1,42.6753,42.6753,0,0,0,4.9.2,61.8306,61.8306,0,0,0,11.2-1.2q1.8-.3,3.9-.6h.1a1.0953,1.0953,0,0,1,1,1.1,1.2062,1.2062,0,0,1-.8,1.1,36.5231,36.5231,0,0,0-4,.7,78.289,78.289,0,0,1-11.5,1.1Zm49.4-74.7c-6.3,0-12.2-2-14.5-2.7a1.0242,1.0242,0,0,1-.6-.5,1.9513,1.9513,0,0,1-.1-.8.96.96,0,0,1,.9-.7.3674.3674,0,0,1,.3.1,46.4745,46.4745,0,0,0,13.8,2.6,24.658,24.658,0,0,0,5.6-.6h.2a.9737.9737,0,0,1,1,.8,1.1289,1.1289,0,0,1-.1.8,1.4706,1.4706,0,0,1-.6.5,35.1208,35.1208,0,0,1-5.9.5Z" transform="translate(26.5 18)"/><path class="cls-10" d="M1038.7,550.6c-22.6,0-42.5,11.3-52.9,30.7h105.9C1081.1,561.9,1061.3,550.6,1038.7,550.6Z" transform="translate(26.5 18)"/><path class="cls-10" d="M1252.9,534.8c-.8,0-1.4-.5-2.2-.5a59.1205,59.1205,0,0,0-96.4-1.6,38.4019,38.4019,0,0,0-13.8-2.6,37.5549,37.5549,0,0,0-14.8,2.9,39.6055,39.6055,0,0,0-66.1,29.6v7.7h237.1c-3.8-21.5-22-35.5-43.8-35.5Zm464.6,22.8c-.8,0-1.4-.5-2.2-.5a59.3973,59.3973,0,0,0-48.6-25.7,58.8013,58.8013,0,0,0-47.8,24.2,38.4044,38.4044,0,0,0-13.8-2.6,37.5557,37.5557,0,0,0-14.8,2.9,39.6055,39.6055,0,0,0-66.1,29.6v7.7h237.1c-3.8-21.6-22-35.6-43.8-35.6Z" transform="translate(26.5 18)"/><path class="cls-10" d="M-2.3,562.9h.5c6.9-9.6,19.3-15.6,33.5-15.6,14.9,0,27.8,6,34.5,17.5a52.049,52.049,0,0,1,36.4-3.5c7.5-19.3,27.2-32.8,50.2-32.8a53.7012,53.7012,0,0,1,50.8,35.7c5.5-2.7,11.7-2.7,18.3-2.7,15.6,0,29.2,4.3,35.4,19h-132v10.3h159c-5.5-29.5-30.3-48.7-60.1-48.7-1,0-1.9-.7-3-.7a80.9429,80.9429,0,0,0-132-2,52.7886,52.7886,0,0,0-18.9-3.5,50.2366,50.2366,0,0,0-20.2,4A53.6248,53.6248,0,0,0-14.1,534v31A33.3276,33.3276,0,0,1-2.3,562.9Z" transform="translate(26.5 18)"/><path class="cls-8" d="M125.3,580.6H257.2c-6.2-14.8-19.8-19-35.4-19-6.6,0-12.8,0-18.3,2.7a53.6058,53.6058,0,0,0-50.8-35.7c-23,0-42.7,13.4-50.2,32.8a52.6033,52.6033,0,0,0-36.4,3.5c-6.7-11.5-19.6-17.5-34.5-17.5C17.4,547.4,5,553.5-1.9,563h-.5a34.6371,34.6371,0,0,0-11.7,2v26H125.2V580.6h.1Z" transform="translate(26.5 18)"/><path class="cls-10" d="M1320.2,535.3c-22.6,0-42.5,11.3-52.9,30.7h105.9C1362.7,546.6,1342.8,535.3,1320.2,535.3ZM1024.7,597a60,60,0,0,0-120,0Z" transform="translate(26.5 18)"/><path class="cls-8" d="M917.2,562a63.5249,63.5249,0,0,0-58.6,39H975.8a63.5247,63.5247,0,0,0-58.6-39Zm148.7,8.9A39.4479,39.4479,0,0,0,998.7,595h78.5a39.0848,39.0848,0,0,0-11.3-24.1Z" transform="translate(26.5 18)"/><path class="cls-8" d="M801.4,587.1a17.3056,17.3056,0,0,1,12.5,5.2,41.6882,41.6882,0,0,1,18.4-4.2c8.6,0,68.5,2.6,75.2,7a17.5394,17.5394,0,0,1,14.8-8,18.2106,18.2106,0,0,1,10.1,3.1,42.9723,42.9723,0,0,1,83.6,13H783.7A17.7246,17.7246,0,0,1,801.4,587.1ZM391.6,523.8a19.6986,19.6986,0,0,1,14.2,2.1L401.4,515a19.4931,19.4931,0,0,1,10.1,9.1c2.2-4,5.6-6.6,10.1-8.4l-7,17.7h-9.9l-13.1-9.6Z" transform="translate(26.5 18)"/><path class="cls-10" d="M757.5,571.4A16.8208,16.8208,0,0,0,773,561.1a16.6849,16.6849,0,1,0-15.5,10.3Zm251.3-32.6a19.6988,19.6988,0,0,0-14.2,2.1l4.5-10.9a19.4915,19.4915,0,0,0-10.1,9.1c-2.2-4-5.6-6.6-10.1-8.4l7,17.7h9.9l13-9.6ZM435.7,524a60.0475,60.0475,0,0,0-60,60h120A60.0475,60.0475,0,0,0,435.7,524Z" transform="translate(26.5 18)"/><path class="cls-8" d="M441.7,537a60.0475,60.0475,0,0,0-60,60h120A60.0475,60.0475,0,0,0,441.7,537Z" transform="translate(26.5 18)"/><path class="cls-15" d="M1355.7,558.2a18.4815,18.4815,0,0,0-13.4,1.9l4.1-10.2a18.9863,18.9863,0,0,0-9.5,8.4c-1.9-3.8-5.3-6-9.5-7.8l6.6,16.6h9.3Z" transform="translate(26.5 18)"/><path class="cls-10" d="M1560.6,548.7c-5.5,0-10.7,0-15.2,2.4-5.8-17.8-22.4-31.3-42.1-31.3a44.3987,44.3987,0,0,0-38.8,22.4,25.9565,25.9565,0,0,0-16.9-6.6,25.575,25.575,0,0,0-20.4,10.2c-5.9-6.5-14.7-8.6-24.5-8.6-17.1,0-31.2,8.2-32.4,27.6h219.8c-5.2-11.7-16.4-16.1-29.5-16.1ZM1698.3,566l59.4,15,160.4-15c-1.3-19.4-15.3-27.6-32.4-27.6-9.8,0-18.6,2.2-24.5,8.6a24.8829,24.8829,0,0,0-20.4-10.2,25.558,25.558,0,0,0-16.9,6.6,44.1948,44.1948,0,0,0-38.8-22.4c-19.7,0-36.3,13.5-42.2,31.3-4.5-2.4-9.7-2.4-15.2-2.4-13-.1-24.3,4.3-29.4,16.1Z" transform="translate(26.5 18)"/><path class="cls-15" d="M780.5,552.2l4.5-11c-4.6,1.9-9.5,6.9-11.1,11.2l-2,6.5h9.7l13.4-9.1a20.4977,20.4977,0,0,0-14.5,2.4Z" transform="translate(26.5 18)"/><path class="cls-8" d="M1526.5,614.9h118.6l12.6-22.9,84.1-8.3c-4.5-10.8-14.5-13.8-25.9-13.8-4.9,0-9.4,0-13.4,1.9a39.2765,39.2765,0,0,0-37.1-26.1c-16.8,0-31.2,9.8-36.7,23.9a37.6485,37.6485,0,0,0-26.6,2.6c-4.8-8.4-14.2-12.8-25.1-12.8-10.3,0-19.4,4.4-24.5,11.4h-.4a25.7788,25.7788,0,0,0-25.7,26.1v18h.1Z" transform="translate(26.5 18)"/><path class="cls-15" d="M1107.6,585.4a17.1374,17.1374,0,0,1,10.1-14,.9592.9592,0,0,0,.2-.9c-.1-.2-.2-.5-.4-.4a5.7682,5.7682,0,0,0-1.4.3A16.9177,16.9177,0,0,0,1106,579a20.0778,20.0778,0,0,1,9.5-14.7c.2-.1.2-.3.1-.5a.3994.3994,0,0,0-.4-.2c-.5.2-1.1,1.3-1.5,1.5-7.2,3.7-11.8,10.6-11.5,20.3h5.4Z" transform="translate(26.5 18)"/><path class="cls-10" d="M658.2,544.3c-.8,0-1.4-.1-2.2-.1a59.1739,59.1739,0,0,0-96.4-1.1,38.7245,38.7245,0,0,0-28.6.3A39.83,39.83,0,0,0,464.6,573v6H702c-4-20.5-22.1-34.7-43.8-34.7Z" transform="translate(26.5 18)"/><path class="cls-8" d="M465.7,603.8H585.4V570.4h96.9c-4.5-7.6-14.5-12.4-25.9-12.4a29.7824,29.7824,0,0,0-13.4,2.7c-5.1-14.9-19.7-25.8-37.1-25.8-16.8,0-31.2,10-36.7,24.2a38.06,38.06,0,0,0-9.5-1.2,38.9289,38.9289,0,0,0-17.1,3.9c-4.8-8.4-14.2-12.7-25.1-12.7-10.3,0-19.4,4.4-24.5,11.4h-1a26.29,26.29,0,0,0-26.3,26.1v17.2Z" transform="translate(26.5 18)"/><path class="cls-15" d="M638,558.7a18.45,18.45,0,0,1,14.3,2.1L647.9,549a20.0726,20.0726,0,0,1,10,9.7c2.1-4.3,5.6-6.9,10.1-8.9L661,569h-9.9Z" transform="translate(26.5 18)"/><path class="cls-10" d="M633.5,489.1a12.6831,12.6831,0,0,0-9.5,1.4l2.9-7.9a13.8705,13.8705,0,0,0-6.7,6.4,12.5748,12.5748,0,0,0-6.7-5.9l3.9,10.8a3.008,3.008,0,0,0,2.8,2h3.4a3.2929,3.2929,0,0,0,1.9-.6l8-6.2Z" transform="translate(26.5 18)"/><path class="cls-8" d="M1516.2,593.7a26,26,0,1,0-26-26A25.9482,25.9482,0,0,0,1516.2,593.7Z" transform="translate(26.5 18)"/><path class="cls-8" d="M1499.4,582.7a26,26,0,1,0-26-26A25.9482,25.9482,0,0,0,1499.4,582.7Z" transform="translate(26.5 18)"/><path class="cls-13" d="M1426.7,600.3a26,26,0,1,0-26-26A25.9482,25.9482,0,0,0,1426.7,600.3Z" transform="translate(26.5 18)"/><path class="cls-15" d="M1863,536.9l13.4,9.1h9.7l-1.9-6.5c-1.6-4.3-6.5-9.3-11.1-11.2l4.5,11a20.6789,20.6789,0,0,0-14.6-2.4ZM197,545.1a19.2474,19.2474,0,0,1,14.3,2l-4.4-11.3a20.3066,20.3066,0,0,1,10.1,9.3c2.2-4.1,5.6-6.6,10.1-8.5l-7,18.4h-9.9L197,545.1Z" transform="translate(26.5 18)"/><circle class="cls-23" cx="957.5" cy="211" r="40"/><circle class="cls-24" cx="957.5" cy="211" r="33"/><path class="cls-5" d="M967,230.8l-13.5-.9a13.3647,13.3647,0,0,0-11.4-6.6,15.7733,15.7733,0,0,0-4.2.6,23.0323,23.0323,0,0,0-11.8-11.8,22.1718,22.1718,0,0,0-9.3-2,23.3269,23.3269,0,0,0-16.7,7.1,14.21,14.21,0,0,0-2.5-2.4,14.9887,14.9887,0,0,0-23.2,7.2,17.8168,17.8168,0,0,0-10.2-3.1,18.2749,18.2749,0,0,0-16.8,11l-13.2.9a1.1028,1.1028,0,1,0,.1,2.2H967A1.1017,1.1017,0,1,0,967,230.8Z" transform="translate(26.5 18)"/><path class="cls-5" d="M324.4,45.2,346,43.6a27.54,27.54,0,0,1,26.4-19.7,27.0568,27.0568,0,0,1,20.8,9.6,16.487,16.487,0,0,1,19.1.3A35.93,35.93,0,0,1,480.4,32a25.03,25.03,0,0,1,8.8-1.6,19.7922,19.7922,0,0,1,18.6,13.3l17.8,1.4c4.3.2,4.2,3.8-.3,3.8H324.7c-4.4.1-4.6-3.5-.3-3.7Zm1487.3,60-21.6-1.6a27.54,27.54,0,0,0-26.4-19.7,27.0569,27.0569,0,0,0-20.8,9.6,16.4872,16.4872,0,0,0-19.1.3,35.93,35.93,0,0,0-68.1-1.8,25.03,25.03,0,0,0-8.8-1.6,19.7924,19.7924,0,0,0-18.6,13.3l-17.8,1.4c-4.3.2-4.2,3.8.3,3.8h200.7c4.3.1,4.5-3.5.2-3.7ZM657.8,165.9l16.6-.9a17.3693,17.3693,0,0,1,16-10.6,17.1313,17.1313,0,0,1,9.7,3,17.3747,17.3747,0,0,1,34-4.1,28.419,28.419,0,0,1,6.6-.7,28.9421,28.9421,0,0,1,23.8,12.5l15.2.8c2.4.1,2.3,2.5-.2,3.1H657.9c-2.4-.6-2.5-3-.1-3.1Z" transform="translate(26.5 18)"/><path class="cls-15" d="M1407.1,101.2a12.5427,12.5427,0,0,1,8.4,3.6,8.0117,8.0117,0,0,1,2.4,3.4h-3.8Z" transform="translate(26.5 18)"/><path class="cls-15" d="M1416,105.4h10.1s-2.3,3.4-4.2,3.4c1.7,2,2.1,4.2,2.2,6.7l-6.6-6.7h-8.9A10.6781,10.6781,0,0,1,1416,105.4Zm33.3,15.8h9l-1.8,1.8a2.3332,2.3332,0,0,1-2.4.6l.1.1a11.0659,11.0659,0,0,1,3.2,7.5l-6.6-6.7h-8.9a10.6138,10.6138,0,0,1,7.4-3.3Z" transform="translate(26.5 18)"/><path class="cls-15" d="M1451.5,124v.2l-7,7.1a11.9772,11.9772,0,0,1,2.6-7.2h4.4Zm7.8-17h9l-1.8-1.6a2.3332,2.3332,0,0,0-2.4-.6l.1-.1a11.0659,11.0659,0,0,0,3.2-7.5l-6.6,6.8h-8.9a9.95,9.95,0,0,0,7.4,3Z" transform="translate(26.5 18)"/><path class="cls-15" d="M1461.5,104.4v-.2l-7-7.1a11.9772,11.9772,0,0,0,2.6,7.2h4.4Z" transform="translate(26.5 18)"/><path class="cls-5" d="M50.9,124.6l22.9-1.5a28.0088,28.0088,0,0,1,46.5-6.3,16.9455,16.9455,0,0,1,18.5-.3,36.7727,36.7727,0,0,1,71.5-1.6,31.044,31.044,0,0,1,1.1,8.1l22.2,1.6a2.2028,2.2028,0,1,1-.2,4.4H51a2.2006,2.2006,0,1,1-.1-4.4Zm1066.7-7.2,18.7-1a20.9639,20.9639,0,0,1,20.8-18.3,18.9016,18.9016,0,0,1,6.3,1,19.8906,19.8906,0,0,1,18.7-13,20.5907,20.5907,0,0,1,9.5,2.4,26.2889,26.2889,0,0,1,19.1-8.4,25.939,25.939,0,0,1,25.9,24.7,26.2455,26.2455,0,0,1,14.6-4.5,25.8256,25.8256,0,0,1,23.9,15.8l24.9,1.3c3.6.1,3.5,3.8-.1,4.6h-182C1114.2,121.2,1113.9,117.5,1117.6,117.4Z" transform="translate(26.5 18)"/><path class="cls-6" d="M1244.6,459H1226v7.1l2.9,2.9H1249l2.8-2.8Z" transform="translate(26.5 18)"/><path class="cls-10" d="M1202.6,459l-5.6,4v3.2a5.5978,5.5978,0,0,0,1.8,4.2l2.7,2.7a6.1742,6.1742,0,0,0,4.2,1.8h14.7a5.5978,5.5978,0,0,1,4.2,1.8l2.5,2.5a6.1738,6.1738,0,0,0,4.2,1.8h21.2a5.978,5.978,0,0,0,4.3-1.8l2.4-2.4a5.8946,5.8946,0,0,0,1.7-4.2v-2a5.8946,5.8946,0,0,0-1.7-4.2l-7.3-7.3h-49.3V459Z" transform="translate(26.5 18)"/><path class="cls-6" d="M1253,455.6l-8-8V434h-13.8l-14,16h-5.9l-13.8,13.5,2.5,2.5h53Z" transform="translate(26.5 18)"/><path class="cls-7" d="M1217.2,454H1212l-12,12-3-3,15-15h5.2l14-14H1245v6h-13.8Zm27.8-7.6,8,7.9v6.5l-8-8Z" transform="translate(26.5 18)"/><path class="cls-25" d="M1241,457v-6h-5l-15,15h29Z" transform="translate(26.5 18)"/><path class="cls-7" d="M707,480h11v-4h6.9l6.1,4v10H697Z" transform="translate(26.5 18)"/><path class="cls-5" d="M724.6,476H718v-3h10l6,6v6l5,5h-8v-8.1Z" transform="translate(26.5 18)"/><path class="cls-6" d="M711,490h14l-6-6h-8Z" transform="translate(26.5 18)"/><path class="cls-9" d="M696,491l1-1h42l-4.5,4.5a8.3927,8.3927,0,0,1-6,2.5h-1.2a7.787,7.787,0,0,0-5.7,2.4,5.5074,5.5074,0,0,1-4,1.6H709a4.0118,4.0118,0,0,1-4-4h-6.5A3.53,3.53,0,0,1,696,491Z" transform="translate(26.5 18)"/><path class="cls-7" d="M746,403l3-3h15l7,7h-8l-4-4Z" transform="translate(26.5 18)"/><path class="cls-6" d="M746,403h13l4,4H746Z" transform="translate(26.5 18)"/><path class="cls-9" d="M744.5,410h18.9a7.9463,7.9463,0,0,0,4.2-1.1l3.2-1.9h-25l-2.4,1.5C742.5,409,743.2,410,744.5,410Z" transform="translate(26.5 18)"/><path class="cls-7" d="M1513,489l-3-3h-15l-7,7h8l4-4Z" transform="translate(26.5 18)"/><path class="cls-6" d="M1513,489h-13l-4,4h17Z" transform="translate(26.5 18)"/><path class="cls-10" d="M1514.5,496h-18.9a7.9463,7.9463,0,0,1-4.2-1.1l-3.2-1.9h25l2.4,1.5c.9.5.2,1.5-1.1,1.5Z" transform="translate(26.5 18)"/><path class="cls-7" d="M1058,431l-3-3h-15l-7,7h8l4-4Z" transform="translate(26.5 18)"/><path class="cls-6" d="M1058,431h-13l-4,4h17Z" transform="translate(26.5 18)"/><path class="cls-9" d="M1059.5,438h-18.9a7.9463,7.9463,0,0,1-4.2-1.1l-3.2-1.9h25l2.4,1.5c.9.5.2,1.5-1.1,1.5Z" transform="translate(26.5 18)"/><path class="cls-7" d="M215,415l3-3h15l7,7h-8l-4-4Z" transform="translate(26.5 18)"/><path class="cls-6" d="M215,415h13l4,4H215Z" transform="translate(26.5 18)"/><path class="cls-10" d="M213.5,422h18.9a7.9463,7.9463,0,0,0,4.2-1.1l3.2-1.9h-25l-2.4,1.5c-.9.5-.2,1.5,1.1,1.5Z" transform="translate(26.5 18)"/><path class="cls-10" d="M1665.2,432l9.3,9.3a6.8544,6.8544,0,0,1-4.9,11.7h-42.4a12.1151,12.1151,0,0,1-8.5-3.5l-1.9-1.9a11.869,11.869,0,0,0-8.5-3.5h-8.2a6.9656,6.9656,0,0,1-4.9-2l-7.2-7.2V432Z" transform="translate(26.5 18)"/><path class="cls-7" d="M1665,432.7,1650.6,418h-30.7L1607,431v3h-19v-9h10.2l11.1-11h47.2l18.5,18.7V442h-10Z" transform="translate(26.5 18)"/><path class="cls-6" d="M1647,433v-8h-9.4l-11,11h-8a11.7937,11.7937,0,0,0-7.7-2h-3.8v-3.3l12.6-12.7h31l14.4,14.7V442h-8v-9Z" transform="translate(26.5 18)"/><path class="cls-25" d="M1618.6,436h5.6l11-11H1647v8h10v9h-26.1a14.657,14.657,0,0,1-10.1-4.2,12.3864,12.3864,0,0,0-2.2-1.8Z" transform="translate(26.5 18)"/><path class="cls-5" d="M1610,414l-11,11h-10.5l17.4-17h45.4l3.8,3.9,2,2.1Zm0,0-11,11Z" transform="translate(26.5 18)"/><path class="cls-10" d="M1903.2,449h46.5a2.9705,2.9705,0,0,0,2.1-5.1l-4.9-4.9h-118l6.5,6.1a15.0816,15.0816,0,0,0,10.2,3.9h5a11.306,11.306,0,0,1,7.8,3.1,15.0816,15.0816,0,0,0,10.2,3.9h19.5a9.7473,9.7473,0,0,0,7.5-3.5,10.2713,10.2713,0,0,1,7.6-3.5Z" transform="translate(26.5 18)"/><path class="cls-7" d="M1921.8,403h-25.2l-18-18H1851l-22,22v32h118V428.2Z" transform="translate(26.5 18)"/><path class="cls-5" d="M1903.7,411h25.2l-7.2-8h-25.3Zm-66.7-4,16-16h31.3l-5.4-6H1848l-19,19v35h8Z" transform="translate(26.5 18)"/><path class="cls-6" d="M1924.2,423H1889v-8.1l-9.9-9.9H1860l-15,15v19h90v-5.4Z" transform="translate(26.5 18)"/><path class="cls-7" d="M1901,482l8,8h24l-4-4h-15l-10-10h-22l-8,8h-15l-6,6h26l8-8Z" transform="translate(26.5 18)"/><path class="cls-6" d="M1901,482h-14l-8,8h30Z" transform="translate(26.5 18)"/><path class="cls-5" d="M1850,490l8.5-9H1872l7-7h23l4,4h-25l-6.9,7.1H1861l-5,4.9Zm79-4-3-3h-15l3,3Z" transform="translate(26.5 18)"/><path class="cls-10" d="M1933,490h-83.1l2.1,2.1a13.561,13.561,0,0,0,9.5,3.9h27.3a2.878,2.878,0,0,1,2.1.9l3.3,3.3a3.1181,3.1181,0,0,0,2.1.9h18.9a2.9021,2.9021,0,0,0,2.9-2.9v-.1a2.9021,2.9021,0,0,1,2.9-2.9h10a3.1154,3.1154,0,0,0,2-5.2Z" transform="translate(26.5 18)"/><path class="cls-7" d="M158.7,466l-12,12h-36l6-6h22.5l15-15h33l12,12h22.5l9,9h-39l-12-12Z" transform="translate(26.5 18)"/><path class="cls-6" d="M158.7,466h21l12,12h-45Z" transform="translate(26.5 18)"/><path class="cls-5" d="M235,478l-14-14H201l-10-10H157.4l-6.4,6h37.5l10.8,11h19.6l7.1,7Zm-118.3-6,4.5-5h23.3l-5.3,5Z" transform="translate(26.5 18)"/><path class="cls-10" d="M111.2,478H235.4l-3.1,3.3a16.766,16.766,0,0,1-3.8,2.6,35.77,35.77,0,0,1-17,4H173.6a.9078.9078,0,0,0-.7.3l-5.3,5.3a4.4458,4.4458,0,0,1-3.3,1.3H135.1a1.11,1.11,0,0,1-1.1-1.1v-3.6a4.4391,4.4391,0,0,0-4.4-4.4h-17c-3.9.3-4.2-4.9-1.4-7.7Z" transform="translate(26.5 18)"/><path class="cls-8" d="M1882.9,566.8c-1-14.5-11.5-20.7-24.3-20.7-7.3,0-13.9,1.6-18.3,6.5a18.9888,18.9888,0,0,0-28-2.8,33.2692,33.2692,0,0,0-29.1-16.8c-14.7,0-27,9.9-31.5,23.1a1.7018,1.7018,0,0,0-.7.1,27.03,27.03,0,0,0,2.9,53.9Z" transform="translate(26.5 18)"/><path class="cls-10" d="M325.5,487H313l11.7-6.2c.4-.3.2-.8-.4-.8h-7.9l-13.2,7H290.7a7.6944,7.6944,0,0,0-4.1,1.1L249,517.5v1.7l77.3-31.3c1-.5.8-.9-.8-.9Z" transform="translate(26.5 18)"/><path class="cls-13" d="M325,439v7h-5v35.1c-2.8,0-5-.2-5-1.4V439Z" transform="translate(26.5 18)"/><path class="cls-12" d="M325,444v35.6c0,1.2-2.2,1.4-5,1.4V444Z" transform="translate(26.5 18)"/><path class="cls-8" d="M340.1,412l-5.4-31h3.4l-16.5-82.3L303.5,381h2.8l-6.2,31h6.5l-5.9,30h38.8l-5.4-30Z" transform="translate(26.5 18)"/><path class="cls-10" d="M321.6,298.5,332.3,381h7.3ZM336,381h-8l3.2,31h-5.5l5.6,30h10.4l-5.6-30h5.8Z" transform="translate(26.5 18)"/><path class="cls-10" d="M1347.5,457H1360l-11.7-6.2c-.4-.3-.2-.8.4-.8h7.9l13.2,7h12.5a7.6942,7.6942,0,0,1,4.1,1.1l37.6,29.4v1.7l-77.3-31.3c-1-.5-.8-.9.8-.9Z" transform="translate(26.5 18)"/><path class="cls-13" d="M1347,409v7h5v35.1c2.8,0,5-.2,5-1.4V409Z" transform="translate(26.5 18)"/><path class="cls-12" d="M1347,414v35.6c0,1.2,2.2,1.4,5,1.4V414Z" transform="translate(26.5 18)"/><path class="cls-8" d="M1332.3,382l5.5-31h-3.5l16.5-82.3,18.1,82.3h-2.8l6.3,31h-6.6l5.9,30h-38.8l5.5-30Z" transform="translate(26.5 18)"/><path class="cls-10" d="M1350.8,268.5,1340.1,351h-7.3ZM1336.4,351h8l-3.2,31h5.5l-5.5,30h-10.4l5.5-30h-5.8Z" transform="translate(26.5 18)"/><path class="cls-10" d="M175,416.5H162.5l11.7-6.2c.4-.3.2-.8-.4-.8H166l-13.2,7H140.3a7.6944,7.6944,0,0,0-4.1,1.1L98.5,447v1.7l77.3-31.3c1-.5.8-.9-.8-.9Z" transform="translate(26.5 18)"/><path class="cls-12" d="M175,364V352h-5v59.1c2.8,0,5-.2,5-1.4V370l6-2v-4Z" transform="translate(26.5 18)"/><path class="cls-13" d="M175,347v7h-5v57.1c-2.8,0-5-.2-5-1.4V347Z" transform="translate(26.5 18)"/><path class="cls-8" d="M190.1,318l-5.4-31h3.4l-16.5-80.3L153.5,289h2.8l-6.2,31h6.5l-5.9,30H181l2-2h6.5l-5.4-30Z" transform="translate(26.5 18)"/><path class="cls-10" d="M171.6,206.5,182.3,289h7.3ZM186,289h-8l3.2,31h-5.5l5.6,30h10.4l-5.6-30h5.8Z" transform="translate(26.5 18)"/><path class="cls-10" d="M1723.4,438h12.5l-11.7-6.2c-.4-.3-.2-.8.4-.8h7.9l13.2,7h12.5a7.6938,7.6938,0,0,1,4.1,1.1l32.6,27a1.0023,1.0023,0,0,1-1,1.7l-71.3-28.9c-1-.5-.7-.9.8-.9Z" transform="translate(26.5 18)"/><path class="cls-12" d="M1723,373v57.6c0,1.2,2.2,1.4,5,1.4V373Z" transform="translate(26.5 18)"/><path class="cls-13" d="M1723,368v7h5v57.1c2.8,0,5-.2,5-1.4V368Z" transform="translate(26.5 18)"/><path class="cls-8" d="M1708.3,339l5.5-31h-3.5l16.5-80.3,18.1,82.3h-2.8l6.3,31h-6.6l5.9,30h-30.3l-2-2h-6.5l5.5-30Z" transform="translate(26.5 18)"/><path class="cls-10" d="M1726.8,227.5,1716.1,310h-7.3ZM1712.4,310h8l-3.2,31h5.5l-5.5,30h-10.4l5.5-30h-5.8Z" transform="translate(26.5 18)"/><path class="cls-16" d="M1951,526a61.0723,61.0723,0,0,0-43.3,18H1804c-7.6,0-18.3,2.7-23.6,8.2l-19.3,18.7c-5.2,5.1-15.4,9.2-22.8,9.2H1556c-7.2,0-17.3-5-22.3-9.9l-13-13.2a30.7725,30.7725,0,0,0-8.4-6c-.9-.4-1.8-.8-2.7-1.1s-1.9-.6-2.8-.9a24.7475,24.7475,0,0,0-2.9-.6,34.0125,34.0125,0,0,0-4.5-.3H1394c-5.1,0-12.1-2.6-15.7-6.1l-4.1-3.2c-3.6-3.5-10.7-5.7-15.7-5.7h-15.7c-5.2,0-12.4,2.3-16.2,5.9l-9.1,9.4c-1,.8-1.9,1.7-3,2.6-3.9-3.3-10.4-6-15.2-6h-25.9c-4,0-9.3,2.3-13.1,5.2l-9.8-9.7c-4.2-4.6-12.7-8.5-18.8-8.5h-7.3a38.6407,38.6407,0,0,0-23.4-7.7,40.2916,40.2916,0,0,0-24,7.8c-1.1.1-2.3.2-3.5.4-.4.1-.9.2-1.3.3-.1,0-.2.1-.4.1-.4.1-.8.2-1.1.3a.3677.3677,0,0,0-.3.1c-.5.1-.9.3-1.4.4-.1,0-.2.1-.4.1a3.5813,3.5813,0,0,0-1.1.4.3491.3491,0,0,0-.2.1,94.7724,94.7724,0,0,1-32,5.8h-.9a93.7994,93.7994,0,0,1-15-1.1.6012.6012,0,0,1-.4-.1,4.102,4.102,0,0,0-1.1-.1c-.2,0-.4-.1-.7-.1-.4,0-.7-.1-1.1-.1a1.9523,1.9523,0,0,1-.7-.1c-.4,0-.8-.1-1.1-.1h-2.1c-10.4,0-19.5,4.5-24.6,11.7-3.4.7-6.9,1.4-10.3,1.8-2.3.3-4.6.6-6.9.8s-4.7.3-7,.4h-10.2c-6,0-14.5,2.3-18.7,6.6l-15.2,14.4c-4.1,4-12.2,7-18,7H874.6c-5.9,0-14-3.7-18.2-7.9l-5.5-5.5a41.0556,41.0556,0,0,0-12.9-8.6c-.6-.2-1.2-.5-1.8-.7a38.8258,38.8258,0,0,0-13.5-2.3H775.3a17.5375,17.5375,0,0,1-10.7-4.3l-2.8-2.5c-2.4-2.4-7.3-4.2-10.7-4.2H712.7c-3.9,0-9.3,2-12,4.8l-10.5,11.3c-4,4-11.7,7.9-17.3,7.9H629.1c-3.9,0-9.3-3.1-12-5.8l-3.1-2.9c-2.7-2.7-8.2-4.3-12-4.3H420.8c-8,0-15.1-2.4-20.8-8l-9-9c-4.3-4.3-12.5-8-18.7-8H318.6c-1,0-2,.1-3.1.2-1.3.2-2.7.5-3.9.8a32.4326,32.4326,0,0,0-8.4,4,37.6224,37.6224,0,0,0-3.1,2.5,38.334,38.334,0,0,0-2.8,2.9,7.0061,7.0061,0,0,0-.8,1l-.9.9a15.3714,15.3714,0,0,1-1.9,1.7,33.7351,33.7351,0,0,1-13.3,6.5,16.0478,16.0478,0,0,1-3,.3H194.3c-6,0-14.5,2.3-18.8,6.6L160.2,573c-4.1,4-12.3,7-18,7H67.3c-5.8,0-14-3.7-18.2-7.9l-5.4-5.4a41.9388,41.9388,0,0,0-4.5-3.9c-1.3-.9-2.6-1.8-4-2.6a10.93,10.93,0,0,0-1.5-.8,25.5454,25.5454,0,0,0-2.4-1.1c-.4-.2-.8-.3-1.2-.5-1-.4-2-.7-3-1-1.2-.4-2.5-.7-3.8-1a41.294,41.294,0,0,0-7.8-.8H-14v99H1986V537.1A60.4675,60.4675,0,0,0,1951,526Z" transform="translate(26.5 18)"/><path class="cls-15" d="M1337.9,493.3l8.1,46.3-2,.4-8.1-46.4Z" transform="translate(26.5 18)"/><path class="cls-15" d="M1338.2,501.2l-4.6-7.4a3.2224,3.2224,0,0,1,2.6-3.8,3.1252,3.1252,0,0,1,3.7,2.6Zm4.8-.3a4.1847,4.1847,0,0,1,1.8-1.1,3.1273,3.1273,0,0,1,3,1.1,3.37,3.37,0,0,1,.6,3.2,3.1906,3.1906,0,0,1-2.4,2.1l-7.6,1.3Z" transform="translate(26.5 18)"/><path class="cls-15" d="M1333.1,502.6a3.0832,3.0832,0,0,0-2.1-.4,3.2905,3.2905,0,0,0-2.7,3.8,3.2458,3.2458,0,0,0,3.7,2.7l7.6-1.3Zm.6,8.7a4.3449,4.3449,0,0,0-2.5-.5,3.9509,3.9509,0,0,0-3.2,4.5,3.9064,3.9064,0,0,0,4.4,3.2l8.9-1.6-7.6-5.6Z" transform="translate(26.5 18)"/><path class="cls-15" d="M1345.9,509.2a3.681,3.681,0,0,1,6.5,1.8,3.75,3.75,0,0,1-2.9,4.4l-8.9,1.6Zm-10.5,11.6a4.3448,4.3448,0,0,0-2.5-.5,3.948,3.948,0,0,0-3.4,2.4,3.9309,3.9309,0,0,0,4.6,5.3l8.9-1.6-7.6-5.6Z" transform="translate(26.5 18)"/><path class="cls-15" d="M1347.5,518.8a3.681,3.681,0,0,1,6.5,1.8,3.75,3.75,0,0,1-2.9,4.4l-8.9,1.6Z" transform="translate(26.5 18)"/><path class="cls-15" d="M342.1,482l10,57.6-2.4.4-10-57.5Z" transform="translate(26.5 18)"/><path class="cls-15" d="M342.6,491.9l-5.6-9.2a4.0009,4.0009,0,0,1,3.2-4.7,3.9526,3.9526,0,0,1,4.6,3.2Zm5.9-.4a4.254,4.254,0,0,1,2.3-1.4,3.9432,3.9432,0,0,1,3.7,1.3,4.11,4.11,0,0,1,.7,4,3.9639,3.9639,0,0,1-3,2.6l-9.3,1.7,5.6-8.2Z" transform="translate(26.5 18)"/><path class="cls-15" d="M336.3,493.6a3.4405,3.4405,0,0,0-2.6-.5,4.1463,4.1463,0,0,0-3.3,4.7,3.9214,3.9214,0,0,0,4.6,3.3l9.3-1.7-8-5.8Zm.7,10.8a4.7173,4.7173,0,0,0-3.1-.6,4.76,4.76,0,0,0,1.5,9.4l11-2-9.4-6.8Z" transform="translate(26.5 18)"/><path class="cls-15" d="M352,501.8a5.4512,5.4512,0,0,1,2.7-1.7,4.68,4.68,0,0,1,5.2,3.9,4.8914,4.8914,0,0,1-3.6,5.5l-11,2,6.7-9.7Zm-12.9,14.4a4.7173,4.7173,0,0,0-3.1-.6,4.6339,4.6339,0,0,0-4.1,3,4.9789,4.9789,0,0,0,.8,5.1,4.6626,4.6626,0,0,0,4.8,1.5l11-1.9-9.4-7.1Z" transform="translate(26.5 18)"/><path class="cls-15" d="M354,513.7a5.4512,5.4512,0,0,1,2.7-1.7,4.68,4.68,0,0,1,5.2,3.9,4.8914,4.8914,0,0,1-3.6,5.5l-11,1.9,6.7-9.6Z" transform="translate(26.5 18)"/><path class="cls-5" d="M1495.8,263a26.51,26.51,0,0,0-13.4-3.7c-1.2,0-2.3.1-3.4.2a1.0576,1.0576,0,0,0-.8,1.4,1.0072,1.0072,0,0,0,1.1.6c1.1-.1,2.1-.2,3.2-.2a23.962,23.962,0,0,1,12.3,3.4.9837.9837,0,0,0,1.4-.3,1.1073,1.1073,0,0,0-.4-1.4Z" transform="translate(26.5 18)"/><path class="cls-7" d="M1470.2,311a23.8673,23.8673,0,0,1-13.7-21.7,24.4966,24.4966,0,0,1,1.4-8,1.0954,1.0954,0,0,0,0-.8,1.0242,1.0242,0,0,0-.6-.5,1.04,1.04,0,0,0-1.3.6,25.7224,25.7224,0,0,0,.5,18.6,26.3429,26.3429,0,0,0,12.9,13.6.6014.6014,0,0,0,.4.1.9611.9611,0,0,0,.9-.6,1.0965,1.0965,0,0,0,0-.8,1.2056,1.2056,0,0,0-.5-.5Zm-11.6-33.9c.2.1.3.2.5.2a1.05,1.05,0,0,0,.9-.5,1.0125,1.0125,0,0,0-1.7-1.1A.9.9,0,0,0,1458.6,277.1Zm47.8,17.6a1.04,1.04,0,0,0-1.3.6,24.0854,24.0854,0,0,1-11.2,13.1.9225.9225,0,0,0-.4,1.3,1.05,1.05,0,0,0,.9.5.9013.9013,0,0,0,.5-.1,26.44,26.44,0,0,0,12.1-14.2.9712.9712,0,0,0-.6-1.2Zm-17,15.6a1.086,1.086,0,0,0-.7,1.2.9934.9934,0,0,0,1,.7h.3c.2-.1.5-.2.6-.5a1.9492,1.9492,0,0,0,.1-.8,1.0405,1.0405,0,0,0-1.3-.6Z" transform="translate(26.5 18)"/><path class="cls-5" d="M1465.3,318.9a35.4927,35.4927,0,0,1-11.8-10.3l-1.4,1.4a38.4151,38.4151,0,0,0,12.3,10.7.75.75,0,0,0,.5.1,1.05,1.05,0,0,0,.9-.5,1.47,1.47,0,0,0-.5-1.4Z" transform="translate(26.5 18)"/><path class="cls-7" d="M1514.1,269.6a2.3535,2.3535,0,0,0,.8-.2,1.2722,1.2722,0,0,0,.7-.9,1.3886,1.3886,0,0,0-.2-1.1,1.5766,1.5766,0,0,0-2.1-.5,1.5519,1.5519,0,0,0-.5,2.1,1.7821,1.7821,0,0,0,1.3.6Zm-41.9,51.7a1.5844,1.5844,0,0,0-1.9,1,1.3767,1.3767,0,0,0,.1,1.1,1.2722,1.2722,0,0,0,.9.7c.1,0,.3.1.4.1a1.3907,1.3907,0,0,0,1.4-1.1,1.2834,1.2834,0,0,0-.9-1.8Z" transform="translate(26.5 18)"/><path class="cls-5" d="M1518.3,279.6a.9477.9477,0,0,0-.5,1.1,36.8158,36.8158,0,0,1,.6,6.6,35.9558,35.9558,0,0,1-2.4,12.9.9923.9923,0,0,0,.5,1.3.9611.9611,0,0,0,1.3-.6,37.2462,37.2462,0,0,0,2.5-13.6,32.6019,32.6019,0,0,0-.7-7c.1-.7-.7-1-1.3-.7Z" transform="translate(26.5 18)"/><path class="cls-7" d="M1471.7,252.9a.9605.9605,0,0,1-.9-.7,1.0007,1.0007,0,0,1,.6-1.3,38.3328,38.3328,0,0,1,11.1-1.7,36.89,36.89,0,0,1,10.9,1.6,1.0239,1.0239,0,0,1,.6.5,1.063,1.063,0,0,1,.1.8.9934.9934,0,0,1-1,.7h-.3a35.6518,35.6518,0,0,0-10.3-1.5,33.685,33.685,0,0,0-10.4,1.6h-.4Z" transform="translate(26.5 18)"/><path class="cls-14" d="M1474,282l-5,55h34l-5-55Z" transform="translate(26.5 18)"/><path class="cls-13" d="M1506,282h-10l5,55h10Z" transform="translate(26.5 18)"/><path class="cls-16" d="M1490,266l-16,16h22Z" transform="translate(26.5 18)"/><path class="cls-15" d="M1490,266l16,16h-10Zm-11,55h11v16h-11Z" transform="translate(26.5 18)"/><path class="cls-16" d="M1477,321h3v16h-3Z" transform="translate(26.5 18)"/><path class="cls-13" d="M1483,288h7v3h-7Zm-7,19h7v3h-7Zm12-14h7v3h-7Zm-7,19h7v3h-7Z" transform="translate(26.5 18)"/><circle class="cls-15" cx="1507.5" cy="306" r="4"/><path class="cls-15" d="M1508.363,257.39l2.121,2.122L1482.2,287.796l-2.121-2.122Z" transform="translate(26.5 18)"/><path class="cls-5" d="M1510.444,259.517l7.071,7.07-22.627,22.628-7.071-7.071Z" transform="translate(26.5 18)"/><path class="cls-15" d="M1454.659,316.792l-2.122-2.121,28.285-28.285,2.12,2.122Z" transform="translate(26.5 18)"/><path class="cls-5" d="M1452.497,314.676l-7.07-7.071,22.627-22.628,7.07,7.071Z" transform="translate(26.5 18)"/><path class="cls-15" d="M1510.9,315.1l-28-28-2.1,2.1,5.6,5.7,22.4,22.3Z" transform="translate(26.5 18)"/><path class="cls-5" d="M1479.392,301.946l7.071-7.07,22.345,22.344-7.0711,7.07Z" transform="translate(26.5 18)"/><path class="cls-15" d="M1451.778,261.632l2.1209-2.121,28.2851,28.284-2.122,2.122Z" transform="translate(26.5 18)"/><path class="cls-5" d="M1453.94,259.506l7.07-7.071,22.628,22.627-7.071,7.071Z" transform="translate(26.5 18)"/><path class="cls-9" d="M830.9,415H825l4.1-1h-3.6l-4.5,1h-4.3a22.74,22.74,0,0,0-3.9,1.6l-10.9,6c-.4.2-.2.7.3.6l29.1-7.3c.3,0,.7-.9-.4-.9Z" transform="translate(26.5 18)"/><path class="cls-12" d="M825,393v20.9a3.7148,3.7148,0,0,0,2.3.6c1,0,1.8-.3,1.7-.6V393Z" transform="translate(26.5 18)"/><path class="cls-13" d="M829,392h-4v5h4Z" transform="translate(26.5 18)"/><path class="cls-12" d="M828,403.4l3-.9V401h-3Z" transform="translate(26.5 18)"/><path class="cls-10" d="M819.8,381l8.1-41.4,6.9,41.4h-2.2l2.2,14h-15l2.3-14Z" transform="translate(26.5 18)"/><path class="cls-9" d="M831.3,381l-3.6-41.4,7.6,41.4h-2.2l2.2,14h-4l-2.2-14Z" transform="translate(26.5 18)"/><path class="cls-9" d="M287.9,385H282l4.1-1h-3.6l-4.5,1h-4.3a22.74,22.74,0,0,0-3.9,1.6l-10.9,6c-.4.2-.2.7.3.6l29.1-7.3c.3,0,.7-.9-.4-.9Z" transform="translate(26.5 18)"/><path class="cls-12" d="M282,363v20.9a3.7148,3.7148,0,0,0,2.3.6c1,0,1.8-.3,1.7-.6V363Z" transform="translate(26.5 18)"/><path class="cls-13" d="M286,362h-4v5h4Z" transform="translate(26.5 18)"/><path class="cls-12" d="M285,373.4l3-.9V371h-3Z" transform="translate(26.5 18)"/><path class="cls-10" d="M276.8,351l8.1-41.4,6.9,41.4h-2.2l2.2,14h-15l2.3-14Z" transform="translate(26.5 18)"/><path class="cls-9" d="M288.3,351l-3.6-41.4,7.6,41.4h-2.2l2.2,14h-4l-2.2-14Z" transform="translate(26.5 18)"/><path class="cls-9" d="M1069,427h5.9l-4.1-1h3.6l4.5,1h4.3a22.7433,22.7433,0,0,1,3.9,1.6l10.9,6c.4.2.2.7-.3.6l-29.1-7.3c-.3,0-.6-.9.4-.9Z" transform="translate(26.5 18)"/><path class="cls-12" d="M1075,405v20.9a3.7148,3.7148,0,0,1-2.3.6c-1,0-1.8-.3-1.7-.6V405Z" transform="translate(26.5 18)"/><path class="cls-13" d="M1071,404h4v5h-4Z" transform="translate(26.5 18)"/><path class="cls-12" d="M1072,415.4l-3-.9V413h3Z" transform="translate(26.5 18)"/><path class="cls-10" d="M1080.1,393l-8-41.4-6.9,41.4h2.1l-2.1,14h14.9l-2.2-14Z" transform="translate(26.5 18)"/><path class="cls-9" d="M1068.7,393l3.5-41.4-7.5,41.4h2.1l-2.1,14h4l2.1-14Z" transform="translate(26.5 18)"/><path class="cls-9" d="M978.1,471h19.1c1.8.8,3.6,1.4,5.2,2.3l6.6,10.1c.5.2.2,1-.4.8l-31.1-11.8c-.4-.1-.9-1.2.6-1.4Z" transform="translate(26.5 18)"/><path class="cls-12" d="M986,442v28a4.5624,4.5624,0,0,1-2.9.8c-1.2,0-2.3-.4-2.1-.8V442Z" transform="translate(26.5 18)"/><path class="cls-13" d="M981,440h5v7h-5Z" transform="translate(26.5 18)"/><path class="cls-12" d="M982,455.2l-4-1.2v-2h4Z" transform="translate(26.5 18)"/><path class="cls-10" d="M993,425l-10.6-56.2L972.8,425h2.9l-2.9,19H993l-3-19Z" transform="translate(26.5 18)"/><path class="cls-9" d="M977.6,425l4.8-56.2L972.1,425h3l-3,19h5.5l2.9-19Z" transform="translate(26.5 18)"/><path class="cls-15" d="M1097.4,494.4l-1.7,1.7a75.3308,75.3308,0,0,1,22.2,52.9h2.6A77.5422,77.5422,0,0,0,1097.4,494.4Z" transform="translate(26.5 18)"/><path class="cls-14" d="M1104.1,494a13.1641,13.1641,0,0,0,4.9-6.5,15.0018,15.0018,0,0,0-8.4.7,13.2179,13.2179,0,0,0-3.5-7.2,13.2179,13.2179,0,0,0-3.5,7.2,15.0768,15.0768,0,0,0-8.4-.7,13.6172,13.6172,0,0,0,4.9,6.5,13.1641,13.1641,0,0,0-4.9,6.5,15.0018,15.0018,0,0,0,8.4-.7,13.2179,13.2179,0,0,0,3.5,7.2,13.2179,13.2179,0,0,0,3.5-7.2,15.0768,15.0768,0,0,0,8.4.7A13.1641,13.1641,0,0,0,1104.1,494Z" transform="translate(26.5 18)"/><circle class="cls-26" cx="1123.5" cy="512" r="4"/><path class="cls-15" d="M822,524.4l1.7,1.7A75.3308,75.3308,0,0,0,801.5,579h-2.6A77.123,77.123,0,0,1,822,524.4Z" transform="translate(26.5 18)"/><path class="cls-14" d="M815.3,524a13.1641,13.1641,0,0,1-4.9-6.5,15.0018,15.0018,0,0,1,8.4.7,13.2179,13.2179,0,0,1,3.5-7.2,13.2179,13.2179,0,0,1,3.5,7.2,15.0768,15.0768,0,0,1,8.4-.7,13.6172,13.6172,0,0,1-4.9,6.5,13.1641,13.1641,0,0,1,4.9,6.5,15.0018,15.0018,0,0,1-8.4-.7,13.2179,13.2179,0,0,1-3.5,7.2,13.2179,13.2179,0,0,1-3.5-7.2,15.0768,15.0768,0,0,1-8.4.7A13.1641,13.1641,0,0,1,815.3,524Z" transform="translate(26.5 18)"/><circle class="cls-26" cx="848.9" cy="542" r="4"/><path class="cls-15" d="M1062.3,553l9.7-9.7a10.9419,10.9419,0,0,0-12.5,6.1,10.7625,10.7625,0,0,0-9.9-6.4,11.5292,11.5292,0,0,0-2.6.3l9.7,9.7h5.6Z" transform="translate(26.5 18)"/><path class="cls-6" d="M386,466h16v-6h10.6l9.4,6v15H371.2Z" transform="translate(26.5 18)"/><path class="cls-7" d="M411.3,460H402v-5h15.5l9.5,10v8.5l8.3,7.5H422V468.9Z" transform="translate(26.5 18)"/><path class="cls-25" d="M392,481h21l-9-9H392Z" transform="translate(26.5 18)"/><path class="cls-10" d="M364.2,488.2l7-7.2h64.2l-7.2,7.2A13.0128,13.0128,0,0,1,419,492h-5a8.6245,8.6245,0,0,0-6.1,2.5l-1.7,1.7A6.1742,6.1742,0,0,1,402,498H386.3a4.2682,4.2682,0,0,1-4.3-4.3V492H365.8a2.2306,2.2306,0,0,1-1.6-3.8Z" transform="translate(26.5 18)"/><path class="cls-11" d="M854.3,385.3l-3.6-14.5-3.6,14.5a1.4324,1.4324,0,0,0,1.3,1.7H853A1.3888,1.3888,0,0,0,854.3,385.3Zm78,10-3.6-14.5-3.6,14.5a1.4324,1.4324,0,0,0,1.3,1.7H931A1.3888,1.3888,0,0,0,932.3,395.3Z" transform="translate(26.5 18)"/><path class="cls-9" d="M584.3,352.3l-3.6-14.5-3.6,14.5a1.4324,1.4324,0,0,0,1.3,1.7H583A1.3888,1.3888,0,0,0,584.3,352.3Z" transform="translate(26.5 18)"/><path class="cls-11" d="M142.3,343.3l-3.6-14.5-3.6,14.5a1.4324,1.4324,0,0,0,1.3,1.7H141A1.3888,1.3888,0,0,0,142.3,343.3Zm220,12-3.6-14.5-3.6,14.5a1.4324,1.4324,0,0,0,1.3,1.7H361a1.3888,1.3888,0,0,0,1.3-1.7Zm73,6-3.6-14.5-3.6,14.5a1.4324,1.4324,0,0,0,1.3,1.7H434a1.3888,1.3888,0,0,0,1.3-1.7Zm42-19-3.6-14.5-3.6,14.5a1.4324,1.4324,0,0,0,1.3,1.7H476a1.3888,1.3888,0,0,0,1.3-1.7Zm-404,10-3.6-14.5-3.6,14.5a1.4324,1.4324,0,0,0,1.3,1.7H72a1.3888,1.3888,0,0,0,1.3-1.7Zm-72,13-3.6-14.5-3.6,14.5A1.4324,1.4324,0,0,0-4.6,367H0a1.3888,1.3888,0,0,0,1.3-1.7Z" transform="translate(26.5 18)"/><path class="cls-9" d="M751.3,370.3l-3.6-14.5-3.6,14.5a1.4324,1.4324,0,0,0,1.3,1.7H750A1.3888,1.3888,0,0,0,751.3,370.3Z" transform="translate(26.5 18)"/><path class="cls-10" d="M901.8,380.1l-3.6-14.4-3.6,14.4a1.5837,1.5837,0,0,0,1.5,1.9h4.3a1.44,1.44,0,0,0,1.4-1.9Z" transform="translate(26.5 18)"/><path class="cls-9" d="M969.8,384.1l-3.6-14.4-3.6,14.4a1.5837,1.5837,0,0,0,1.5,1.9h4.3a1.44,1.44,0,0,0,1.4-1.9Zm-549-49-3.6-14.4-3.6,14.4a1.5837,1.5837,0,0,0,1.5,1.9h4.3a1.44,1.44,0,0,0,1.4-1.9Zm-79,1-3.6-14.4-3.6,14.4a1.5837,1.5837,0,0,0,1.5,1.9h4.3a1.44,1.44,0,0,0,1.4-1.9Zm-109.1-4.5-4.4-17.7-4.4,17.7a1.84,1.84,0,0,0,1.8,2.3H231a1.8656,1.8656,0,0,0,1.7-2.3Zm-210-30.9L18.2,283l-4.4,17.7a1.84,1.84,0,0,0,1.8,2.3h5.3a1.84,1.84,0,0,0,1.8-2.3Zm851,71L869.3,354l-4.4,17.7a1.84,1.84,0,0,0,1.8,2.3H872a1.8263,1.8263,0,0,0,1.7-2.3Zm281-9-4.4-17.7-4.4,17.7a1.84,1.84,0,0,0,1.8,2.3h5.3A1.8263,1.8263,0,0,0,1154.7,362.7ZM202.8,325.1l-3.6-14.4-3.6,14.4a1.5837,1.5837,0,0,0,1.5,1.9h4.3a1.44,1.44,0,0,0,1.4-1.9Zm-70-14-3.6-14.4-3.6,14.4a1.5837,1.5837,0,0,0,1.5,1.9h4.3a1.44,1.44,0,0,0,1.4-1.9Zm-81,1-3.6-14.4-3.6,14.4a1.5837,1.5837,0,0,0,1.5,1.9h4.3A1.44,1.44,0,0,0,51.8,312.1Zm473,25-3.6-14.4-3.6,14.4a1.5837,1.5837,0,0,0,1.5,1.9h4.3a1.44,1.44,0,0,0,1.4-1.9Zm498,51-3.6-14.4-3.6,14.4a1.5837,1.5837,0,0,0,1.5,1.9h4.3a1.44,1.44,0,0,0,1.4-1.9Z" transform="translate(26.5 18)"/><path class="cls-10" d="M799.8,379.1l-3.6-14.4-3.6,14.4a1.5837,1.5837,0,0,0,1.5,1.9h4.3a1.44,1.44,0,0,0,1.4-1.9Zm-87-9-3.6-14.4-3.6,14.4a1.5837,1.5837,0,0,0,1.5,1.9h4.3a1.44,1.44,0,0,0,1.4-1.9Zm-266-39-3.6-14.4-3.6,14.4a1.5837,1.5837,0,0,0,1.5,1.9h4.3a1.44,1.44,0,0,0,1.4-1.9Zm166,14-3.6-14.4-3.6,14.4a1.5837,1.5837,0,0,0,1.5,1.9h4.3a1.44,1.44,0,0,0,1.4-1.9Zm-515-10-3.6-14.4-3.6,14.4a1.5837,1.5837,0,0,0,1.5,1.9h4.3A1.44,1.44,0,0,0,97.8,335.1Z" transform="translate(26.5 18)"/><path class="cls-11" d="M51.8,344.1l-3.6-14.4-3.6,14.4a1.5837,1.5837,0,0,0,1.5,1.9h4.3A1.44,1.44,0,0,0,51.8,344.1Z" transform="translate(26.5 18)"/><path class="cls-9" d="M1.8,300.1l-3.6-14.4-3.6,14.4A1.5837,1.5837,0,0,0-3.9,302H.4A1.44,1.44,0,0,0,1.8,300.1Z" transform="translate(26.5 18)"/><path class="cls-10" d="M11.8,327.1,8.2,312.7,4.6,327.1A1.5837,1.5837,0,0,0,6.1,329h4.3A1.44,1.44,0,0,0,11.8,327.1Zm204,21-3.6-14.4-3.6,14.4a1.5837,1.5837,0,0,0,1.5,1.9h4.3a1.44,1.44,0,0,0,1.4-1.9Zm905,20-3.6-14.4-3.6,14.4a1.5837,1.5837,0,0,0,1.5,1.9h4.3a1.44,1.44,0,0,0,1.4-1.9Zm-81,20-3.6-14.4-3.6,14.4a1.5837,1.5837,0,0,0,1.5,1.9h4.3a1.44,1.44,0,0,0,1.4-1.9Zm639-45-3.6-14.4-3.6,14.4a1.5837,1.5837,0,0,0,1.5,1.9h4.3a1.44,1.44,0,0,0,1.4-1.9Zm-23,19-3.6-14.4-3.6,14.4a1.5837,1.5837,0,0,0,1.5,1.9h4.3a1.44,1.44,0,0,0,1.4-1.9Z" transform="translate(26.5 18)"/><path class="cls-9" d="M1795.8,343.1l-3.6-14.4-3.6,14.4a1.5837,1.5837,0,0,0,1.5,1.9h4.3a1.44,1.44,0,0,0,1.4-1.9Z" transform="translate(26.5 18)"/><path class="cls-10" d="M1962.8,337.1l-3.6-14.4-3.6,14.4a1.5837,1.5837,0,0,0,1.5,1.9h4.3a1.44,1.44,0,0,0,1.4-1.9Z" transform="translate(26.5 18)"/><path class="cls-11" d="M1692.8,364.1l-3.6-14.4-3.6,14.4a1.5837,1.5837,0,0,0,1.5,1.9h4.3a1.44,1.44,0,0,0,1.4-1.9Zm242,6-3.6-14.4-3.6,14.4a1.5837,1.5837,0,0,0,1.5,1.9h4.3a1.44,1.44,0,0,0,1.4-1.9Z" transform="translate(26.5 18)"/><path class="cls-15" d="M561.5,562l-20.7-58h8.3l-20.4-58h10.2l-22.3-65H525l-23.2-65.9L478.5,381H487l-22.4,65h10.1l-20.4,58h8.5L442,562H561.5Z" transform="translate(26.5 18)"/><path class="cls-16" d="M521.9,504l18.5,58h23l-20.6-58h7.4l-20.4-58h9.5L517,381h8.4l-23.6-65.9,8.3,65.9h-8.4l18.9,65h-8.7L529,504Z" transform="translate(26.5 18)"/><path class="cls-15" d="M491,394l26-13H491Zm3,75,36-23H494Zm13,58,36-23H507Z" transform="translate(26.5 18)"/><path class="cls-16" d="M719,534.3V513.7l-4-.7v32h14.1A10.5356,10.5356,0,0,1,719,534.3Z" transform="translate(26.5 18)"/><path class="cls-15" d="M715,540V513l-25.8-4.4V574H726V551A10.9683,10.9683,0,0,1,715,540Z" transform="translate(26.5 18)"/><path class="cls-9" d="M684.4,484h.5a5.075,5.075,0,0,0,3.6-1.5L727,443h-5l-38.3,39.3A.98.98,0,0,0,684.4,484Z" transform="translate(26.5 18)"/><path class="cls-9" d="M548,380h3l4-2h-3Z" transform="translate(26.5 18)"/><path class="cls-9" d="M539,384l8-5h12Z" transform="translate(26.5 18)"/><path class="cls-12" d="M552,378V368h3v10Z" transform="translate(26.5 18)"/><path class="cls-13" d="M555,368h-3v4h3Z" transform="translate(26.5 18)"/><path class="cls-10" d="M549.6,359.9,548,369h11l-1.5-9.1H559l-4.6-22.5-.8-4.4v.2L548,359.9Z" transform="translate(26.5 18)"/><path class="cls-9" d="M1253,393h-3.8l-5.1-3h3.8Z" transform="translate(26.5 18)"/><path class="cls-9" d="M1264.5,398.4l-10.2-6.4H1239Z" transform="translate(26.5 18)"/><path class="cls-12" d="M1248,390V377h-4v13Z" transform="translate(26.5 18)"/><path class="cls-13" d="M1244,378h4v5h-4Z" transform="translate(26.5 18)"/><path class="cls-9" d="M1251.4,367l2.1,12h-14.6l2-12h-2l6.1-29.8,1-5.7v.2l7.5,35.3Z" transform="translate(26.5 18)"/><path class="cls-9" d="M1512,377h-3l-4-2h3Z" transform="translate(26.5 18)"/><path class="cls-9" d="M1521,381l-8-5h-12Z" transform="translate(26.5 18)"/><path class="cls-12" d="M1508,375V365h-3v10Z" transform="translate(26.5 18)"/><path class="cls-13" d="M1505,365h3v4h-3Z" transform="translate(26.5 18)"/><path class="cls-10" d="M1510,357l1.6,9h-10.9l1.5-9h-1.5l4.5-22.3.8-4.3v.1l5.6,26.5Z" transform="translate(26.5 18)"/><path class="cls-10" d="M660.2,505.7a10.3777,10.3777,0,0,1,1.2.3,15.7074,15.7074,0,0,1,9.3,7.8,18.4406,18.4406,0,0,0-8.7-13.3l.3-.6c.5.2,1,.4,1.4.6a19.23,19.23,0,0,1,9.6,11,13.0819,13.0819,0,0,1,.7,4.4h-5.9a6.294,6.294,0,0,0-.9-3.3,14.33,14.33,0,0,0-7.2-6.3l.2-.6Z" transform="translate(26.5 18)"/><path class="cls-15" d="M1178,576V518a3.6009,3.6009,0,0,0-3.4-3.9,3.8991,3.8991,0,0,1-3.5-4.2v-8.8a13.8842,13.8842,0,0,0-2.7-7.4l-2.5-2.9a13.9972,13.9972,0,0,1-2.8-7.4v-9.6a16.643,16.643,0,0,0-2.1-7.6l-4.3-6.5a8.5686,8.5686,0,0,0-6.2-3.6h-4.7a5.1264,5.1264,0,0,0-4.7,4.6v61.5a11.375,11.375,0,0,1-2.5,7.1l-1.8,2.2a12.1033,12.1033,0,0,0-2.6,7.1V576H1178Zm480.4-18.7a2.7772,2.7772,0,0,0,2.6-2.9V527a8.55,8.55,0,0,1,1.8-5.1l8.7-11.3a6.4856,6.4856,0,0,1,4.7-2.5h2a3.15,3.15,0,0,1,2.8,3.2v30.6a8.0684,8.0684,0,0,0,2.1,4.9l1.7,1.5a9.1383,9.1383,0,0,1,2.2,4.9v33.2a2.9715,2.9715,0,0,1-3.1,2.7h-25.1a2.5679,2.5679,0,0,1-2-.8,2.7921,2.7921,0,0,1-.8-2V560.1a2.2112,2.2112,0,0,1,.6-1.9,2.6155,2.6155,0,0,1,1.8-.9Z" transform="translate(26.5 18)"/><path class="cls-11" d="M1572,406h38V395.1l-9.7-1.1a30.2368,30.2368,0,0,1-17.9-8.6l-2.5-2.5h-8V406Z" transform="translate(26.5 18)"/><path class="cls-7" d="M763,438h14l5,5h16l-13-13H771l-5,5H754l-8,8h12Z" transform="translate(26.5 18)"/><path class="cls-6" d="M762,438l-5,5h26l-5-5Z" transform="translate(26.5 18)"/><path class="cls-27" d="M781,433l10,10h7l-13-13H771l-3,3Z" transform="translate(26.5 18)"/><path class="cls-9" d="M798.4,443l-12,8.7a6.6788,6.6788,0,0,1-4.1,1.3h-15a2.2629,2.2629,0,0,1-2.3-2.3,2.6889,2.6889,0,0,0-2.7-2.7h-15a2.6648,2.6648,0,0,1-1.3-5h52.4Z" transform="translate(26.5 18)"/><path class="cls-10" d="M764.7,462.2c-.7.2-1.2.3-1.8.5A22.5955,22.5955,0,0,0,749.6,474a26.25,26.25,0,0,1,12.5-19.1l-.4-.9a19.475,19.475,0,0,0-2,.9A28.0041,28.0041,0,0,0,746,470.7a18.9012,18.9012,0,0,0-1,6.3h8.5a9.1229,9.1229,0,0,1,1.3-4.8,20.8571,20.8571,0,0,1,10.3-9.1l-.4-.9ZM921.6,533l23.1-1.6a46.4351,46.4351,0,0,0,10.4-1.9l2.5-.8A46.433,46.433,0,0,0,985,506l-.2-.2a132.915,132.915,0,0,1-67.1,17.5h-2.3a134.8309,134.8309,0,0,1-33.4-4.9v.7l12.5,7.5A47.3868,47.3868,0,0,0,921.6,533Zm280.8-112.4-5.3-10.8a9.9561,9.9561,0,0,0-9.2-5.6c-9.4.3-17.6,1.4-25.5,4l36.1,16.4a3.0358,3.0358,0,0,0,4.1-1.5A3.6583,3.6583,0,0,0,1202.4,420.6Z" transform="translate(26.5 18)"/><path class="cls-9" d="M1010,418h-3l-4-2h3Z" transform="translate(26.5 18)"/><path class="cls-9" d="M1019,422l-8-5H999Z" transform="translate(26.5 18)"/><path class="cls-12" d="M1006,416V406h-3v10Z" transform="translate(26.5 18)"/><path class="cls-13" d="M1003,406h3v4h-3Z" transform="translate(26.5 18)"/><path class="cls-10" d="M1008,398l1.6,9H998.7l1.5-9h-1.5l4.5-22.3.8-4.3v.1l5.6,26.5Z" transform="translate(26.5 18)"/><path class="cls-9" d="M1219,400h-3l-4-2h3Z" transform="translate(26.5 18)"/><path class="cls-9" d="M1228,404l-8-5h-12Z" transform="translate(26.5 18)"/><path class="cls-12" d="M1215,398V388h-3v10Z" transform="translate(26.5 18)"/><path class="cls-13" d="M1212,388h3v4h-3Z" transform="translate(26.5 18)"/><path class="cls-9" d="M1217,380l1.6,9h-10.9l1.5-9h-1.5l4.5-22.3.8-4.3v.1l5.6,26.5Z" transform="translate(26.5 18)"/><path class="cls-15" d="M581,508h-4v66h4Z" transform="translate(26.5 18)"/><path class="cls-5" d="M587,505.7v-1.4c.4-.3.8-.5,1.2-.8,2.1-2.1,2.6-10.2,2.6-10.2s-8.1.5-10.2,2.6a3.1658,3.1658,0,0,0-.8,1.2h-1.4c-.3-.4-.5-.8-.8-1.2-2.1-2.1-10.2-2.6-10.2-2.6s.5,8.1,2.6,10.2a3.1657,3.1657,0,0,0,1.2.8v1.4c-.4.3-.8.5-1.2.8-2.1,2.1-2.6,10.2-2.6,10.2s8.1-.5,10.2-2.6a3.1658,3.1658,0,0,0,.8-1.2h1.4c.3.4.5.8.8,1.2,2.1,2.1,10.2,2.6,10.2,2.6s-.5-8.1-2.6-10.2a5.0273,5.0273,0,0,1-1.2-.8Z" transform="translate(26.5 18)"/><path class="cls-26" d="M579.3,509.3a4.5,4.5,0,1,0-4.5-4.5A4.4813,4.4813,0,0,0,579.3,509.3Z" transform="translate(26.5 18)"/><path class="cls-15" d="M584,535a8.0235,8.0235,0,0,1,8-8A8.0235,8.0235,0,0,1,584,535Z" transform="translate(26.5 18)"/><path class="cls-15" d="M631.1,513.7l-32.5,51,2.2,1.4,32.5-51Z" transform="translate(26.5 18)"/><path class="cls-15" d="M628.9,511.9a4.1881,4.1881,0,0,1,7,4.6l-9.1,6.5Zm-5.5,18.4L615,525a4.1831,4.1831,0,0,1-1.9-3.7,4.1178,4.1178,0,0,1,2.3-3.5,4.2026,4.2026,0,0,1,4.2.2,4.6958,4.6958,0,0,1,1.7,2.2l2.1,10.1Z" transform="translate(26.5 18)"/><path class="cls-15" d="M622,529.4l8.4,5.4a4.2029,4.2029,0,1,0,4.5-7.1,3.69,3.69,0,0,0-2.7-.5L622,529.4Zm-6.7,10.5,9.9,6.3a4.9859,4.9859,0,0,0,6.8-1.6,5.1278,5.1278,0,0,0-1.6-6.9,4.5411,4.5411,0,0,0-3.2-.6Z" transform="translate(26.5 18)"/><path class="cls-15" d="M616.3,540.6l-9.9-6.3a4.8293,4.8293,0,0,1-1.3-6.7,4.9318,4.9318,0,0,1,6.6-1.6,5.1758,5.1758,0,0,1,1.9,2.7l2.7,11.9Zm-7.7,9.8,9.9,6.3a5.0951,5.0951,0,0,0,5.3.6,5.0161,5.0161,0,0,0,0-9,4.541,4.541,0,0,0-3.2-.6Z" transform="translate(26.5 18)"/><path class="cls-15" d="M609.6,551.1l-9.9-6.3a4.8292,4.8292,0,0,1-1.3-6.7,4.9553,4.9553,0,0,1,6.6-1.6,5.1754,5.1754,0,0,1,1.9,2.7l2.7,11.9Z" transform="translate(26.5 18)"/><path class="cls-15" d="M1398,503.4l1.7,1.7a75.3308,75.3308,0,0,0-22.2,52.9h-2.6A77.123,77.123,0,0,1,1398,503.4Z" transform="translate(26.5 18)"/><circle class="cls-5" cx="1426.5" cy="521" r="6.5"/><path class="cls-15" d="M267.5,533.4l-1.7,1.7A75.3308,75.3308,0,0,1,288,588h2.6A77.123,77.123,0,0,0,267.5,533.4Z" transform="translate(26.5 18)"/><circle class="cls-5" cx="292" cy="551" r="6.5"/><path class="cls-15" d="M1446,509h-4v46h4Z" transform="translate(26.5 18)"/><path class="cls-26" d="M1451.5,506.7v-1.4c.3-.3.8-.5,1.1-.8,1.9-1.9,2.4-9.5,2.4-9.5s-7.6.5-9.6,2.4a4.44,4.44,0,0,0-.8,1.1h-1.4c-.3-.3-.5-.8-.8-1.1-1.8-1.9-9.4-2.4-9.4-2.4s.5,7.6,2.4,9.6a4.4419,4.4419,0,0,0,1.1.8v1.4c-.3.3-.8.5-1.1.8-1.9,1.9-2.4,9.6-2.4,9.6s7.6-.5,9.6-2.4a10.4623,10.4623,0,0,1,.8-1.1h1.4c.3.3.5.8.8,1.1,1.9,1.9,9.6,2.4,9.6,2.4s-.5-7.6-2.4-9.6a3.7835,3.7835,0,0,0-1.3-.9Z" transform="translate(26.5 18)"/><path class="cls-5" d="M1444.3,510.3a4.5,4.5,0,1,0-4.5-4.5A4.4813,4.4813,0,0,0,1444.3,510.3Z" transform="translate(26.5 18)"/><path class="cls-15" d="M1449,533a8.0235,8.0235,0,0,1,8-8A8.0235,8.0235,0,0,1,1449,533Z" transform="translate(26.5 18)"/><path class="cls-15" d="M1569.1,540.3l-8.1,46.3,2,.4,8.1-46.4Z" transform="translate(26.5 18)"/><path class="cls-15" d="M1567,539.7a3.1746,3.1746,0,0,1,3.7-2.6,3.2969,3.2969,0,0,1,2.6,3.8l-4.6,7.4-1.7-8.6Zm1.6,14.8-7.6-1.3a3.0411,3.0411,0,0,1-2.4-2.1,3.2629,3.2629,0,0,1,3.6-4.3,3.4128,3.4128,0,0,1,1.8,1.1Z" transform="translate(26.5 18)"/><path class="cls-15" d="M1567.3,554.3l7.6,1.3a3.1938,3.1938,0,0,0,3.7-2.7,3.2906,3.2906,0,0,0-2.7-3.8,3.0833,3.0833,0,0,0-2.1.4Zm-1.7,9.5,8.9,1.6a3.9064,3.9064,0,0,0,4.4-3.2,4.0069,4.0069,0,0,0-3.2-4.5,4.344,4.344,0,0,0-2.5.5l-7.6,5.6Z" transform="translate(26.5 18)"/><path class="cls-15" d="M1566.5,564l-8.9-1.6a3.75,3.75,0,0,1-2.9-4.4,3.8113,3.8113,0,0,1,4.3-3.1,4.9624,4.9624,0,0,1,2.2,1.3Zm-2.5,9.4,8.9,1.6a3.8073,3.8073,0,0,0,3.9-1.2,4.0578,4.0578,0,0,0,.7-4.1,3.948,3.948,0,0,0-3.4-2.4,4.3448,4.3448,0,0,0-2.5.5l-7.6,5.6Z" transform="translate(26.5 18)"/><path class="cls-15" d="M1564.9,573.6,1556,572a3.75,3.75,0,0,1-2.9-4.4,3.8113,3.8113,0,0,1,4.3-3.1,4.9618,4.9618,0,0,1,2.2,1.3Z" transform="translate(26.5 18)"/><path class="cls-15" d="M60.2,532.1,35,571.9l1.7,1.1,25.2-39.8Z" transform="translate(26.5 18)"/><path class="cls-15" d="M58.5,530.8a3.3492,3.3492,0,0,1,4.5-1,3.2315,3.2315,0,0,1,.9,4.5l-7.1,5.1Zm-4.2,14.3L47.8,541a3.2705,3.2705,0,0,1-1.5-2.9,3.105,3.105,0,0,1,1.8-2.7,3.072,3.072,0,0,1,3.2.2,3.7077,3.7077,0,0,1,1.3,1.7Z" transform="translate(26.5 18)"/><path class="cls-15" d="M53.1,544.4l6.5,4.1a3.2,3.2,0,0,0,4.5-1.1,3.2374,3.2374,0,0,0-1-4.5,3.0832,3.0832,0,0,0-2.1-.4ZM48,552.6l7.6,4.9a3.9087,3.9087,0,0,0,5.3-1.3,3.8591,3.8591,0,0,0-1.2-5.3,4.3448,4.3448,0,0,0-2.5-.5L48,552.6Z" transform="translate(26.5 18)"/><path class="cls-15" d="M48.7,553.1l-7.6-4.9a3.8494,3.8494,0,0,1,4.1-6.5,4.0806,4.0806,0,0,1,1.5,2.1l2,9.3Zm-6,7.7,7.6,4.8a3.8114,3.8114,0,0,0,4.1.4,4.0184,4.0184,0,0,0,2.2-3.5,3.8377,3.8377,0,0,0-2.2-3.5,4.3448,4.3448,0,0,0-2.5-.5Z" transform="translate(26.5 18)"/><path class="cls-15" d="M43.5,561.3l-7.6-4.8A3.8494,3.8494,0,0,1,40,550a4.08,4.08,0,0,1,1.5,2.1Z" transform="translate(26.5 18)"/><path class="cls-15" d="M1735,580l11.7-11.7a10.55,10.55,0,0,0-3.1-.4,13.0557,13.0557,0,0,0-11.9,7.7,12.9307,12.9307,0,0,0-12-7.7,10.9968,10.9968,0,0,0-3.1.4l11.8,11.7Z" transform="translate(26.5 18)"/><path class="cls-10" d="M1547.5,504H1560l-11.7-6.2c-.4-.3-.2-.8.4-.8h7.9l13.2,7h12.5a7.6942,7.6942,0,0,1,4.1,1.1l37.6,29.4v1.7l-77.3-31.3C1545.7,504.4,1545.9,504,1547.5,504Z" transform="translate(26.5 18)"/><path class="cls-13" d="M1547,456v7h5v35.1c2.8,0,5-.2,5-1.4V456Z" transform="translate(26.5 18)"/><path class="cls-12" d="M1547,461v35.6c0,1.2,2.2,1.4,5,1.4V461Z" transform="translate(26.5 18)"/><path class="cls-8" d="M1532.3,429l5.5-31h-3.5l16.5-82.3,18.1,82.3h-2.8l6.3,31h-6.6l5.9,30h-38.8l5.5-30Z" transform="translate(26.5 18)"/><path class="cls-10" d="M1550.8,315.5,1540.1,398h-7.3ZM1536.4,398h8l-3.2,31h5.5l-5.5,30h-10.4l5.5-30h-5.8Z" transform="translate(26.5 18)"/><path class="cls-10" d="M75.5,487H63l11.7-6.2c.4-.3.2-.8-.4-.8H66.4l-13.2,7H40.8a7.6944,7.6944,0,0,0-4.1,1.1L-1,517.5v1.7l77.3-31.3c1-.5.8-.9-.8-.9Z" transform="translate(26.5 18)"/><path class="cls-13" d="M76,439v7H71v35.1c-2.8,0-5-.2-5-1.4V439Z" transform="translate(26.5 18)"/><path class="cls-12" d="M76,444v35.6c0,1.2-2.2,1.4-5,1.4V444Z" transform="translate(26.5 18)"/><path class="cls-8" d="M90.2,412l-5.5-31h3.5L71.7,298.7,53.6,381h2.8l-6.3,31h6.6l-5.9,30H89.6l-5.5-30Z" transform="translate(26.5 18)"/><path class="cls-10" d="M71.7,298.5,82.4,381h7.3ZM86.1,381h-8l3.2,31H75.8l5.5,30H91.7l-5.5-30H92Z" transform="translate(26.5 18)"/><path class="cls-15" d="M1618,531h-4v55h4Z" transform="translate(26.5 18)"/><path class="cls-5" d="M1624,528.7v-1.4c.4-.3.8-.5,1.2-.8,2.1-2.1,2.6-10.2,2.6-10.2s-8.1.5-10.2,2.6a3.1672,3.1672,0,0,0-.8,1.2h-1.4c-.3-.4-.5-.8-.8-1.2-2.1-2.1-10.2-2.6-10.2-2.6s.5,8.1,2.6,10.2a3.1654,3.1654,0,0,0,1.2.8v1.4c-.4.3-.8.5-1.2.8-2.1,2.1-2.6,10.2-2.6,10.2s8.1-.5,10.2-2.6a3.1669,3.1669,0,0,0,.8-1.2h1.4c.3.4.5.8.8,1.2,2.1,2.1,10.2,2.6,10.2,2.6s-.5-8.1-2.6-10.2A5.0227,5.0227,0,0,1,1624,528.7Z" transform="translate(26.5 18)"/><path class="cls-26" d="M1616.3,532.3a4.5,4.5,0,1,0-4.5-4.5A4.4813,4.4813,0,0,0,1616.3,532.3Z" transform="translate(26.5 18)"/><path class="cls-15" d="M1828,508h-4v50h4Z" transform="translate(26.5 18)"/><path class="cls-5" d="M1826,520a8,8,0,1,0-8-8A8.0235,8.0235,0,0,0,1826,520Z" transform="translate(26.5 18)"/><path class="cls-26" d="M1826,516a4,4,0,1,0-4-4A4.0118,4.0118,0,0,0,1826,516Z" transform="translate(26.5 18)"/><path class="cls-15" d="M1832,532a8.0235,8.0235,0,0,1,8-8A8.0235,8.0235,0,0,1,1832,532Zm-211,31a8.0235,8.0235,0,0,1,8-8A8.0235,8.0235,0,0,1,1621,563Z" transform="translate(26.5 18)"/><path class="cls-9" d="M1590,404h-3l-4-2h3Z" transform="translate(26.5 18)"/><path class="cls-9" d="M1599,408l-8-5h-12Z" transform="translate(26.5 18)"/><path class="cls-12" d="M1586,402V392h-3v10Z" transform="translate(26.5 18)"/><path class="cls-13" d="M1583,392h3v4h-3Z" transform="translate(26.5 18)"/><path class="cls-10" d="M1588,384l1.6,9h-10.9l1.5-9h-1.5l4.5-22.3.8-4.3v.1l5.6,26.5Z" transform="translate(26.5 18)"/><path class="cls-10" d="M600.9,422H595l4.1-1h-3.6l-4.5,1h-4.3a22.74,22.74,0,0,0-3.9,1.6l-10.9,6c-.4.2-.2.7.3.6l29.1-7.3c.3,0,.7-.9-.4-.9Z" transform="translate(26.5 18)"/><path class="cls-12" d="M595,400v20.9a3.7148,3.7148,0,0,0,2.3.6c1,0,1.8-.3,1.7-.6V400Z" transform="translate(26.5 18)"/><path class="cls-13" d="M599,399h-4v5h4Z" transform="translate(26.5 18)"/><path class="cls-12" d="M598,410.4l3-.9V408h-3Z" transform="translate(26.5 18)"/><path class="cls-10" d="M589.8,388l8.1-41.4,6.9,41.4h-2.2l2.2,14h-15l2.3-14Z" transform="translate(26.5 18)"/><path class="cls-9" d="M601.3,388l-3.6-41.4,7.6,41.4h-2.2l2.2,14h-4l-2.2-14Z" transform="translate(26.5 18)"/><path class="cls-15" d="M1954.1,485l10,57.6-2.4.4-10-57.5Z" transform="translate(26.5 18)"/><path class="cls-15" d="M1954.6,494.9l-5.6-9.2a4.0009,4.0009,0,0,1,3.2-4.7,3.9526,3.9526,0,0,1,4.6,3.2Zm5.9-.4a4.254,4.254,0,0,1,2.3-1.4,3.943,3.943,0,0,1,3.7,1.3,4.11,4.11,0,0,1,.7,4,3.9639,3.9639,0,0,1-3,2.6l-9.3,1.7,5.6-8.2Z" transform="translate(26.5 18)"/><path class="cls-15" d="M1948.3,496.6a3.44,3.44,0,0,0-2.6-.5,4.1465,4.1465,0,0,0-3.3,4.7,3.9215,3.9215,0,0,0,4.6,3.3l9.3-1.7Zm.7,10.8a4.7173,4.7173,0,0,0-3.1-.6,4.76,4.76,0,0,0,1.5,9.4l11-2-9.4-6.8Z" transform="translate(26.5 18)"/><path class="cls-15" d="M1964,504.8a5.4512,5.4512,0,0,1,2.7-1.7,4.68,4.68,0,0,1,5.2,3.9,4.8913,4.8913,0,0,1-3.6,5.5l-11,2,6.7-9.7Zm-12.9,14.4a4.7173,4.7173,0,0,0-3.1-.6,4.6339,4.6339,0,0,0-4.1,3,4.9789,4.9789,0,0,0,.8,5.1,4.6625,4.6625,0,0,0,4.8,1.5l11-1.9-9.4-7.1Z" transform="translate(26.5 18)"/><path class="cls-15" d="M1966,516.7a5.4512,5.4512,0,0,1,2.7-1.7,4.68,4.68,0,0,1,5.2,3.9,4.8913,4.8913,0,0,1-3.6,5.5l-11,1.9,6.7-9.6Z" transform="translate(26.5 18)"/><path class="cls-15" d="M966.1,551l10,57.6-2.4.4-10-57.5Z" transform="translate(26.5 18)"/><path class="cls-15" d="M966.6,560.9l-5.6-9.2a4.0009,4.0009,0,0,1,3.2-4.7,3.9526,3.9526,0,0,1,4.6,3.2Zm5.9-.4a4.254,4.254,0,0,1,2.3-1.4,3.9432,3.9432,0,0,1,3.7,1.3,4.11,4.11,0,0,1,.7,4,3.9636,3.9636,0,0,1-3,2.6l-9.3,1.7,5.6-8.2Z" transform="translate(26.5 18)"/><path class="cls-15" d="M960.3,562.6a3.4405,3.4405,0,0,0-2.6-.5,4.1463,4.1463,0,0,0-3.3,4.7,3.9214,3.9214,0,0,0,4.6,3.3l9.3-1.7Zm.7,10.8a4.7173,4.7173,0,0,0-3.1-.6,4.76,4.76,0,0,0,1.5,9.4l11-2-9.4-6.8Z" transform="translate(26.5 18)"/><path class="cls-15" d="M976,570.8a5.4512,5.4512,0,0,1,2.7-1.7,4.68,4.68,0,0,1,5.2,3.9,4.8914,4.8914,0,0,1-3.6,5.5l-11,2,6.7-9.7Z" transform="translate(26.5 18)"/><path class="cls-15" d="M132.1,598.7h8.4l-18.4-53.5H129l-19.1-54.3L90.7,545.2h7.1L79.3,598.7h8.4L77,629h65.8Z" transform="translate(26.5 18)"/><path class="cls-16" d="M133,598.7h7.8l-18.3-53.5h6.9l-19.5-54.3,6.9,54.3h-6.9l15.5,53.5h-7.2l9,30.3h16.5Z" transform="translate(26.5 18)"/><path class="cls-15" d="M101.1,555.9l21.4-10.7H101.1Zm2.4,61.7,29.7-18.9H103.5Z" transform="translate(26.5 18)"/><path class="cls-15" d="M1314.1,624.2l-17-47.8h6.8l-16.8-47.7h8.4l-18.4-53.5h6.9l-19.1-54.3-19.2,54.3h7.1l-18.5,53.5h8.4l-16.8,47.7h6.9l-17.1,47.8h98.4Z" transform="translate(26.5 18)"/><path class="cls-16" d="M1281.5,576.4l15.2,47.8h19l-17-47.8h6.1L1288,528.7h7.8l-18.3-53.5h6.9l-19.5-54.3,6.9,54.3h-6.9l15.5,53.5h-7.2l14.2,47.7Z" transform="translate(26.5 18)"/><path class="cls-15" d="M1256.1,485.9l21.4-10.7h-21.4Zm2.4,61.7,29.7-18.9h-29.7Zm10.7,47.8,29.7-19h-29.7Z" transform="translate(26.5 18)"/><path class="cls-15" d="M1951,532a61.0723,61.0723,0,0,0-43.3,18H1804c-7.6,0-18.3,2.7-23.6,8.2l-19.3,18.7c-5.2,5.1-15.4,9.2-22.8,9.2H1556c-7.2,0-17.3-5-22.3-9.9l-13-13.2a29.8816,29.8816,0,0,0-21.3-8.9H1394c-5.1,0-12.1-2.6-15.7-6.1l-4.1-3.2c-3.6-3.5-10.7-5.7-15.7-5.7h-15.7c-5.2,0-12.4,2.3-16.2,5.9l-9.1,9.4c-1,.8-1.9,1.7-3,2.6-3.9-3.3-10.4-6-15.2-6h-25.9c-4,0-9.3,2.3-13.1,5.2l-9.8-9.7c-4.2-4.6-12.7-8.5-18.8-8.5h-7.3a38.6406,38.6406,0,0,0-23.4-7.7,40.2909,40.2909,0,0,0-24,7.8c-1.1.1-2.3.2-3.5.4a42.4977,42.4977,0,0,0-6.3,1.7,94.7733,94.7733,0,0,1-32,5.8h-.9a93.8,93.8,0,0,1-15-1.1,44.644,44.644,0,0,0-7.2-.6c-10.4,0-19.5,4.5-24.6,11.7a129.3537,129.3537,0,0,1-27.8,3H1053c-6,0-14.5,2.3-18.7,6.6L1019.1,580c-4.1,4-12.2,7-18,7H874.6c-5.9,0-14-3.7-18.2-7.9l-5.5-5.5A40.1351,40.1351,0,0,0,822.7,562H775.3a17.5387,17.5387,0,0,1-10.7-4.3l-2.8-2.5c-2.4-2.4-7.3-4.2-10.7-4.2H712.7c-3.9,0-9.3,2-12,4.8l-10.5,11.3c-4,4-11.7,7.9-17.3,7.9H629.1c-3.9,0-9.3-3.1-12-5.8l-3.1-2.9c-2.7-2.7-8.2-4.3-12-4.3H420.8c-8,0-15.1-2.4-20.8-8l-9-9c-4.3-4.3-12.5-8-18.7-8H318.6c-1,0-2,.1-3.1.2a29.52,29.52,0,0,0-18.3,10.3,31.4788,31.4788,0,0,1-3.6,3.7c-4.4,3.5-11.2,6.8-16.3,6.8H194.2c-6,0-14.5,2.3-18.8,6.6L160.2,579c-4.1,4-12.3,7-18,7H67.3c-5.8,0-14-3.7-18.2-7.9l-5.4-5.4A40.04,40.04,0,0,0,15.4,561H-14v99H1986V543.1A60.4675,60.4675,0,0,0,1951,532Zm-835-17a10.0294,10.0294,0,0,1,10-10A10.0294,10.0294,0,0,1,1116,515Z" transform="translate(26.5 18)"/><path class="cls-15" d="M437.1,162.4a3.6856,3.6856,0,0,0,3.5-.9l5.3-3.5h-15c-4,0-9.3,2.8-12.2,5h13.4l9.9,10.8a16.8013,16.8013,0,0,0-4.9-11.4Z" transform="translate(26.5 18)"/><path class="cls-15" d="M434,163v.2l-10.5,10.6a18.8868,18.8868,0,0,1,3.8-10.8Z" transform="translate(26.5 18)"/><path class="cls-15" d="M488.7,135.1a3.5139,3.5139,0,0,0-3.5-.9l.1-.1a16.5267,16.5267,0,0,0,4.8-11.3l-8.9,9.2-9.7-9.8a16.9128,16.9128,0,0,0,.7,4.5A14.648,14.648,0,0,0,476,133h-9.2a17.3215,17.3215,0,0,0,11.1,5h13.5l-2.7-2.9Z" transform="translate(26.5 18)"/></g></svg>