<svg id="Layer_1" data-name="Layer 1" xmlns="http://www.w3.org/2000/svg" xmlns:xlink="http://www.w3.org/1999/xlink" width="1974.296" height="700.0004" viewBox="0 0 1974.296 700.0004"><defs><style>.cls-1{fill-rule:evenodd;fill:url(#linear-gradient);}.cls-2{fill:none;}.cls-19,.cls-3{fill:#fff;}.cls-4{fill:#c4d7b6;}.cls-5{fill:#e3ead3;}.cls-6{fill:#18191a;}.cls-7{fill:#447337;}.cls-8{fill:#6fbf5c;}.cls-9{fill:#5a9c4b;}.cls-10{fill:#9bd96f;}.cls-11{fill:#b37624;}.cls-12{fill:#9c452d;}.cls-13{fill:#de5833;}.cls-14{fill:#ef9f3f;}.cls-15{fill:#fec585;}.cls-16{fill:#abbda0;}.cls-17{fill:#242526;}.cls-18{fill:#ffc16c;}.cls-19{isolation:isolate;opacity:0.8;}</style><linearGradient id="linear-gradient" x1="57.4712" y1="-48.7514" x2="57.4712" y2="-49.2745" gradientTransform="translate(-112803 29672.25) scale(1980 600)" gradientUnits="userSpaceOnUse"><stop offset="0" stop-color="#f3e9de"/><stop offset="0.1468" stop-color="#ece8e2"/><stop offset="1" stop-color="#afd2ec"/></linearGradient></defs><path id="a-2" class="cls-1" d="M0,0H1980V700H0Z"/><path class="cls-2" d="M-14,82H1986V748H-14Z"/><path class="cls-3" d="M773.1005,364.6h0c-31.9095-.6-59.3156,14.0144-81.2,32h0a39.08,39.08,0,0,0-16.1-3.5c-1.2,0-2.3.1-3.4.2,0-.1,0-.1.1-.2a23.11,23.11,0,0,1-23.1-23.1V355.3a27.9882,27.9882,0,0,0-28-27.2,28.8042,28.8042,0,0,0-5.9.6,52.3429,52.3429,0,0,0-81.9,9.4,32.4554,32.4554,0,0,0-7.7,3.8,29.22,29.22,0,0,0-43.8-8.3,31.7749,31.7749,0,0,0-14,1.6,31.1458,31.1458,0,0,0-58.7-16.4,42.761,42.761,0,0,0-70.2,8.5,33.6178,33.6178,0,0,0-7.5,2.7,28.6941,28.6941,0,0,0-40.5-16.9,47.1368,47.1368,0,0,0-57.5-16c-2.6.1-5.1.3-7.7.5a40.16,40.16,0,0,0-67.3,28.5A120.5453,120.5453,0,0,0,142.1,343,62.4448,62.4448,0,0,0,71,322.6,64.0276,64.0276,0,0,0,54,317a16.4744,16.4744,0,0,0-3.2-.4A31.1779,31.1779,0,0,0-5.4,332.3a45.9889,45.9889,0,0,0-9.4-3.4V500h2000V298.2a42.7723,42.7723,0,0,0-34.4,23h0c-1.2.3-2.5.7-3.7,1.1a28.6893,28.6893,0,0,0-40.3-16.3,47.1369,47.1369,0,0,0-57.5-16c-2.6.1-5.1.3-7.7.5a40.1751,40.1751,0,0,0-66.7,22.5c-.7,0-1.3-.1-2-.1a30.9658,30.9658,0,0,0-25.1,12.8,62.63,62.63,0,0,0-61.3-10.3,64.0276,64.0276,0,0,0-17-5.6,16.4821,16.4821,0,0,0-3.2-.4,31.1779,31.1779,0,0,0-56.2,15.7,42.1523,42.1523,0,0,0-27.3-3.6,42.901,42.901,0,0,0-33.5,32.7,21.9416,21.9416,0,0,0-9-2.4,12.6712,12.6712,0,0,0-24.3,2.5,15.5491,15.5491,0,0,0-10.1,7.2,25.7867,25.7867,0,0,0-24.6-8.6,26.4662,26.4662,0,0,0-8.6,3.3,37.0624,37.0624,0,0,0-27.7-5.3,37.5092,37.5092,0,0,0-15.2,6.9v-.3a37.0207,37.0207,0,0,0-72.3-11.2c-.6-.3-1.3-.6-2-.9a33.4773,33.4773,0,0,0-31.6,3.1,31.24,31.24,0,0,0-20.5,21.4,65.3746,65.3746,0,0,0-12.5-1.2,67.4681,67.4681,0,0,0-37.6,11.5,37.0233,37.0233,0,0,0-66.2,6.2,21.7358,21.7358,0,0,0-3.6-.2,26.729,26.729,0,0,0-22.1,11.6,38.0713,38.0713,0,0,0-12.7-2.2,8.0936,8.0936,0,0,0-1.6.1,39.0327,39.0327,0,0,0-74.4,4,36.6588,36.6588,0,0,0-16,8.6,32.3942,32.3942,0,0,0-6-2.7,33.8627,33.8627,0,0,0-42.9,21.1,34.306,34.306,0,0,0-1.4,16.1A34.0885,34.0885,0,0,0,980,453.6a32.2366,32.2366,0,0,0-14.5-3.4,33.34,33.34,0,0,0-11.4,2,37.0644,37.0644,0,0,0-49.6-34.9,36.9844,36.9844,0,0,0-54.7-11.7,91.81,91.81,0,0,0-76.7-41"/><path class="cls-4" d="M1321.1,341.8l270.7,135.4L1321.1,612.6,1100,502h60.9Z"/><path class="cls-5" d="M1321.1,341.8,1160.9,502H1100l-49.7-24.8Z"/><path class="cls-4" d="M1309.5,510.2l10.8-10.8L1446.6,364h-33.4l54.2-45.1,223.8,111.9v46.9L1467.8,589.5Z"/><path class="cls-5" d="M1467.2,318.9,1422.1,364h33.4L1309,510.6l-112.5-56.3Z"/><path class="cls-4" d="M1182.3,556.8,1334.1,405h-37.5l26-26,.2-.1,270.7,135.4L1322.8,649.7l-140.5-70.2L1052,514.3l22.7-11.3Z"/><path class="cls-5" d="M1339,400,1182.3,556.8,1074.7,503l247.9-124-21,21Zm215-4.9v43.2l86.6-86.5Z"/><path class="cls-4" d="M1460.2,532.3l180.4-180.5,50.6,25.2V597.3l-50.5,25.2Z"/><path class="cls-5" d="M1751.5,544.4l225.4-225.6L1638.7,488Z"/><path class="cls-4" d="M1751.2,544.4l225.7-225.6,28.3,15.7V533l-19,119.6-9.4,4.7Z"/><path class="cls-4" d="M1651.5,577.7,1775.7,453h-95.8l73.1-73h-25.2l67.6-66.9L1975.2,403V559.8l-179.8,89.9Z"/><path class="cls-5" d="M1775.7,453,1651,577.3l-192-96,336.4-168.2L1727.8,380H1753l-73.1,73Z"/><path class="cls-5" d="M1567.1,522.2,1905,355l88.2,83.5-11,99.5V653.1l-76.7,38.3Z"/><path class="cls-5" d="M1495.1,526.8l154.5,56.4L1822.3,414h-41.1l53.5-54.4Z"/><path class="cls-4" d="M1822.3,414h-41.1l53.5-54.4L1986,432v39H1764.3Z"/><path class="cls-5" d="M706.7,484.4,436,349,616.1,529.6Zm-226-13L205.2,332,388.1,516.6Z"/><path class="cls-4" d="M436,349,616.1,529.6,435.2,619.8,267.7,536.1V432.8Z"/><path class="cls-4" d="M205.2,332,388.1,516.6,205.2,602.8,37.7,519.1V415.8Z"/><path class="cls-5" d="M310.9,334l40.6,45.1H319L458,514.5l123.7-45.1Z"/><path class="cls-4" d="M368.7,425.3H127.1L310.9,334l45.3,45.3H322.7Z"/><path class="cls-5" d="M1046.7,520.3l-90.2,45.2L776,385Z"/><path class="cls-4" d="M505.4,520.3,776.2,385l78,78L956.7,565.5,776.2,655.7Z"/><path class="cls-5" d="M796.9,417l270.8,135.4L796.9,687.8,616.4,597.6Z"/><path class="cls-4" d="M311.6,477.8,581,344l54.4,53.4H615.1L674,456H596.9l99.8,98.3L581.4,611.5Z"/><path class="cls-5" d="M674,456l-58.9-58.6h20.3L581,344,852.7,479.8l-156,74.5L596.9,456Z"/><path class="cls-4" d="M-26.5,496.1V374.5L60,331l53.9,53.2H94.5l57.9,58H75.7l99,99.1L60.4,598.5-26.5,555Z"/><path class="cls-5" d="M153,443.2l-59-59h19.9L60,331,331.7,466.1,176.5,543.7,76.1,443.2Z"/><path class="cls-4" d="M724.4,489l150.1-75,75.9,75Z"/><path class="cls-5" d="M874.1,414l150.4,75H950Z"/><path class="cls-4" d="M269.7,371v22.1H256.1l-117.9,117H109.7v-60Z"/><path class="cls-5" d="M138.6,502.3,269.9,371,540.7,506.4,269.9,641.8,110.2,561.9V507.4Z"/><path class="cls-4" d="M438.7,382,307.5,521.6H279v-60Z"/><path class="cls-5" d="M307.6,513.3,438.9,382,709.7,517.4,438.9,652.8,279.2,572.9V518.4Z"/><path class="cls-5" d="M363.7,449.1v60H335.2l-117.9-117H203.9V370Z"/><path class="cls-4" d="M203.9,370l82.8,82.4V599.6l-82.4,41.2L13.7,545.4V465.3Z"/><path class="cls-5" d="M1105.6,428.4l-73.3,86.8-86.8-32.8,159-79.4-14.1,25.4Z"/><path class="cls-4" d="M977.1,489.2l48.2,13.8,74.7-74.6h-20.9l25.4-25.4,338.1,169.1L1104.5,741.2,766.3,572.1Z"/><path class="cls-6" d="M773,560H669V698h84.8L773,641Z"/><path class="cls-7" d="M1612.4,665.9a17.3054,17.3054,0,0,1,12.5,5.2,41.6886,41.6886,0,0,1,18.4-4.2c8.6,0,68.5,2.6,75.2,7a17.54,17.54,0,0,1,14.8-8,18.2106,18.2106,0,0,1,10.1,3.1,43.03,43.03,0,0,1,83.7,13H1594.7A17.8033,17.8033,0,0,1,1612.4,665.9ZM440.6,582l14.3,57.4-28.6-10Z"/><path class="cls-8" d="M1949,429a16.4807,16.4807,0,0,0-10.8,2.6l-15.9,10.5a22.263,22.263,0,0,1-15.9,3.4l-23.8-3.9a16.8859,16.8859,0,0,0-8.9,1l-17,7a27.86,27.86,0,0,1-15.9,1.7l-133.1-24a24.92,24.92,0,0,0-13,1.1l-72.3,25.9a37.2127,37.2127,0,0,1-27.4,2.6l-47.6-14.1a33.3493,33.3493,0,0,0-16.9-.5l-101,22.7a46.6191,46.6191,0,0,1-13.9,1l-101.5-7.6a30.3373,30.3373,0,0,0-13.3,1.9l-19,7a18.7819,18.7819,0,0,1-11,.6l-19.9-4.8a18.9192,18.9192,0,0,0-8.2-.2,47.3131,47.3131,0,0,1-9.3.9H1230s-6.1-.9-9.1-1.6l-20.8-4.1a162.5578,162.5578,0,0,0-18.9-2.4h-6.6a165.367,165.367,0,0,0-18.9,2.4l-57.1,11.4c-17,3.5-45,10.4-63.6,15a100.8744,100.8744,0,0,1-38.7,2l-164-23.8a128.9356,128.9356,0,0,0-36.7-.1l-25.7,3.6a91.1938,91.1938,0,0,1-27.6-.2c-2.5-.5-5-.9-6.9-1.4l-84.3-26a79.7242,79.7242,0,0,0-45.4,0l-18.9,5.8c-7.6,2.3-20,2.3-27.6,0L491.6,424c-20.1-6-25.3-6-45.4,0l-37.1,11.3c-.1,0-.2.1-.3.1a89.0228,89.0228,0,0,1-39.4,2.7l-22-3.2a128.9356,128.9356,0,0,0-36.7-.1L285,438.4a91.1938,91.1938,0,0,1-27.6-.2c-2.5-.5-5-.9-6.9-1.4-21.1-6.3-84.3-26-84.3-26a79.7242,79.7242,0,0,0-45.4,0l-18.9,5.8c-7.6,2.3-20,2.3-27.6,0L6.8,396c-5.2-1.5-12.9-2.4-20.8-2.5V574H1038V536h948V433Z"/><path class="cls-9" d="M1461,457h-20l10-40Z"/><path class="cls-7" d="M1641,473h-20l10-40Z"/><path class="cls-9" d="M1628,464h-20l10-40Zm-302-19h-20l10-40Z"/><path class="cls-7" d="M1314,435h-20l10-40Z"/><path class="cls-9" d="M1902.2,456h-8.3a2.9347,2.9347,0,0,1-2.9-3.7l7.1-28.3,7.1,28.3a3.1471,3.1471,0,0,1-3,3.7Z"/><path class="cls-10" d="M1966.9,467h-5.8a2.0319,2.0319,0,0,1-2-2.6l4.9-19.7,4.9,19.7a2.032,2.032,0,0,1-2,2.6Zm-198,0h-5.8a2.0319,2.0319,0,0,1-2-2.6l4.9-19.7,4.9,19.7a2.032,2.032,0,0,1-2,2.6Z"/><path class="cls-10" d="M1390.6,424h16.8a1.5525,1.5525,0,0,0,1.1-2.6l-21.8-21.8a9.81,9.81,0,0,0-9.1.9L1268,472h167l-45.4-45.4a1.5018,1.5018,0,0,1,1-2.6Z"/><path class="cls-8" d="M1407.4,424h-16.8a1.5525,1.5525,0,0,0-1.1,2.6L1435,472h63l-111.3-72.3,21.8,21.8a1.4919,1.4919,0,0,1-1.1,2.5Z"/><path class="cls-9" d="M1413.2,447.7a9.4855,9.4855,0,0,0-13.1-.1,9.3361,9.3361,0,0,0-2.6,5,5.8221,5.8221,0,0,0-7.8.3,5.5011,5.5011,0,0,0-.127,7.7787q.11.1139.2269.2213a6.02,6.02,0,0,0,8.2.1,6.5675,6.5675,0,0,0,1.2-1.7,10.61,10.61,0,0,0,1,1.2,9.4854,9.4854,0,0,0,13.1.1,8.9681,8.9681,0,0,0,.1213-12.6821q-.1087-.1108-.2213-.2179Z"/><path class="cls-8" d="M1271,388l30.7,52.7a1.5161,1.5161,0,0,1-1.3,2.3h-10.8a1.4735,1.4735,0,0,0-1.3,2.2L1318,499h68L1278.1,391.1A10.0348,10.0348,0,0,0,1271,388Z"/><path class="cls-10" d="M1289.5,443h10.8a1.5161,1.5161,0,0,0,1.3-2.3L1271,388a10.0348,10.0348,0,0,0-7.1,3.1L1156,499h162l-29.8-53.8a1.5074,1.5074,0,0,1,1.3-2.2Z"/><path class="cls-9" d="M1408.4,478a13.3607,13.3607,0,0,0,.6-4,14.0412,14.0412,0,0,0-14-14,13.8417,13.8417,0,0,0-9.2,3.5,22.4926,22.4926,0,0,0-30.4,7,15.0588,15.0588,0,0,0-3.6-.6c-5.7,0-10.6,3.1-12.2,8.1h68.8Z"/><path class="cls-7" d="M1396,479h-20l10-40Z"/><path class="cls-9" d="M1363,481h-20l10-40Z"/><path class="cls-8" d="M1561.1,390.2l45,108.8H1670Z"/><path class="cls-10" d="M1547.9,391.1,1440,499h166.1L1561,390.2A9.9463,9.9463,0,0,0,1547.9,391.1Z"/><path class="cls-7" d="M1581,471h-20l10-40Z"/><path class="cls-9" d="M1611,481h-20l10-40Zm-62-23h-20l10-40Z"/><path class="cls-8" d="M1610.7,474.7a16.0592,16.0592,0,0,0-11.3-4.7h-4.7a16.0592,16.0592,0,0,1-11.3-4.7l-23.6-23.6a16.0588,16.0588,0,0,0-11.3-4.7h-39a16.0588,16.0588,0,0,1,11.3,4.7l23.6,23.6a16.0592,16.0592,0,0,0,11.3,4.7h4.7a16.0592,16.0592,0,0,1,11.3,4.7L1596,499h39Z"/><path class="cls-9" d="M1357,486.1c-2-10.4-11.1-17.1-22.1-17.1h-1.1a30.1876,30.1876,0,0,0-24.1-12.9,29.8094,29.8094,0,0,0-24.4,12.2,18.8075,18.8075,0,0,0-14.9.5,22.63,22.63,0,0,0-31,6.7,15.0588,15.0588,0,0,0-3.6-.6c-6.8,0-12.4,4.3-12.7,11.1l133.9.1Z"/><circle class="cls-9" cx="1652" cy="499.0004" r="25"/><circle class="cls-9" cx="1690" cy="509.0004" r="25"/><circle class="cls-9" cx="1619" cy="507.0004" r="25"/><path class="cls-9" d="M1234.4,484a13.3607,13.3607,0,0,0,.6-4,14.0412,14.0412,0,0,0-14-14,13.8417,13.8417,0,0,0-9.2,3.5,22.4926,22.4926,0,0,0-30.4,7,15.0588,15.0588,0,0,0-3.6-.6c-5.7,0-10.6,3.1-12.2,8.1h68.8Z"/><path class="cls-9" d="M1189.4,487a13.3607,13.3607,0,0,0,.6-4,14.0412,14.0412,0,0,0-14-14,13.8417,13.8417,0,0,0-9.2,3.5,22.4926,22.4926,0,0,0-30.4,7,15.0588,15.0588,0,0,0-3.6-.6c-5.7,0-10.6,3.1-12.2,8.1h68.8Z"/><path class="cls-10" d="M1428.6,462.5l5-5a18.9308,18.9308,0,0,1,13.4-5.6h26.1a4.691,4.691,0,0,0,3.5-1.5l13.5-13.5h-41.2a45.47,45.47,0,0,0-32.3,13.4,22.7109,22.7109,0,0,1-16,6.6,15.8847,15.8847,0,0,0-11.3,4.7l-.2.2c-.7.7-1.5,1.4-2.2,2h38.2a4.0077,4.0077,0,0,0,3.5-1.3Z"/><path class="cls-10" d="M1864.6,470.1a160.2522,160.2522,0,0,0-71.6,0l-100.9,23.4a192.9366,192.9366,0,0,1-64.4,3.7l-37.8-4.2-18.2-18.2a16.0592,16.0592,0,0,0-11.3-4.7h-4.7a16.06,16.06,0,0,1-11.3-4.7l-23.6-23.6a16.0585,16.0585,0,0,0-11.3-4.7H1486l-19.4,19.4a18.9308,18.9308,0,0,1-13.4,5.6h-16a10.3272,10.3272,0,0,0-7.1,2.9l-7.5,7.5a18.9308,18.9308,0,0,1-13.4,5.6h-53.1l5-5-69.1,6.7a335.0345,335.0345,0,0,1-78.8-.6,250.9015,250.9015,0,0,0-58.1-.2L958.9,502.2a315.2841,315.2841,0,0,1-73.3.1l-293.9-34a334.8056,334.8056,0,0,0-77.5,0l-83.1,10.1c-12.5,1.5-25.3,2.5-37.9,3a424.0735,424.0735,0,0,1-58.6-1.5c-25.4-2.4-101.2-11.6-101.2-11.6a334.8056,334.8056,0,0,0-77.5,0L72.8,478.4c-12.5,1.5-25.3,2.5-37.9,3a468.9008,468.9008,0,0,1-48.9-.7V703H1985V566h1V498.3l-121.4-28.2Z"/><path class="cls-5" d="M1403,478h11.1a18.7588,18.7588,0,0,0,13.4-5.6l7.5-7.5a9.8974,9.8974,0,0,1,7.1-2.9h16a18.7588,18.7588,0,0,0,13.4-5.6l19.4-19.4h-11.8l-13.5,13.5a5.0927,5.0927,0,0,1-3.5,1.5H1436a18.7585,18.7585,0,0,0-13.4,5.6l-5,5a5.0927,5.0927,0,0,1-3.5,1.5h-27.2a36.5923,36.5923,0,0,1-20,8.4c-1,.1-2.1.2-3.1.3l-2.7.3-5,5H1403Z"/><path class="cls-8" d="M625,516h3l4-2h-3Z"/><path class="cls-8" d="M616,520l8-5h12Z"/><path class="cls-11" d="M629,514V504h3v10Z"/><path class="cls-12" d="M632,504h-3v4h3Z"/><path class="cls-9" d="M626.6,495.9,625,505h11l-1.5-9.1H636l-4.6-22.5-.8-4.4v.2L625,495.9Z"/><path class="cls-8" d="M452.5,512H457l6-3h-4.5Z"/><path class="cls-8" d="M439,517.5l12-7.5h18Z"/><path class="cls-11" d="M459,509V494h4v15Z"/><path class="cls-12" d="M463,494h-4v6h4Z"/><path class="cls-9" d="M454.7,481l-2.4,14h16.9L467,481h2.2l-7-34.7-1.2-6.7v.2L452.3,481Z"/><path class="cls-8" d="M109,487h4.5l6-3H115Z"/><path class="cls-8" d="M95.5,492.5l12-7.5h18Z"/><path class="cls-11" d="M116,484V469h4v15Z"/><path class="cls-12" d="M120,469h-4v6h4Z"/><path class="cls-9" d="M111.7,456l-2.4,14h16.9L124,456h2.2l-7-34.7-1.2-6.7v.2L109.3,456Z"/><path class="cls-8" d="M234.5,499H239l6-3h-4.5Z"/><path class="cls-8" d="M221,504.5l12-7.5h18Z"/><path class="cls-11" d="M241,496V481h4v15Z"/><path class="cls-12" d="M245,481h-4v6h4Z"/><path class="cls-9" d="M236.7,468l-2.4,14h16.9L249,468h2.2l-7-34.7-1.2-6.7v.2L234.3,468Z"/><path class="cls-3" d="M997,629V617.8L981.5,603H961.4l-15-15H925l-12,12H901l-19,18.6V629Z"/><path class="cls-5" d="M997,635V623.8L981.5,609H961.4l-15-15H925l-12,12H901l-19,18.6V635Z"/><path class="cls-4" d="M985,633v-6.4L974.4,616H954.8l-15.9-16H928v15H913.6l-18.4,18Z"/><circle class="cls-7" cx="1745" cy="525.0004" r="50"/><circle class="cls-9" cx="1688" cy="555.0004" r="50"/><circle class="cls-9" cx="1443" cy="529.0004" r="35"/><circle class="cls-9" cx="1313" cy="525.0004" r="35"/><circle class="cls-9" cx="1275" cy="534.0004" r="35"/><circle class="cls-9" cx="1493" cy="537.0004" r="50"/><circle class="cls-9" cx="208" cy="531.0004" r="50"/><circle class="cls-7" cx="141" cy="537.0004" r="50"/><circle class="cls-7" cx="174" cy="524.0004" r="50"/><circle class="cls-7" cx="348" cy="544.0004" r="50"/><circle class="cls-7" cx="1799" cy="534.0004" r="50"/><circle class="cls-9" cx="1921" cy="546.0004" r="50"/><path class="cls-7" d="M1161.8,499l3.9-22h-2.4l11.7-58.4,12.8,58.4h-2l4.5,22H1186l4.3,22h-28.5l4-22Z"/><path class="cls-9" d="M1175,417.9l-7.7,59.1h-5.2ZM1164.7,477h5.6l-2.2,22h4.1l-4.1,22h-7.6l4-22h-4Z"/><path class="cls-7" d="M1833.8,478l3.9-22h-2.4l11.7-58.4,12.8,58.4h-2l4.5,22H1858l4.3,22h-28.5l4-22Z"/><path class="cls-9" d="M1847,396.9l-7.7,59.1h-5.2ZM1836.7,456h5.6l-2.2,22h4.1l-4.1,22h-7.6l4-22h-4Z"/><path class="cls-7" d="M403.9,491,400,469h2.5l-11.7-58.4L377.9,469h2l-4.4,22h4.3l-4.3,22h28.4l-4-22Z"/><path class="cls-9" d="M390.8,409.9l7.7,59.1h5.2ZM401.1,469h-5.7l2.3,22h-4.1l4.1,22h7.6l-4.1-22h4.1Z"/><path class="cls-7" d="M1936,533a50.0182,50.0182,0,0,0,50,50V483A50.0181,50.0181,0,0,0,1936,533Z"/><path class="cls-7" d="M39.9,491,36,469h2.5L26.8,410.6,13.9,469h2l-4.4,22h4.3l-4.3,22H39.9l-4-22Z"/><path class="cls-9" d="M26.8,409.9,34.5,469h5.2ZM37.1,469H31.4l2.3,22H29.6l4.1,22h7.6l-4.1-22h4.1Z"/><path class="cls-8" d="M1986,524.3,1864.6,496a160.2522,160.2522,0,0,0-71.6,0l-100.9,23.4a192.934,192.934,0,0,1-64.4,3.7L1409,498.7a251.4573,251.4573,0,0,0-56.2,0l-60.8,7a335.0345,335.0345,0,0,1-78.8-.6,1.2686,1.2686,0,0,1-.6-.1,145.5367,145.5367,0,0,0-90.7,19.5l-135,79.9a133.1881,133.1881,0,0,1-69.3,18.8h-2.3a135.67,135.67,0,0,1-50.6-11L614.4,504a145.2132,145.2132,0,0,0-55.5-12,325.8363,325.8363,0,0,0-44.6,2.2l-83.1,10.1c-12.5,1.5-25.3,2.5-37.9,3a424.0586,424.0586,0,0,1-58.6-1.5c-25.4-2.4-101.2-11.6-101.2-11.6a334.8056,334.8056,0,0,0-77.5,0L72.9,504.3c-12.5,1.5-25.3,2.5-37.9,3a468.9283,468.9283,0,0,1-48.9-.7V729h2000V524.3Z"/><path class="cls-10" d="M250,538.4c-.1-.2-.2-.3-.4-.2a4.9515,4.9515,0,0,0-1.3.4,17.192,17.192,0,0,0-8.4,6.1c-.3.4-1,.1-.8-.4a19.7652,19.7652,0,0,1,8.6-11.5c.2-.1.2-.3.1-.5s-.3-.2-.5-.2c-.6.2-1,.5-1.5.7A20.2354,20.2354,0,0,0,235,552h5a15.9946,15.9946,0,0,1,9.8-13.1C250,538.8,250,538.6,250,538.4Zm311-28.3c0-.1-.2-.2-.3-.2a2.9176,2.9176,0,0,1-.9.2,10.8089,10.8089,0,0,0-5.6,4,.34.34,0,0,1-.6-.3,12.9791,12.9791,0,0,1,5.7-7.5.3672.3672,0,0,0,.1-.3c-.1-.1-.2-.2-.3-.1a6.8868,6.8868,0,0,1-1,.4,13.18,13.18,0,0,0-7.2,12.5h3.3a10.571,10.571,0,0,1,6.5-8.6c.3.2.3.1.3-.1Z"/><ellipse class="cls-9" cx="451" cy="564.0004" rx="5" ry="2"/><ellipse class="cls-9" cx="24" cy="552.0004" rx="5" ry="2"/><ellipse class="cls-9" cx="228" cy="621.0004" rx="5" ry="2"/><ellipse class="cls-10" cx="244" cy="599.0004" rx="5" ry="2"/><ellipse class="cls-10" cx="348" cy="556.0004" rx="5" ry="2"/><ellipse class="cls-10" cx="596" cy="548.0004" rx="5" ry="2"/><ellipse class="cls-10" cx="100" cy="563.0004" rx="5" ry="2"/><ellipse class="cls-10" cx="1310" cy="546.5004" rx="4" ry="1.5"/><ellipse class="cls-10" cx="1032" cy="614.5004" rx="4" ry="1.5"/><ellipse class="cls-10" cx="1426" cy="557.5004" rx="4" ry="1.5"/><ellipse class="cls-10" cx="1189" cy="588.5004" rx="4" ry="1.5"/><ellipse class="cls-10" cx="1694" cy="551.5004" rx="4" ry="1.5"/><ellipse class="cls-10" cx="1643" cy="606.5004" rx="4" ry="1.5"/><ellipse class="cls-10" cx="1507" cy="520.5004" rx="4" ry="1.5"/><ellipse class="cls-10" cx="1815" cy="578.5004" rx="4" ry="1.5"/><ellipse class="cls-10" cx="1587" cy="566.5004" rx="4" ry="1.5"/><ellipse class="cls-10" cx="1905" cy="618.5004" rx="4" ry="1.5"/><ellipse class="cls-10" cx="1070" cy="546.5004" rx="4" ry="1.5"/><ellipse class="cls-10" cx="1023" cy="523.5004" rx="4" ry="1.5"/><ellipse class="cls-10" cx="1079" cy="569.5004" rx="3" ry="1.5"/><ellipse class="cls-10" cx="596" cy="591.5004" rx="3" ry="1.5"/><ellipse class="cls-10" cx="292" cy="557.5004" rx="3" ry="1.5"/><ellipse class="cls-10" cx="88" cy="602.5004" rx="3" ry="1.5"/><ellipse class="cls-9" cx="1125" cy="573.0004" rx="2" ry="1"/><ellipse class="cls-9" cx="1224" cy="595.0004" rx="2" ry="1"/><ellipse class="cls-8" cx="1025" cy="554.0004" rx="2" ry="1"/><ellipse class="cls-8" cx="1053" cy="550.0004" rx="2" ry="1"/><ellipse class="cls-8" cx="1402" cy="490.0004" rx="2" ry="1"/><ellipse class="cls-8" cx="1461" cy="475.0004" rx="2" ry="1"/><ellipse class="cls-8" cx="1447" cy="444.0004" rx="2" ry="1"/><ellipse class="cls-8" cx="1418" cy="486.0004" rx="2" ry="1"/><ellipse class="cls-8" cx="1815" cy="475.0004" rx="2" ry="1"/><ellipse class="cls-8" cx="1894" cy="486.0004" rx="2" ry="1"/><ellipse class="cls-8" cx="1615" cy="503.0004" rx="2" ry="1"/><ellipse class="cls-8" cx="1455" cy="488.0004" rx="2" ry="1"/><ellipse class="cls-8" cx="1486" cy="466.0004" rx="2" ry="1"/><ellipse class="cls-8" cx="1528" cy="467.0004" rx="2" ry="1"/><ellipse class="cls-8" cx="978" cy="590.0004" rx="2" ry="1"/><ellipse class="cls-8" cx="901" cy="582.0004" rx="2" ry="1"/><ellipse class="cls-8" cx="828" cy="544.0004" rx="2" ry="1"/><ellipse class="cls-8" cx="673" cy="493.0004" rx="2" ry="1"/><ellipse class="cls-8" cx="432" cy="491.0004" rx="2" ry="1"/><ellipse class="cls-8" cx="414" cy="497.0004" rx="2" ry="1"/><ellipse class="cls-8" cx="366" cy="488.0004" rx="2" ry="1"/><ellipse class="cls-8" cx="292" cy="493.0004" rx="2" ry="1"/><ellipse class="cls-8" cx="226" cy="474.0004" rx="2" ry="1"/><ellipse class="cls-8" cx="72" cy="491.0004" rx="2" ry="1"/><ellipse class="cls-8" cx="676" cy="514.0004" rx="2" ry="1"/><ellipse class="cls-8" cx="714" cy="497.0004" rx="2" ry="1"/><ellipse class="cls-8" cx="869" cy="596.0004" rx="2" ry="1"/><ellipse class="cls-8" cx="956" cy="519.0004" rx="2" ry="1"/><ellipse class="cls-8" cx="1009" cy="540.0004" rx="2" ry="1"/><ellipse class="cls-8" cx="810" cy="530.0004" rx="2" ry="1"/><ellipse class="cls-8" cx="914" cy="520.0004" rx="2" ry="1"/><ellipse class="cls-8" cx="754" cy="521.0004" rx="2" ry="1"/><ellipse class="cls-8" cx="1117" cy="513.0004" rx="2" ry="1"/><ellipse class="cls-8" cx="789" cy="512.0004" rx="2" ry="1"/><ellipse class="cls-8" cx="853" cy="507.0004" rx="2" ry="1"/><ellipse class="cls-8" cx="616" cy="479.0004" rx="2" ry="1"/><ellipse class="cls-8" cx="530" cy="471.0004" rx="2" ry="1"/><ellipse class="cls-8" cx="1135" cy="494.0004" rx="2" ry="1"/><ellipse class="cls-8" cx="1284" cy="488.0004" rx="2" ry="1"/><ellipse class="cls-8" cx="950" cy="569.0004" rx="2" ry="1"/><ellipse class="cls-8" cx="1044" cy="509.0004" rx="2" ry="1"/><ellipse class="cls-8" cx="1099" cy="498.0004" rx="2" ry="1"/><ellipse class="cls-9" cx="457" cy="525.0004" rx="2" ry="1"/><ellipse class="cls-9" cx="307" cy="615.0004" rx="2" ry="1"/><ellipse class="cls-9" cx="243" cy="579.0004" rx="2" ry="1"/><ellipse class="cls-9" cx="23" cy="523.0004" rx="2" ry="1"/><ellipse class="cls-9" cx="129" cy="551.0004" rx="2" ry="1"/><ellipse class="cls-9" cx="372" cy="528.0004" rx="2" ry="1"/><ellipse class="cls-9" cx="381" cy="550.0004" rx="2" ry="1"/><ellipse class="cls-9" cx="621" cy="526.0004" rx="2" ry="1"/><ellipse class="cls-9" cx="68" cy="525.0004" rx="2" ry="1"/><ellipse class="cls-9" cx="196" cy="535.0004" rx="2" ry="1"/><ellipse class="cls-9" cx="73" cy="619.0004" rx="2" ry="1"/><ellipse class="cls-9" cx="27" cy="574.0004" rx="2" ry="1"/><ellipse class="cls-9" cx="9" cy="595.0004" rx="2" ry="1"/><ellipse class="cls-9" cx="570" cy="560.0004" rx="2" ry="1"/><ellipse class="cls-9" cx="1" cy="535.0004" rx="2" ry="1"/><ellipse class="cls-10" cx="1290" cy="525.0004" rx="2" ry="1"/><ellipse class="cls-10" cx="1405" cy="514.0004" rx="2" ry="1"/><ellipse class="cls-10" cx="1170" cy="532.0004" rx="2" ry="1"/><ellipse class="cls-10" cx="422" cy="540.0004" rx="2" ry="1"/><ellipse class="cls-10" cx="194" cy="509.0004" rx="2" ry="1"/><ellipse class="cls-10" cx="51" cy="557.0004" rx="2" ry="1"/><ellipse class="cls-10" cx="106" cy="522.0004" rx="2" ry="1"/><ellipse class="cls-10" cx="163" cy="537.0004" rx="2" ry="1"/><ellipse class="cls-10" cx="279" cy="521.0004" rx="2" ry="1"/><ellipse class="cls-10" cx="135" cy="507.0004" rx="2" ry="1"/><ellipse class="cls-10" cx="398" cy="526.0004" rx="2" ry="1"/><ellipse class="cls-10" cx="264" cy="564.0004" rx="2" ry="1"/><ellipse class="cls-10" cx="508" cy="572.0004" rx="2" ry="1"/><ellipse class="cls-9" cx="321" cy="515.0004" rx="2" ry="1"/><ellipse class="cls-9" cx="487" cy="588.0004" rx="2" ry="1"/><ellipse class="cls-10" cx="436" cy="518.0004" rx="2" ry="1"/><ellipse class="cls-10" cx="556" cy="547.0004" rx="2" ry="1"/><ellipse class="cls-10" cx="539" cy="506.0004" rx="2" ry="1"/><ellipse class="cls-9" cx="1265" cy="546.5004" rx="3" ry="1.5"/><ellipse class="cls-9" cx="1068" cy="610.5004" rx="3" ry="1.5"/><ellipse class="cls-9" cx="1387" cy="533.5004" rx="3" ry="1.5"/><ellipse class="cls-9" cx="1467" cy="516.5004" rx="3" ry="1.5"/><ellipse class="cls-9" cx="1367" cy="594.5004" rx="3" ry="1.5"/><path class="cls-5" d="M843,523.3l73.1-19c1.7,0,12.1-.3,13.8-.3l-50.5,15.5a3.9174,3.9174,0,0,0-2.6,4.1,4.0364,4.0364,0,0,0,3.3,3.6L981.9,544a3.5638,3.5638,0,0,1,.2,7L774.3,593.6V561.9L889,547.7a4.0064,4.0064,0,0,0,.3-7.9l-46.1-9.3a3.7162,3.7162,0,0,1-.2-7.2Z"/><ellipse class="cls-9" cx="1188" cy="546.5004" rx="3" ry="1.5"/><ellipse class="cls-9" cx="1506" cy="540.5004" rx="3" ry="1.5"/><ellipse class="cls-9" cx="1701" cy="581.5004" rx="3" ry="1.5"/><ellipse class="cls-9" cx="1528" cy="576.5004" rx="3" ry="1.5"/><ellipse class="cls-9" cx="1853" cy="609.5004" rx="3" ry="1.5"/><circle class="cls-9" cx="828" cy="663.0004" r="35"/><circle class="cls-9" cx="779" cy="652.0004" r="35"/><ellipse class="cls-9" cx="1812" cy="514.5004" rx="3" ry="1.5"/><ellipse class="cls-9" cx="1714" cy="623.5004" rx="3" ry="1.5"/><path class="cls-9" d="M911.7,650.3c-22.6,0-42.5,11.3-52.9,30.7H964.7C954.1,661.6,934.3,650.3,911.7,650.3Z"/><ellipse class="cls-9" cx="1752" cy="519.5004" rx="3" ry="1.5"/><path class="cls-9" d="M913.6,660.4A29.99,29.99,0,0,0,892,635.9a29.471,29.471,0,0,0-16.4.2,15.8226,15.8226,0,0,0-12.6-6.2,16.896,16.896,0,0,0-6.3,1.3,35.1541,35.1541,0,0,0-26.8-19.9v-.4a34.998,34.998,0,0,0-28.6-34.4,68.2959,68.2959,0,0,0-4.8-17.6H652.7a32.5991,32.5991,0,0,0-.7,7,34.9113,34.9113,0,0,0,15.7,29.2,67.4785,67.4785,0,0,0,66.8,57.8,70.2221,70.2221,0,0,0,14.6-1.6,29.4329,29.4329,0,0,0-6.3,8.1,29.8082,29.8082,0,0,0,1.4,30.5H899.8a29.439,29.439,0,0,0,13.8-29.5Z"/><path class="cls-7" d="M639.7,633a60,60,0,0,0-120,0Zm261.9,41.4A29.99,29.99,0,0,0,880,649.9a29.5871,29.5871,0,0,0-31,10h-1a34.9326,34.9326,0,0,0-30-34.6v-.4a34.9981,34.9981,0,0,0-28.6-34.4,65.3521,65.3521,0,0,0-4.9-17.7,18.1652,18.1652,0,0,0-16.6-10.9H658.2A18.12,18.12,0,0,0,640,579.7v.2a34.9113,34.9113,0,0,0,15.7,29.2,67.4785,67.4785,0,0,0,66.8,57.8,70.2153,70.2153,0,0,0,14.6-1.6,29.4358,29.4358,0,0,0-6.3,8.1,29.8082,29.8082,0,0,0,1.4,30.5H887.8A29.4389,29.4389,0,0,0,901.6,674.4Z"/><path class="cls-9" d="M700.7,610a60,60,0,0,0-120,0Z"/><path class="cls-6" d="M491,494l26-13H491Zm3,75,36-23H494Zm13,58,36-23H507Z"/><path class="cls-6" d="M715.5056,640.54v-27l-25.8-4.4v65.4h36.8l-.18-23.4045A10.48,10.48,0,0,1,715.51,641.0018Q715.5029,640.771,715.5056,640.54Z"/><ellipse class="cls-9" cx="1315" cy="576.5004" rx="3" ry="1.5"/><ellipse class="cls-9" cx="1141" cy="539.5004" rx="3" ry="1.5"/><ellipse class="cls-9" cx="1039" cy="590.5004" rx="3" ry="1.5"/><ellipse class="cls-9" cx="1758" cy="591.5004" rx="3" ry="1.5"/><path class="cls-9" d="M681.5,574.7a19.965,19.965,0,1,0-19.9-20.03q0,.0649,0,.13a19.7613,19.7613,0,0,0,19.6216,19.9Q681.3608,574.701,681.5,574.7Z"/><path class="cls-10" d="M1461.1,551a3.1728,3.1728,0,0,1-2.8-1.9,18.5632,18.5632,0,0,0-10.1-10.3.3651.3651,0,0,1-.2126-.4707L1448,538.3a.55.55,0,0,1,.5-.3c.6.1,1.1.3,1.6.4a19.979,19.979,0,0,1,11.7,10,23.52,23.52,0,0,0-10.9-16.9.4808.4808,0,0,1-.2-.6.3652.3652,0,0,1,.4707-.2126l.0293.0126c.7.3,1.2.5,1.8.8a24.32,24.32,0,0,1,12.7,17.2,1.9731,1.9731,0,0,1-2,2.3Zm337.7-11a1.9555,1.9555,0,0,1-1.9-1.3,12.5307,12.5307,0,0,0-7-7.1.52.52,0,0,1-.2-.4c0-.1.2-.2.3-.2.4.1.7.2,1.1.3a13.5126,13.5126,0,0,1,8,6.8,16.1617,16.1617,0,0,0-7.5-11.6c-.1-.1-.2-.2-.1-.4.1-.1.2-.2.4-.1a6.6522,6.6522,0,0,1,1.2.6,17.0987,17.0987,0,0,1,8.8,11.8,1.3647,1.3647,0,0,1-1.4,1.6h-1.7Zm-159.3,47a3.1726,3.1726,0,0,0,2.8-1.9,18.5637,18.5637,0,0,1,10.1-10.3.3652.3652,0,0,0,.2125-.4707L1652.6,574.3a.55.55,0,0,0-.5-.3c-.6.1-1.1.3-1.6.4a19.98,19.98,0,0,0-11.7,10,23.5208,23.5208,0,0,1,10.9-16.9.4809.4809,0,0,0,.2-.6.3653.3653,0,0,0-.4709-.2124l-.0291.0124c-.7.3-1.2.5-1.8.8a24.32,24.32,0,0,0-12.7,17.2,1.9731,1.9731,0,0,0,2,2.3Zm319-10a3.1726,3.1726,0,0,0,2.8-1.9,18.5637,18.5637,0,0,1,10.1-10.3.3652.3652,0,0,0,.2125-.4707L1971.6,564.3a.55.55,0,0,0-.5-.3c-.6.1-1.1.3-1.6.4a19.98,19.98,0,0,0-11.7,10,23.5208,23.5208,0,0,1,10.9-16.9.4809.4809,0,0,0,.2-.6.3653.3653,0,0,0-.4709-.2124l-.0291.0124c-.7.3-1.2.5-1.8.8a24.32,24.32,0,0,0-12.7,17.2,1.9731,1.9731,0,0,0,2,2.3Z"/><ellipse class="cls-8" cx="1428" cy="508.5004" rx="3" ry="1.5"/><path class="cls-7" d="M732.4,535.4l1.2-10.4-.1.1a17.1026,17.1026,0,0,0-6.6,13.6V543h6l12-12c-4.9,0-9.3,1.2-12.5,4.4Z"/><path class="cls-13" d="M778,626.1,806,543l-28,17Z"/><path class="cls-12" d="M784,560H687.5v80h85.7L784,608.7Z"/><path class="cls-13" d="M778,560H687.5v81H773l5-14.9Z"/><path class="cls-12" d="M773,560H669V698h84.8L773,641Z"/><path class="cls-10" d="M683.4,543c-2.9,0-6.9.7-8.8,2.8l-6.6,7.6c-2,2-6,4.6-8.8,4.6H631.9a23.9828,23.9828,0,0,0-17,7l-11.3,11.3a16.0588,16.0588,0,0,1-11.3,4.7H579.1a15.7573,15.7573,0,0,0-13.8,8L502,698H651L806,543Z"/><path class="cls-3" d="M648,368v-3a.9448.9448,0,0,0-1-1h-3a.9448.9448,0,0,0-1,1v3a.9448.9448,0,0,0,1,1h3a.9448.9448,0,0,0,1-1Z"/><path class="cls-7" d="M628.3,543.2c.7.2,1.2.3,1.8.5A22.5954,22.5954,0,0,1,643.4,555a26.25,26.25,0,0,0-12.5-19.1l.4-.9a19.4742,19.4742,0,0,1,2,.9A28.004,28.004,0,0,1,647,551.7a18.9,18.9,0,0,1,1,6.3h-8.5a9.1228,9.1228,0,0,0-1.3-4.8,20.8571,20.8571,0,0,0-10.3-9.1l.4-.9Z"/><path class="cls-9" d="M1038.7,650.6c-22.6,0-42.5,11.3-52.9,30.7h105.9C1081.1,661.9,1061.3,650.6,1038.7,650.6Z"/><path class="cls-9" d="M1252.9,634.8c-.8,0-1.4-.5-2.2-.5a59.1207,59.1207,0,0,0-96.4-1.6,38.4046,38.4046,0,0,0-13.8-2.6,37.5537,37.5537,0,0,0-14.8,2.9,39.6055,39.6055,0,0,0-66.1,29.6v7.7h237.1c-3.8-21.5-22-35.5-43.8-35.5Zm464.6,22.8c-.8,0-1.4-.5-2.2-.5a59.3969,59.3969,0,0,0-48.6-25.7,58.8011,58.8011,0,0,0-47.8,24.2,38.4025,38.4025,0,0,0-13.8-2.6,37.5576,37.5576,0,0,0-14.8,2.9,39.6054,39.6054,0,0,0-66.1,29.6v7.7h237.1c-3.8-21.6-22-35.6-43.8-35.6Z"/><path class="cls-9" d="M-2.3,662.9h.5c6.9-9.6,19.3-15.6,33.5-15.6,14.9,0,27.8,6,34.5,17.5a52.05,52.05,0,0,1,36.4-3.5c7.5-19.3,27.2-32.8,50.2-32.8a53.7011,53.7011,0,0,1,50.8,35.7c5.5-2.7,11.7-2.7,18.3-2.7,15.6,0,29.2,4.3,35.4,19h-132v10.3h159c-5.5-29.5-30.3-48.7-60.1-48.7-1,0-1.9-.7-3-.7a80.943,80.943,0,0,0-132-2,52.7881,52.7881,0,0,0-18.9-3.5,50.2372,50.2372,0,0,0-20.2,4A53.6248,53.6248,0,0,0-14.1,634v31A33.3286,33.3286,0,0,1-2.3,662.9Z"/><path class="cls-7" d="M125.3,680.6H257.2c-6.2-14.8-19.8-19-35.4-19-6.6,0-12.8,0-18.3,2.7a53.6057,53.6057,0,0,0-50.8-35.7c-23,0-42.7,13.4-50.2,32.8a52.6025,52.6025,0,0,0-36.4,3.5c-6.7-11.5-19.6-17.5-34.5-17.5C17.4,647.4,5,653.5-1.9,663h-.5a34.6334,34.6334,0,0,0-11.7,2v26H125.2V680.6Z"/><path class="cls-9" d="M1320.2,635.3c-22.6,0-42.5,11.3-52.9,30.7h105.9C1362.7,646.6,1342.8,635.3,1320.2,635.3ZM1024.7,697a60,60,0,0,0-120,0Z"/><path class="cls-7" d="M917.2,662a63.525,63.525,0,0,0-58.6,39H975.8A63.5246,63.5246,0,0,0,917.2,662Zm148.7,8.9A39.4479,39.4479,0,0,0,998.7,695h78.5a39.0854,39.0854,0,0,0-11.3-24.1Z"/><path class="cls-7" d="M801.4,687.1a17.3054,17.3054,0,0,1,12.5,5.2,41.6889,41.6889,0,0,1,18.4-4.2c8.6,0,68.5,2.6,75.2,7a17.539,17.539,0,0,1,14.8-8,18.21,18.21,0,0,1,10.1,3.1,42.9723,42.9723,0,0,1,83.6,13H783.7A17.7246,17.7246,0,0,1,801.4,687.1ZM391.6,623.8a19.6984,19.6984,0,0,1,14.2,2.1L401.4,615a19.4927,19.4927,0,0,1,10.1,9.1c2.2-4,5.6-6.6,10.1-8.4l-7,17.7h-9.9Z"/><path class="cls-9" d="M757.5,671.4a16.6851,16.6851,0,1,0-6.3-1.27,16.8207,16.8207,0,0,0,6.3,1.27Zm251.3-32.6a19.699,19.699,0,0,0-14.2,2.1l4.5-10.9a19.4915,19.4915,0,0,0-10.1,9.1c-2.2-4-5.6-6.6-10.1-8.4l7,17.7h9.9l13-9.6ZM435.7,624a60.0475,60.0475,0,0,0-60,60h120A60.0475,60.0475,0,0,0,435.7,624Z"/><path class="cls-7" d="M441.7,637a60.0475,60.0475,0,0,0-60,60h120A60.0475,60.0475,0,0,0,441.7,637Z"/><path class="cls-6" d="M1355.7,658.2a18.4823,18.4823,0,0,0-13.4,1.9l4.1-10.2a18.9866,18.9866,0,0,0-9.5,8.4c-1.9-3.8-5.3-6-9.5-7.8l6.6,16.6h9.3Z"/><path class="cls-9" d="M1560.6,648.7c-5.5,0-10.7,0-15.2,2.4-5.8-17.8-22.4-31.3-42.1-31.3a44.3988,44.3988,0,0,0-38.8,22.4,25.9562,25.9562,0,0,0-16.9-6.6,25.5747,25.5747,0,0,0-20.4,10.2c-5.9-6.5-14.7-8.6-24.5-8.6-17.1,0-31.2,8.2-32.4,27.6h219.8c-5.2-11.7-16.4-16.1-29.5-16.1ZM1698.3,666l59.4,15,160.4-15c-1.3-19.4-15.3-27.6-32.4-27.6-9.8,0-18.6,2.2-24.5,8.6a24.8828,24.8828,0,0,0-20.4-10.2,25.5579,25.5579,0,0,0-16.9,6.6,44.1949,44.1949,0,0,0-38.8-22.4c-19.7,0-36.3,13.5-42.2,31.3-4.5-2.4-9.7-2.4-15.2-2.4-13-.1-24.3,4.3-29.4,16.1Z"/><path class="cls-6" d="M780.5,652.2l4.5-11c-4.6,1.9-9.5,6.9-11.1,11.2l-2,6.5h9.7l13.4-9.1a20.4979,20.4979,0,0,0-14.5,2.4Z"/><path class="cls-7" d="M1526.5,714.9h118.6l12.6-22.9,84.1-8.3c-4.5-10.8-14.5-13.8-25.9-13.8-4.9,0-9.4,0-13.4,1.9a39.2765,39.2765,0,0,0-37.1-26.1c-16.8,0-31.2,9.8-36.7,23.9a37.6479,37.6479,0,0,0-26.6,2.6c-4.8-8.4-14.2-12.8-25.1-12.8-10.3,0-19.4,4.4-24.5,11.4h-.4a25.7787,25.7787,0,0,0-25.7018,25.8555q0,.1223.0018.2445v18h.1Z"/><path class="cls-6" d="M1107.6,685.4a17.1372,17.1372,0,0,1,10.1-14,.9593.9593,0,0,0,.2-.9c-.1-.2-.2-.5-.4-.4a5.762,5.762,0,0,0-1.4.3A16.9176,16.9176,0,0,0,1106,679a20.0777,20.0777,0,0,1,9.5-14.7c.2-.1.2-.3.1-.5a.3993.3993,0,0,0-.4-.2c-.5.2-1.1,1.3-1.5,1.5-7.2,3.7-11.8,10.6-11.5,20.3Z"/><path class="cls-9" d="M658.2,644.3c-.8,0-1.4-.1-2.2-.1a59.174,59.174,0,0,0-96.4-1.1,38.7246,38.7246,0,0,0-28.6.3A39.83,39.83,0,0,0,464.6,673v6H702C698,658.5,679.9,644.3,658.2,644.3Z"/><path class="cls-7" d="M465.7,703.8H585.4V670.4h96.9c-4.5-7.6-14.5-12.4-25.9-12.4a29.7826,29.7826,0,0,0-13.4,2.7c-5.1-14.9-19.7-25.8-37.1-25.8-16.8,0-31.2,10-36.7,24.2a38.0638,38.0638,0,0,0-9.5-1.2,38.9293,38.9293,0,0,0-17.1,3.9c-4.8-8.4-14.2-12.7-25.1-12.7-10.3,0-19.4,4.4-24.5,11.4h-1a26.29,26.29,0,0,0-26.3,26.1v17.2Z"/><path class="cls-6" d="M638,658.7a18.45,18.45,0,0,1,14.3,2.1L647.9,649a20.0723,20.0723,0,0,1,10,9.7c2.1-4.3,5.6-6.9,10.1-8.9L661,669h-9.9Z"/><path class="cls-9" d="M633.5,589.1a12.6831,12.6831,0,0,0-9.5,1.4l2.9-7.9a13.87,13.87,0,0,0-6.7,6.4,12.5742,12.5742,0,0,0-6.7-5.9l3.9,10.8a3.0082,3.0082,0,0,0,2.8,2h3.4a3.2934,3.2934,0,0,0,1.9-.6l8-6.2Z"/><path class="cls-7" d="M1516.2,693.7a26,26,0,1,0-26-26h0a25.9481,25.9481,0,0,0,25.8962,26Z"/><path class="cls-7" d="M1499.4,682.7a26,26,0,1,0-26-26h0a25.9482,25.9482,0,0,0,25.8963,26Z"/><path class="cls-12" d="M1426.7,700.3a25.9482,25.9482,0,1,0-.1038,0Z"/><path class="cls-6" d="M1863,636.9l13.4,9.1h9.7l-1.9-6.5c-1.6-4.3-6.5-9.3-11.1-11.2l4.5,11a20.6785,20.6785,0,0,0-14.6-2.4ZM197,645.1a19.2469,19.2469,0,0,1,14.3,2l-4.4-11.3a20.3066,20.3066,0,0,1,10.1,9.3c2.2-4.1,5.6-6.6,10.1-8.5l-7,18.4h-9.9Z"/><circle class="cls-14" cx="931" cy="293.0004" r="40"/><circle class="cls-15" cx="931" cy="293.0004" r="33"/><path class="cls-3" d="M967,330.8l-13.5-.9a13.3647,13.3647,0,0,0-11.4-6.6,15.7677,15.7677,0,0,0-4.2.6,23.0318,23.0318,0,0,0-11.8-11.8,22.1717,22.1717,0,0,0-9.3-2,23.327,23.327,0,0,0-16.7,7.1,14.211,14.211,0,0,0-2.5-2.4,14.9886,14.9886,0,0,0-23.2,7.2,17.8173,17.8173,0,0,0-10.2-3.1,18.275,18.275,0,0,0-16.8,11l-13.2.9a1.1028,1.1028,0,0,0-.0209,2.2055A1.0819,1.0819,0,0,0,834.3,333H967a1.1017,1.1017,0,1,0,.1216-2.2A1.121,1.121,0,0,0,967,330.8Z"/><path class="cls-3" d="M324.4,145.2l21.6-1.6a27.54,27.54,0,0,1,26.4-19.7,27.057,27.057,0,0,1,20.8,9.6,16.4871,16.4871,0,0,1,19.1.3,35.93,35.93,0,0,1,68.1-1.8,25.03,25.03,0,0,1,8.8-1.6,19.7922,19.7922,0,0,1,18.6,13.3l17.8,1.4c4.3.2,4.2,3.8-.3,3.8H324.7c-4.4.1-4.6-3.5-.3-3.7Zm1487.3,60-21.6-1.6a27.54,27.54,0,0,0-26.4-19.7,27.0572,27.0572,0,0,0-20.8,9.6,16.4872,16.4872,0,0,0-19.1.3,35.93,35.93,0,0,0-68.1-1.8,25.0308,25.0308,0,0,0-8.8-1.6,19.7925,19.7925,0,0,0-18.6,13.3l-17.8,1.4c-4.3.2-4.2,3.8.3,3.8h200.7c4.3.1,4.5-3.5.2-3.7ZM657.8,265.9l16.6-.9a17.3691,17.3691,0,0,1,16-10.6,17.1309,17.1309,0,0,1,9.7,3,17.3747,17.3747,0,0,1,34-4.1,28.4219,28.4219,0,0,1,6.6-.7,28.9418,28.9418,0,0,1,23.8,12.5l15.2.8c2.4.1,2.3,2.5-.2,3.1H657.9c-2.4-.6-2.5-3-.1-3.1Z"/><path class="cls-6" d="M1407.1,201.2a12.5426,12.5426,0,0,1,8.4,3.6,8.01,8.01,0,0,1,2.4,3.4h-3.8Z"/><path class="cls-6" d="M1416,205.4h10.1s-2.3,3.4-4.2,3.4c1.7,2,2.1,4.2,2.2,6.7l-6.6-6.7h-8.9A10.6778,10.6778,0,0,1,1416,205.4Zm33.3,15.8h9l-1.8,1.8a2.3331,2.3331,0,0,1-2.4.6l.1.1a11.0661,11.0661,0,0,1,3.2,7.5l-6.6-6.7h-8.9a10.6138,10.6138,0,0,1,7.4-3.3Z"/><path class="cls-6" d="M1451.5,224v.2l-7,7.1a11.9768,11.9768,0,0,1,2.6-7.2h4.4Zm7.8-17h9l-1.8-1.6a2.3331,2.3331,0,0,0-2.4-.6l.1-.1a11.0661,11.0661,0,0,0,3.2-7.5l-6.6,6.8h-8.9a9.95,9.95,0,0,0,7.4,3Z"/><path class="cls-6" d="M1461.5,204.4v-.2l-7-7.1a11.9768,11.9768,0,0,0,2.6,7.2h4.4Z"/><path class="cls-3" d="M50.9,224.6l22.9-1.5a28.0089,28.0089,0,0,1,46.5-6.3,16.9455,16.9455,0,0,1,18.5-.3,36.7727,36.7727,0,0,1,71.5-1.6,31.0421,31.0421,0,0,1,1.1,8.1l22.2,1.6a2.2028,2.2028,0,0,1-.1033,4.4044c-.0323-.0008-.0645-.0022-.0967-.0044H51a2.2006,2.2006,0,1,1-.1248-4.3994Zm1066.7-7.2,18.7-1a20.964,20.964,0,0,1,20.8-18.3,18.9022,18.9022,0,0,1,6.3,1,19.8908,19.8908,0,0,1,18.7-13,20.59,20.59,0,0,1,9.5,2.4,26.2887,26.2887,0,0,1,19.1-8.4,25.9391,25.9391,0,0,1,25.9,24.7,26.2456,26.2456,0,0,1,14.6-4.5,25.8257,25.8257,0,0,1,23.9,15.8l24.9,1.3c3.6.1,3.5,3.8-.1,4.6h-182c-3.7-.8-4-4.5-.3-4.6Z"/><path class="cls-4" d="M1244.6,559H1226v7.1l2.9,2.9H1249l2.8-2.8Z"/><path class="cls-9" d="M1202.6,559l-5.6,4v3.2a5.5975,5.5975,0,0,0,1.8,4.2l2.7,2.7a6.174,6.174,0,0,0,4.2,1.8h14.7a5.5979,5.5979,0,0,1,4.2,1.8l2.5,2.5a6.1737,6.1737,0,0,0,4.2,1.8h21.2a5.9777,5.9777,0,0,0,4.3-1.8l2.4-2.4a5.8944,5.8944,0,0,0,1.7-4.2v-2a5.8942,5.8942,0,0,0-1.7-4.2l-7.3-7.3h-49.3V559Z"/><path class="cls-4" d="M1253,555.6l-8-8V534h-13.8l-14,16h-5.9l-13.8,13.5,2.5,2.5h53Z"/><path class="cls-5" d="M1217.2,554H1212l-12,12-3-3,15-15h5.2l14-14H1245v6h-13.8Zm27.8-7.6,8,7.9v6.5l-8-8Z"/><path class="cls-16" d="M1241,557v-6h-5l-15,15h29Z"/><path class="cls-5" d="M707,580h11v-4h6.9l6.1,4v10H697Z"/><path class="cls-3" d="M724.6,576H718v-3h10l6,6v6l5,5h-8v-8.1Z"/><path class="cls-4" d="M711,590h14l-6-6h-8Z"/><path class="cls-8" d="M696,591l1-1h42l-4.5,4.5a8.3929,8.3929,0,0,1-6,2.5h-1.2a7.787,7.787,0,0,0-5.7,2.4,5.5076,5.5076,0,0,1-4,1.6H709a4.0119,4.0119,0,0,1-4-4h-6.5a3.53,3.53,0,0,1-2.5-6Z"/><path class="cls-5" d="M746,503l3-3h15l7,7h-8l-4-4Z"/><path class="cls-4" d="M746,503h13l4,4H746Z"/><path class="cls-8" d="M744.5,510h18.9a7.9466,7.9466,0,0,0,4.2-1.1l3.2-1.9h-25l-2.4,1.5C742.5,509,743.2,510,744.5,510Z"/><path class="cls-5" d="M1513,589l-3-3h-15l-7,7h8l4-4Z"/><path class="cls-4" d="M1513,589h-13l-4,4h17Z"/><path class="cls-9" d="M1514.5,596h-18.9a7.9469,7.9469,0,0,1-4.2-1.1l-3.2-1.9h25l2.4,1.5c.9.5.2,1.5-1.1,1.5Z"/><path class="cls-5" d="M1058,531l-3-3h-15l-7,7h8l4-4Z"/><path class="cls-4" d="M1058,531h-13l-4,4h17Z"/><path class="cls-8" d="M1059.5,538h-18.9a7.9469,7.9469,0,0,1-4.2-1.1l-3.2-1.9h25l2.4,1.5c.9.5.2,1.5-1.1,1.5Z"/><path class="cls-5" d="M215,515l3-3h15l7,7h-8l-4-4Z"/><path class="cls-4" d="M215,515h13l4,4H215Z"/><path class="cls-9" d="M213.5,522h18.9a7.9459,7.9459,0,0,0,4.2-1.1l3.2-1.9h-25l-2.4,1.5C211.5,521,212.2,522,213.5,522Z"/><path class="cls-9" d="M1665.2,532l9.3,9.3a6.8544,6.8544,0,0,1-4.9,11.7h-42.4a12.1148,12.1148,0,0,1-8.5-3.5l-1.9-1.9a11.8686,11.8686,0,0,0-8.5-3.5h-8.2a6.9657,6.9657,0,0,1-4.9-2l-7.2-7.2V532Z"/><path class="cls-5" d="M1665,532.7,1650.6,518h-30.7L1607,531v3h-19v-9h10.2l11.1-11h47.2l18.5,18.7V542h-10Z"/><path class="cls-4" d="M1647,533v-8h-9.4l-11,11h-8a11.7945,11.7945,0,0,0-7.7-2h-3.8v-3.3l12.6-12.7h31l14.4,14.7V542h-8v-9Z"/><path class="cls-16" d="M1618.6,536h5.6l11-11H1647v8h10v9h-26.1a14.6574,14.6574,0,0,1-10.1-4.2,12.39,12.39,0,0,0-2.2-1.8Z"/><path class="cls-3" d="M1610,514l-11,11h-10.5l17.4-17h45.4l3.8,3.9,2,2.1Zm0,0-11,11Z"/><path class="cls-9" d="M1903.2,549h46.5a2.9706,2.9706,0,0,0,2.1-5.1l-4.9-4.9h-118l6.5,6.1a15.0814,15.0814,0,0,0,10.2,3.9h5a11.3064,11.3064,0,0,1,7.8,3.1,15.0814,15.0814,0,0,0,10.2,3.9h19.5a9.7476,9.7476,0,0,0,7.5-3.5,10.271,10.271,0,0,1,7.6-3.5Z"/><path class="cls-5" d="M1921.8,503h-25.2l-18-18H1851l-22,22v32h118V528.2Z"/><path class="cls-3" d="M1903.7,511h25.2l-7.2-8h-25.3Zm-66.7-4,16-16h31.3l-5.4-6H1848l-19,19v35h8Z"/><path class="cls-4" d="M1924.2,523H1889v-8.1l-9.9-9.9H1860l-15,15v19h90v-5.4Z"/><path class="cls-5" d="M1901,582l8,8h24l-4-4h-15l-10-10h-22l-8,8h-15l-6,6h26l8-8Z"/><path class="cls-4" d="M1901,582h-14l-8,8h30Z"/><path class="cls-3" d="M1850,590l8.5-9H1872l7-7h23l4,4h-25l-6.9,7.1H1861l-5,4.9Zm79-4-3-3h-15l3,3Z"/><path class="cls-9" d="M1933,590h-83.1l2.1,2.1a13.5608,13.5608,0,0,0,9.5,3.9h27.3a2.878,2.878,0,0,1,2.1.9l3.3,3.3a3.1179,3.1179,0,0,0,2.1.9h18.9a2.902,2.902,0,0,0,2.9-2.9v-.1a2.9021,2.9021,0,0,1,2.9-2.9h10a3.1153,3.1153,0,0,0,2-5.2Z"/><path class="cls-5" d="M158.7,566l-12,12h-36l6-6h22.5l15-15h33l12,12h22.5l9,9h-39l-12-12Z"/><path class="cls-4" d="M158.7,566h21l12,12h-45Z"/><path class="cls-3" d="M235,578l-14-14H201l-10-10H157.4l-6.4,6h37.5l10.8,11h19.6l7.1,7Zm-118.3-6,4.5-5h23.3l-5.3,5Z"/><path class="cls-9" d="M111.2,578H235.4l-3.1,3.3a16.7673,16.7673,0,0,1-3.8,2.6,35.7708,35.7708,0,0,1-17,4H173.6a.9076.9076,0,0,0-.7.3l-5.3,5.3a4.4457,4.4457,0,0,1-3.3,1.3H135.1a1.11,1.11,0,0,1-1.1-1.1v-3.6a4.4391,4.4391,0,0,0-4.4-4.4h-17c-3.9.3-4.2-4.9-1.4-7.7Z"/><path class="cls-7" d="M1882.9,666.8c-1-14.5-11.5-20.7-24.3-20.7-7.3,0-13.9,1.6-18.3,6.5a18.9887,18.9887,0,0,0-26.5576-3.98q-.75.5543-1.4424,1.18a33.269,33.269,0,0,0-29.1-16.8c-14.7,0-27,9.9-31.5,23.1a1.7021,1.7021,0,0,0-.7.1,27.03,27.03,0,0,0,2.9,53.9Z"/><path class="cls-9" d="M325.5,587H313l11.7-6.2c.4-.3.2-.8-.4-.8h-7.9l-13.2,7H290.7a7.6944,7.6944,0,0,0-4.1,1.1L249,617.5v1.7l77.3-31.3C327.3,587.4,327.1,587,325.5,587Z"/><path class="cls-12" d="M325,539v7h-5v35.1c-2.8,0-5-.2-5-1.4V539Z"/><path class="cls-11" d="M325,544v35.6c0,1.2-2.2,1.4-5,1.4V544Z"/><path class="cls-7" d="M340.1,512l-5.4-31h3.4l-16.5-82.3L303.5,481h2.8l-6.2,31h6.5l-5.9,30h38.8l-5.4-30Z"/><path class="cls-9" d="M321.6,398.5,332.3,481h7.3ZM336,481h-8l3.2,31h-5.5l5.6,30h10.4l-5.6-30h5.8Z"/><path class="cls-9" d="M1347.5,557H1360l-11.7-6.2c-.4-.3-.2-.8.4-.8h7.9l13.2,7h12.5a7.6942,7.6942,0,0,1,4.1,1.1l37.6,29.4v1.7l-77.3-31.3C1345.7,557.4,1345.9,557,1347.5,557Z"/><path class="cls-12" d="M1347,509v7h5v35.1c2.8,0,5-.2,5-1.4V509Z"/><path class="cls-11" d="M1347,514v35.6c0,1.2,2.2,1.4,5,1.4V514Z"/><path class="cls-7" d="M1332.3,482l5.5-31h-3.5l16.5-82.3,18.1,82.3h-2.8l6.3,31h-6.6l5.9,30h-38.8l5.5-30Z"/><path class="cls-9" d="M1350.8,368.5,1340.1,451h-7.3ZM1336.4,451h8l-3.2,31h5.5l-5.5,30h-10.4l5.5-30h-5.8Z"/><path class="cls-9" d="M175,516.5H162.5l11.7-6.2c.4-.3.2-.8-.4-.8H166l-13.2,7H140.3a7.6944,7.6944,0,0,0-4.1,1.1L98.5,547v1.7l77.3-31.3C176.8,516.9,176.6,516.5,175,516.5Z"/><path class="cls-11" d="M175,464V452h-5v59.1c2.8,0,5-.2,5-1.4V470l6-2v-4Z"/><path class="cls-12" d="M175,447v7h-5v57.1c-2.8,0-5-.2-5-1.4V447Z"/><path class="cls-7" d="M190.1,418l-5.4-31h3.4l-16.5-80.3L153.5,389h2.8l-6.2,31h6.5l-5.9,30H181l2-2h6.5l-5.4-30Z"/><path class="cls-9" d="M171.6,306.5,182.3,389h7.3ZM186,389h-8l3.2,31h-5.5l5.6,30h10.4l-5.6-30h5.8Z"/><path class="cls-9" d="M1723.4,538h12.5l-11.7-6.2c-.4-.3-.2-.8.4-.8h7.9l13.2,7h12.5a7.6932,7.6932,0,0,1,4.1,1.1l32.6,27a1.0023,1.0023,0,0,1-1,1.7l-71.3-28.9c-1-.5-.7-.9.8-.9Z"/><path class="cls-11" d="M1723,473v57.6c0,1.2,2.2,1.4,5,1.4V473Z"/><path class="cls-12" d="M1723,468v7h5v57.1c2.8,0,5-.2,5-1.4V468Z"/><path class="cls-7" d="M1708.3,439l5.5-31h-3.5l16.5-80.3,18.1,82.3h-2.8l6.3,31h-6.6l5.9,30h-30.3l-2-2h-6.5l5.5-30Z"/><path class="cls-9" d="M1726.8,327.5,1716.1,410h-7.3ZM1712.4,410h8l-3.2,31h5.5l-5.5,30h-10.4l5.5-30h-5.8Z"/><path class="cls-17" d="M1951,626a61.0723,61.0723,0,0,0-43.3,18H1804c-7.6,0-18.3,2.7-23.6,8.2l-19.3,18.7c-5.2,5.1-15.4,9.2-22.8,9.2H1556c-7.2,0-17.3-5-22.3-9.9l-13-13.2a30.7745,30.7745,0,0,0-8.4-6c-.9-.4-1.8-.8-2.7-1.1s-1.9-.6-2.8-.9a24.7415,24.7415,0,0,0-2.9-.6,34.0149,34.0149,0,0,0-4.5-.3H1394c-5.1,0-12.1-2.6-15.7-6.1l-4.1-3.2c-3.6-3.5-10.7-5.7-15.7-5.7h-15.7c-5.2,0-12.4,2.3-16.2,5.9l-9.1,9.4c-1,.8-1.9,1.7-3,2.6-3.9-3.3-10.4-6-15.2-6h-25.9c-4,0-9.3,2.3-13.1,5.2l-9.8-9.7c-4.2-4.6-12.7-8.5-18.8-8.5h-7.3a38.6412,38.6412,0,0,0-23.4-7.7,40.2923,40.2923,0,0,0-24,7.8c-1.1.1-2.3.2-3.5.4-.4.1-.9.2-1.3.3-.1,0-.2.1-.4.1-.4.1-.8.2-1.1.3a.3676.3676,0,0,0-.3.1c-.5.1-.9.3-1.4.4-.1,0-.2.1-.4.1a3.5832,3.5832,0,0,0-1.1.4.35.35,0,0,0-.2.1,94.7732,94.7732,0,0,1-32,5.8h-.9a93.8023,93.8023,0,0,1-15-1.1.6006.6006,0,0,1-.4-.1,4.1054,4.1054,0,0,0-1.1-.1c-.2,0-.4-.1-.7-.1-.4,0-.7-.1-1.1-.1a1.9532,1.9532,0,0,1-.7-.1c-.4,0-.8-.1-1.1-.1h-2.1c-10.4,0-19.5,4.5-24.6,11.7-3.4.7-6.9,1.4-10.3,1.8-2.3.3-4.6.6-6.9.8s-4.7.3-7,.4h-10.2c-6,0-14.5,2.3-18.7,6.6l-15.2,14.4c-4.1,4-12.2,7-18,7H874.6c-5.9,0-14-3.7-18.2-7.9l-5.5-5.5a41.0545,41.0545,0,0,0-12.9-8.6c-.6-.2-1.2-.5-1.8-.7a38.8274,38.8274,0,0,0-13.5-2.3H775.3a17.5381,17.5381,0,0,1-10.7-4.3l-2.8-2.5c-2.4-2.4-7.3-4.2-10.7-4.2H712.7c-3.9,0-9.3,2-12,4.8l-10.5,11.3c-4,4-11.7,7.9-17.3,7.9H629.1c-3.9,0-9.3-3.1-12-5.8l-3.1-2.9c-2.7-2.7-8.2-4.3-12-4.3H420.8c-8,0-15.1-2.4-20.8-8l-9-9c-4.3-4.3-12.5-8-18.7-8H318.6c-1,0-2,.1-3.1.2-1.3.2-2.7.5-3.9.8a32.432,32.432,0,0,0-8.4,4,37.6261,37.6261,0,0,0-3.1,2.5,38.3233,38.3233,0,0,0-2.8,2.9,7.007,7.007,0,0,0-.8,1l-.9.9a15.3546,15.3546,0,0,1-1.9,1.7,33.7352,33.7352,0,0,1-13.3,6.5,16.0472,16.0472,0,0,1-3,.3H194.3c-6,0-14.5,2.3-18.8,6.6L160.2,673c-4.1,4-12.3,7-18,7H67.3c-5.8,0-14-3.7-18.2-7.9l-5.4-5.4a41.9473,41.9473,0,0,0-4.5-3.9c-1.3-.9-2.6-1.8-4-2.6a10.9307,10.9307,0,0,0-1.5-.8,25.5564,25.5564,0,0,0-2.4-1.1c-.4-.2-.8-.3-1.2-.5-1-.4-2-.7-3-1-1.2-.4-2.5-.7-3.8-1a41.2941,41.2941,0,0,0-7.8-.8H-14v99H1986V637.1A60.4672,60.4672,0,0,0,1951,626Z"/><path class="cls-6" d="M1337.9,593.3l8.1,46.3-2,.4-8.1-46.4Z"/><path class="cls-6" d="M1338.2,601.2l-4.6-7.4a3.2224,3.2224,0,0,1,2.534-3.7877L1336.2,590a3.1253,3.1253,0,0,1,3.6748,2.4556q.0142.0719.0251.1444Zm4.8-.3a4.1863,4.1863,0,0,1,1.8-1.1,3.1274,3.1274,0,0,1,3,1.1,3.37,3.37,0,0,1,.6,3.2,3.19,3.19,0,0,1-2.4,2.1l-7.6,1.3Z"/><path class="cls-6" d="M1333.1,602.6a3.0831,3.0831,0,0,0-2.1-.4,3.29,3.29,0,0,0-2.7018,3.7889l.0018.011a3.2457,3.2457,0,0,0,3.7,2.7l7.6-1.3Zm.6,8.7a4.3448,4.3448,0,0,0-2.5-.5,3.9508,3.9508,0,0,0-3.2,4.5,3.9064,3.9064,0,0,0,4.4,3.2l8.9-1.6-7.6-5.6Z"/><path class="cls-6" d="M1345.9,609.2a3.681,3.681,0,0,1,6.5,1.8,3.75,3.75,0,0,1-2.9,4.4l-8.9,1.6Zm-10.5,11.6a4.3446,4.3446,0,0,0-2.5-.5,3.9138,3.9138,0,1,0,1.2,7.7l8.9-1.6-7.6-5.6Z"/><path class="cls-6" d="M561.5,662l-20.7-58h8.3l-20.4-58h10.2l-22.3-65H525l-23.2-65.9L478.5,481H487l-22.4,65h10.1l-20.4,58h8.5L442,662Z"/><polygon class="cls-6" points="547.326 679.067 438.393 670.775 442.618 660.511 547.326 660.258 547.326 679.067"/><path class="cls-17" d="M521.9,604l18.5,58h23l-20.6-58h7.4l-20.4-58h9.5L517,481h8.4l-23.6-65.9,8.3,65.9h-8.4l18.9,65h-8.7L529,604Z"/><path class="cls-6" d="M1347.5,618.8a3.681,3.681,0,0,1,6.5,1.8,3.75,3.75,0,0,1-2.9,4.4l-8.9,1.6Z"/><path class="cls-6" d="M342.1,582l10,57.6-2.4.4-10-57.5Z"/><path class="cls-6" d="M342.6,591.9l-5.6-9.2a4.0008,4.0008,0,0,1,3.1612-4.6926L340.2,578a3.9526,3.9526,0,0,1,4.5966,3.1808l.0034.0192Zm5.9-.4a4.2533,4.2533,0,0,1,2.3-1.4,3.9432,3.9432,0,0,1,3.7,1.3,4.11,4.11,0,0,1,.7,4,3.9639,3.9639,0,0,1-3,2.6l-9.3,1.7,5.6-8.2Z"/><path class="cls-6" d="M336.3,593.6a3.44,3.44,0,0,0-2.6-.5,4.1463,4.1463,0,0,0-3.3,4.7,3.9215,3.9215,0,0,0,4.437,3.3268q.0818-.0117.163-.0268l9.3-1.7Zm.7,10.8a4.7272,4.7272,0,1,0-1.6,8.8l11-2-9.4-6.8Z"/><path class="cls-6" d="M352,601.8a5.4509,5.4509,0,0,1,2.7-1.7,4.68,4.68,0,0,1,5.2,3.9,4.8913,4.8913,0,0,1-3.6,5.5l-11,2,6.7-9.7Zm-12.9,14.4a4.7172,4.7172,0,0,0-3.1-.6,4.634,4.634,0,0,0-4.1,3,4.9789,4.9789,0,0,0,.8,5.1,4.6626,4.6626,0,0,0,4.8,1.5l11-1.9-9.4-7.1Z"/><path class="cls-6" d="M354,613.7a5.4516,5.4516,0,0,1,2.7-1.7,4.68,4.68,0,0,1,5.2,3.9,4.8913,4.8913,0,0,1-3.6,5.5l-11,1.9,6.7-9.6Z"/><path class="cls-8" d="M830.9,515H825l4.1-1h-3.6l-4.5,1h-4.3a22.7353,22.7353,0,0,0-3.9,1.6l-10.9,6c-.4.2-.2.7.3.6l29.1-7.3c.3,0,.7-.9-.4-.9Z"/><path class="cls-11" d="M825,493v20.9a3.7147,3.7147,0,0,0,2.3.6c1,0,1.8-.3,1.7-.6V493Z"/><path class="cls-12" d="M829,492h-4v5h4Z"/><path class="cls-11" d="M828,503.4l3-.9V501h-3Z"/><path class="cls-9" d="M819.8,481l8.1-41.4,6.9,41.4h-2.2l2.2,14h-15l2.3-14Z"/><path class="cls-8" d="M831.3,481l-3.6-41.4,7.6,41.4h-2.2l2.2,14h-4l-2.2-14Z"/><path class="cls-8" d="M287.9,485H282l4.1-1h-3.6l-4.5,1h-4.3a22.7433,22.7433,0,0,0-3.9,1.6l-10.9,6c-.4.2-.2.7.3.6l29.1-7.3c.3,0,.7-.9-.4-.9Z"/><path class="cls-11" d="M282,463v20.9a3.7149,3.7149,0,0,0,2.3.6c1,0,1.8-.3,1.7-.6V463Z"/><path class="cls-12" d="M286,462h-4v5h4Z"/><path class="cls-11" d="M285,473.4l3-.9V471h-3Z"/><path class="cls-9" d="M276.8,451l8.1-41.4,6.9,41.4h-2.2l2.2,14h-15l2.3-14Z"/><path class="cls-8" d="M288.3,451l-3.6-41.4,7.6,41.4h-2.2l2.2,14h-4l-2.2-14Z"/><path class="cls-8" d="M1069,527h5.9l-4.1-1h3.6l4.5,1h4.3a22.7433,22.7433,0,0,1,3.9,1.6l10.9,6c.4.2.2.7-.3.6l-29.1-7.3c-.3,0-.6-.9.4-.9Z"/><path class="cls-11" d="M1075,505v20.9a3.7144,3.7144,0,0,1-2.3.6c-1,0-1.8-.3-1.7-.6V505Z"/><path class="cls-12" d="M1071,504h4v5h-4Z"/><path class="cls-11" d="M1072,515.4l-3-.9V513h3Z"/><path class="cls-9" d="M1080.1,493l-8-41.4-6.9,41.4h2.1l-2.1,14h14.9l-2.2-14Z"/><path class="cls-8" d="M1068.7,493l3.5-41.4-7.5,41.4h2.1l-2.1,14h4l2.1-14Z"/><path class="cls-8" d="M978.1,571h19.1c1.8.8,3.6,1.4,5.2,2.3l6.6,10.1c.5.2.2,1-.4.8l-31.1-11.8c-.4-.1-.9-1.2.6-1.4Z"/><path class="cls-11" d="M986,542v28a4.5625,4.5625,0,0,1-2.9.8c-1.2,0-2.3-.4-2.1-.8V542Z"/><path class="cls-12" d="M981,540h5v7h-5Z"/><path class="cls-11" d="M982,555.2l-4-1.2v-2h4Z"/><path class="cls-9" d="M993,525l-10.6-56.2L972.8,525h2.9l-2.9,19H993l-3-19Z"/><path class="cls-8" d="M977.6,525l4.8-56.2L972.1,525h3l-3,19h5.5l2.9-19Z"/><path class="cls-6" d="M1097.4,594.4l-1.7,1.7a75.3309,75.3309,0,0,1,22.2,52.9h2.6A77.542,77.542,0,0,0,1097.4,594.4Z"/><path class="cls-13" d="M1104.1,594a13.1643,13.1643,0,0,0,4.9-6.5,15.0016,15.0016,0,0,0-8.4.7,13.2175,13.2175,0,0,0-3.5-7.2,13.2168,13.2168,0,0,0-3.5,7.2,15.0765,15.0765,0,0,0-8.4-.7,13.6158,13.6158,0,0,0,4.9,6.5,13.1637,13.1637,0,0,0-4.9,6.5,15.0017,15.0017,0,0,0,8.4-.7,13.2168,13.2168,0,0,0,3.5,7.2,13.2175,13.2175,0,0,0,3.5-7.2,15.0764,15.0764,0,0,0,8.4.7A13.1643,13.1643,0,0,0,1104.1,594Z"/><circle class="cls-18" cx="1097" cy="594.0004" r="4"/><path class="cls-6" d="M822,624.4l1.7,1.7A75.3314,75.3314,0,0,0,801.5,679h-2.6A77.1234,77.1234,0,0,1,822,624.4Z"/><path class="cls-13" d="M815.3,624a13.1637,13.1637,0,0,1-4.9-6.5,15.0015,15.0015,0,0,1,8.4.7,13.2175,13.2175,0,0,1,3.5-7.2,13.2182,13.2182,0,0,1,3.5,7.2,15.0764,15.0764,0,0,1,8.4-.7,13.6171,13.6171,0,0,1-4.9,6.5,13.1643,13.1643,0,0,1,4.9,6.5,15.0015,15.0015,0,0,1-8.4-.7,13.2182,13.2182,0,0,1-3.5,7.2,13.2175,13.2175,0,0,1-3.5-7.2,15.0764,15.0764,0,0,1-8.4.7A13.1637,13.1637,0,0,1,815.3,624Z"/><circle class="cls-18" cx="822.4" cy="624.0004" r="4"/><path class="cls-6" d="M1062.3,653l9.7-9.7a10.9419,10.9419,0,0,0-12.5,6.1,10.7627,10.7627,0,0,0-9.9-6.4,11.533,11.533,0,0,0-2.6.3l9.7,9.7h5.6Z"/><path class="cls-4" d="M386,566h16v-6h10.6l9.4,6v15H371.2Z"/><path class="cls-5" d="M411.3,560H402v-5h15.5l9.5,10v8.5l8.3,7.5H422V568.9Z"/><path class="cls-16" d="M392,581h21l-9-9H392Z"/><path class="cls-9" d="M364.2,588.2l7-7.2h64.2l-7.2,7.2A13.0128,13.0128,0,0,1,419,592h-5a8.6247,8.6247,0,0,0-6.1,2.5l-1.7,1.7A6.174,6.174,0,0,1,402,598H386.3a4.2682,4.2682,0,0,1-4.3-4.2361q0-.0319,0-.0639V592H365.8a2.2306,2.2306,0,0,1-1.6-3.8Z"/><path class="cls-10" d="M854.3,485.3l-3.6-14.5-3.6,14.5a1.4323,1.4323,0,0,0,1.3,1.7H853a1.3889,1.3889,0,0,0,1.3-1.7Zm78,10-3.6-14.5-3.6,14.5a1.4323,1.4323,0,0,0,1.3,1.7H931a1.3889,1.3889,0,0,0,1.3-1.7Z"/><path class="cls-8" d="M584.3,452.3l-3.6-14.5-3.6,14.5a1.4323,1.4323,0,0,0,1.3,1.7H583a1.3889,1.3889,0,0,0,1.3-1.7Z"/><path class="cls-10" d="M142.3,443.3l-3.6-14.5-3.6,14.5a1.4322,1.4322,0,0,0,1.3,1.7H141a1.3889,1.3889,0,0,0,1.3-1.7Zm220,12-3.6-14.5-3.6,14.5a1.4322,1.4322,0,0,0,1.3,1.7H361a1.3889,1.3889,0,0,0,1.3-1.7Zm73,6-3.6-14.5-3.6,14.5a1.4322,1.4322,0,0,0,1.3,1.7H434a1.3889,1.3889,0,0,0,1.3-1.7Zm42-19-3.6-14.5-3.6,14.5a1.4322,1.4322,0,0,0,1.3,1.7H476a1.3889,1.3889,0,0,0,1.3-1.7Zm-404,10-3.6-14.5-3.6,14.5a1.4322,1.4322,0,0,0,1.3,1.7H72a1.3889,1.3889,0,0,0,1.3-1.7Zm-72,13-3.6-14.5-3.6,14.5a1.4324,1.4324,0,0,0,1.1348,1.678A1.4367,1.4367,0,0,0-4.6,467H0a1.3888,1.3888,0,0,0,1.3345-1.441A1.3856,1.3856,0,0,0,1.3,465.3Z"/><path class="cls-8" d="M751.3,470.3l-3.6-14.5-3.6,14.5a1.4323,1.4323,0,0,0,1.3,1.7H750a1.3889,1.3889,0,0,0,1.3-1.7Z"/><path class="cls-9" d="M901.8,480.1l-3.6-14.4-3.6,14.4a1.5835,1.5835,0,0,0,1.5,1.9h4.3a1.44,1.44,0,0,0,1.4-1.9Z"/><path class="cls-8" d="M969.8,484.1l-3.6-14.4-3.6,14.4a1.5835,1.5835,0,0,0,1.5,1.9h4.3a1.44,1.44,0,0,0,1.4-1.9Zm-549-49-3.6-14.4-3.6,14.4a1.5835,1.5835,0,0,0,1.5,1.9h4.3a1.44,1.44,0,0,0,1.4-1.9Zm-79,1-3.6-14.4-3.6,14.4a1.5835,1.5835,0,0,0,1.5,1.9h4.3a1.44,1.44,0,0,0,1.4-1.9Zm-109.1-4.5-4.4-17.7-4.4,17.7a1.84,1.84,0,0,0,1.8,2.3H231a1.8659,1.8659,0,0,0,1.7-2.3Zm-210-30.9L18.2,383l-4.4,17.7a1.84,1.84,0,0,0,1.8,2.3h5.3a1.84,1.84,0,0,0,1.8-2.3Zm851,71L869.3,454l-4.4,17.7a1.84,1.84,0,0,0,1.8,2.3H872a1.8263,1.8263,0,0,0,1.7-2.3Zm281-9-4.4-17.7-4.4,17.7a1.84,1.84,0,0,0,1.8,2.3h5.3a1.8267,1.8267,0,0,0,1.7-2.3ZM202.8,425.1l-3.6-14.4-3.6,14.4a1.5835,1.5835,0,0,0,1.5,1.9h4.3a1.44,1.44,0,0,0,1.4-1.9Zm-70-14-3.6-14.4-3.6,14.4a1.5835,1.5835,0,0,0,1.5,1.9h4.3a1.44,1.44,0,0,0,1.4-1.9Zm-81,1-3.6-14.4-3.6,14.4a1.5835,1.5835,0,0,0,1.5,1.9h4.3a1.44,1.44,0,0,0,1.4-1.9Zm473,25-3.6-14.4-3.6,14.4a1.5835,1.5835,0,0,0,1.5,1.9h4.3a1.44,1.44,0,0,0,1.4-1.9Zm498,51-3.6-14.4-3.6,14.4a1.5835,1.5835,0,0,0,1.5,1.9h4.3a1.44,1.44,0,0,0,1.4-1.9Z"/><path class="cls-9" d="M799.8,479.1l-3.6-14.4-3.6,14.4a1.5835,1.5835,0,0,0,1.5,1.9h4.3a1.44,1.44,0,0,0,1.4-1.9Zm-87-9-3.6-14.4-3.6,14.4a1.5835,1.5835,0,0,0,1.5,1.9h4.3a1.44,1.44,0,0,0,1.4-1.9Zm-266-39-3.6-14.4-3.6,14.4a1.5835,1.5835,0,0,0,1.5,1.9h4.3a1.44,1.44,0,0,0,1.4-1.9Zm166,14-3.6-14.4-3.6,14.4a1.5835,1.5835,0,0,0,1.5,1.9h4.3a1.44,1.44,0,0,0,1.4-1.9Zm-515-10-3.6-14.4-3.6,14.4a1.5835,1.5835,0,0,0,1.5,1.9h4.3a1.44,1.44,0,0,0,1.4-1.9Z"/><path class="cls-10" d="M51.8,444.1l-3.6-14.4-3.6,14.4a1.5835,1.5835,0,0,0,1.5,1.9h4.3a1.44,1.44,0,0,0,1.4-1.9Z"/><path class="cls-8" d="M1.8,400.1l-3.6-14.4-3.6,14.4a1.5838,1.5838,0,0,0,1.2345,1.8688A1.5913,1.5913,0,0,0-3.9,402H.4a1.44,1.44,0,0,0,1.4-1.9Z"/><path class="cls-9" d="M11.8,427.1,8.2,412.7,4.6,427.1A1.5835,1.5835,0,0,0,6.1,429h4.3a1.44,1.44,0,0,0,1.4-1.9Zm204,21-3.6-14.4-3.6,14.4a1.5835,1.5835,0,0,0,1.5,1.9h4.3a1.44,1.44,0,0,0,1.4-1.9Zm905,20-3.6-14.4-3.6,14.4a1.5835,1.5835,0,0,0,1.5,1.9h4.3a1.44,1.44,0,0,0,1.4-1.9Zm-81,20-3.6-14.4-3.6,14.4a1.5835,1.5835,0,0,0,1.5,1.9h4.3a1.44,1.44,0,0,0,1.4-1.9Zm639-45-3.6-14.4-3.6,14.4a1.5835,1.5835,0,0,0,1.5,1.9h4.3a1.44,1.44,0,0,0,1.4-1.9Zm-23,19-3.6-14.4-3.6,14.4a1.5835,1.5835,0,0,0,1.5,1.9h4.3a1.44,1.44,0,0,0,1.4-1.9Z"/><path class="cls-8" d="M1795.8,443.1l-3.6-14.4-3.6,14.4a1.5835,1.5835,0,0,0,1.5,1.9h4.3a1.44,1.44,0,0,0,1.4-1.9Z"/><path class="cls-9" d="M1962.8,437.1l-3.6-14.4-3.6,14.4a1.5835,1.5835,0,0,0,1.5,1.9h4.3a1.44,1.44,0,0,0,1.4-1.9Z"/><path class="cls-10" d="M1692.8,464.1l-3.6-14.4-3.6,14.4a1.5835,1.5835,0,0,0,1.5,1.9h4.3a1.44,1.44,0,0,0,1.4-1.9Zm242,6-3.6-14.4-3.6,14.4a1.5835,1.5835,0,0,0,1.5,1.9h4.3a1.44,1.44,0,0,0,1.4-1.9Z"/><path class="cls-17" d="M719.3436,634.3754V613.7029L715,613v32.1127h15.311A10.9817,10.9817,0,0,1,719.3436,634.3754Z"/><path class="cls-17" d="M716.9674,627.872l.0226-14.55-4.2868-.7135.4934,37.9872,18.1517-5.4828C726.3048,645.3,716.6854,643.1633,716.9674,627.872Z"/><path class="cls-6" d="M715,640V613l-25.8-4.4V674H726V651a10.9683,10.9683,0,0,1-11-10.9365Q715,640.0319,715,640Z"/><path class="cls-8" d="M548,480h3l4-2h-3Z"/><path class="cls-8" d="M539,484l8-5h12Z"/><path class="cls-11" d="M552,478V468h3v10Z"/><path class="cls-12" d="M555,468h-3v4h3Z"/><path class="cls-9" d="M549.6,459.9,548,469h11l-1.5-9.1H559l-4.6-22.5-.8-4.4v.2L548,459.9Z"/><path class="cls-8" d="M1253,493h-3.8l-5.1-3h3.8Z"/><path class="cls-8" d="M1264.5,498.4l-10.2-6.4H1239Z"/><path class="cls-11" d="M1248,490V477h-4v13Z"/><path class="cls-12" d="M1244,478h4v5h-4Z"/><path class="cls-8" d="M1251.4,467l2.1,12h-14.6l2-12h-2l6.1-29.8,1-5.7v.2l7.5,35.3Z"/><path class="cls-8" d="M1512,477h-3l-4-2h3Z"/><path class="cls-8" d="M1521,481l-8-5h-12Z"/><path class="cls-11" d="M1508,475V465h-3v10Z"/><path class="cls-12" d="M1505,465h3v4h-3Z"/><path class="cls-9" d="M1510,457l1.6,9h-10.9l1.5-9h-1.5l4.5-22.3.8-4.3v.1l5.6,26.5Z"/><path class="cls-9" d="M660.2,605.7a10.378,10.378,0,0,1,1.2.3,15.7075,15.7075,0,0,1,9.3,7.8,18.4407,18.4407,0,0,0-8.7-13.3l.3-.6c.5.2,1,.4,1.4.6a19.23,19.23,0,0,1,9.6,11,13.0812,13.0812,0,0,1,.7,4.4h-5.9a6.2948,6.2948,0,0,0-.9-3.3,14.33,14.33,0,0,0-7.2-6.3l.2-.6Z"/><path class="cls-6" d="M1178,676V618a3.6009,3.6009,0,0,0-3.2841-3.8921q-.0577-.0048-.1159-.0079a3.8991,3.8991,0,0,1-3.5-4.2v-8.8a13.8848,13.8848,0,0,0-2.7-7.4l-2.5-2.9a13.9964,13.9964,0,0,1-2.8-7.4v-9.6a16.6438,16.6438,0,0,0-2.1-7.6l-4.3-6.5a8.5688,8.5688,0,0,0-6.2-3.6h-4.7a5.1263,5.1263,0,0,0-4.7,4.6v61.5a11.3748,11.3748,0,0,1-2.5,7.1l-1.8,2.2a12.1036,12.1036,0,0,0-2.6,7.1V676Zm480.4-18.7a2.7772,2.7772,0,0,0,2.6-2.9V627a8.5505,8.5505,0,0,1,1.8-5.1l8.7-11.3a6.4861,6.4861,0,0,1,4.7-2.5h2a3.15,3.15,0,0,1,2.8,3.2v30.6a8.0681,8.0681,0,0,0,2.1,4.9l1.7,1.5a9.1385,9.1385,0,0,1,2.2,4.9v33.2a2.9715,2.9715,0,0,1-3.1,2.7h-25.1a2.5678,2.5678,0,0,1-2-.8,2.7922,2.7922,0,0,1-.8-2V660.1a2.2106,2.2106,0,0,1,.6-1.9,2.6157,2.6157,0,0,1,1.8-.9Z"/><path class="cls-10" d="M1572,506h38V495.1l-9.7-1.1a30.237,30.237,0,0,1-17.9-8.6l-2.5-2.5h-8V506Z"/><path class="cls-5" d="M763,538h14l5,5h16l-13-13H771l-5,5H754l-8,8h12Z"/><path class="cls-4" d="M762,538l-5,5h26l-5-5Z"/><path class="cls-19" d="M781,533l10,10h7l-13-13H771l-3,3Z"/><path class="cls-8" d="M798.4,543l-12,8.7a6.6789,6.6789,0,0,1-4.1,1.3h-15a2.2629,2.2629,0,0,1-2.3-2.2252c0-.0249,0-.05,0-.0748a2.689,2.689,0,0,0-2.6778-2.7H747.3a2.6648,2.6648,0,0,1-1.3-5h52.4Z"/><path class="cls-9" d="M764.7,562.2c-.7.2-1.2.3-1.8.5A22.5954,22.5954,0,0,0,749.6,574a26.25,26.25,0,0,1,12.5-19.1l-.4-.9a19.4742,19.4742,0,0,0-2,.9A28.004,28.004,0,0,0,746,570.7a18.9,18.9,0,0,0-1,6.3h8.5a9.1228,9.1228,0,0,1,1.3-4.8,20.8571,20.8571,0,0,1,10.3-9.1l-.4-.9ZM921.6,633l23.1-1.6a46.4329,46.4329,0,0,0,10.4-1.9l2.5-.8A46.4326,46.4326,0,0,0,985,606l-.2-.2a132.9152,132.9152,0,0,1-67.1,17.5h-2.3a134.833,134.833,0,0,1-33.4-4.9v.7l12.5,7.5A47.3864,47.3864,0,0,0,921.6,633Zm280.8-112.4-5.3-10.8a9.9561,9.9561,0,0,0-9.2-5.6c-9.4.3-17.6,1.4-25.5,4l36.1,16.4a3.0358,3.0358,0,0,0,4.0564-1.4063c.0151-.031.03-.0622.0436-.0937a3.6574,3.6574,0,0,0-.2-2.5Z"/><path class="cls-8" d="M1010,518h-3l-4-2h3Z"/><path class="cls-8" d="M1019,522l-8-5H999Z"/><path class="cls-11" d="M1006,516V506h-3v10Z"/><path class="cls-12" d="M1003,506h3v4h-3Z"/><path class="cls-9" d="M1008,498l1.6,9H998.7l1.5-9h-1.5l4.5-22.3.8-4.3v.1l5.6,26.5Z"/><path class="cls-8" d="M1219,500h-3l-4-2h3Z"/><path class="cls-8" d="M1228,504l-8-5h-12Z"/><path class="cls-11" d="M1215,498V488h-3v10Z"/><path class="cls-12" d="M1212,488h3v4h-3Z"/><path class="cls-8" d="M1217,480l1.6,9h-10.9l1.5-9h-1.5l4.5-22.3.8-4.3v.1l5.6,26.5Z"/><path class="cls-6" d="M581,608h-4v66h4Z"/><path class="cls-3" d="M587,605.7v-1.4c.4-.3.8-.5,1.2-.8,2.1-2.1,2.6-10.2,2.6-10.2s-8.1.5-10.2,2.6a3.1656,3.1656,0,0,0-.8,1.2h-1.4c-.3-.4-.5-.8-.8-1.2-2.1-2.1-10.2-2.6-10.2-2.6s.5,8.1,2.6,10.2a3.1656,3.1656,0,0,0,1.2.8v1.4c-.4.3-.8.5-1.2.8-2.1,2.1-2.6,10.2-2.6,10.2s8.1-.5,10.2-2.6a3.1656,3.1656,0,0,0,.8-1.2h1.4c.3.4.5.8.8,1.2,2.1,2.1,10.2,2.6,10.2,2.6s-.5-8.1-2.6-10.2A5.0237,5.0237,0,0,1,587,605.7Z"/><path class="cls-18" d="M579.3,609.3a4.4813,4.4813,0,1,0-.0375,0Z"/><path class="cls-6" d="M584,635a8.0235,8.0235,0,0,1,8-8A8.0235,8.0235,0,0,1,584,635Z"/><path class="cls-6" d="M631.1,613.7l-32.5,51,2.2,1.4,32.5-51Z"/><path class="cls-6" d="M628.9,611.9a4.1881,4.1881,0,0,1,7,4.6l-9.1,6.5Zm-5.5,18.4L615,625a4.183,4.183,0,0,1-1.9-3.7,4.1178,4.1178,0,0,1,2.3-3.5,4.2024,4.2024,0,0,1,4.2.2,4.6961,4.6961,0,0,1,1.7,2.2l2.1,10.1Z"/><path class="cls-6" d="M622,629.4l8.4,5.4a4.2029,4.2029,0,1,0,4.5-7.1,3.69,3.69,0,0,0-2.7-.5L622,629.4Zm-6.7,10.5,9.9,6.3a4.9859,4.9859,0,0,0,6.8-1.6,5.1278,5.1278,0,0,0-1.6-6.9,4.5412,4.5412,0,0,0-3.2-.6Z"/><path class="cls-6" d="M616.3,640.6l-9.9-6.3a4.8292,4.8292,0,0,1-1.3-6.7,4.9317,4.9317,0,0,1,6.6-1.6,5.1758,5.1758,0,0,1,1.9,2.7l2.7,11.9Zm-7.7,9.8,9.9,6.3a5.0948,5.0948,0,0,0,5.3.6,5.0161,5.0161,0,0,0,0-9,4.5413,4.5413,0,0,0-3.2-.6Z"/><path class="cls-6" d="M609.6,651.1l-9.9-6.3a4.829,4.829,0,0,1-1.3-6.7,4.9551,4.9551,0,0,1,6.6-1.6,5.1754,5.1754,0,0,1,1.9,2.7l2.7,11.9Z"/><path class="cls-6" d="M1398,603.4l1.7,1.7a75.331,75.331,0,0,0-22.2,52.9h-2.6A77.1231,77.1231,0,0,1,1398,603.4Z"/><circle class="cls-3" cx="1400" cy="603.0004" r="6.5"/><path class="cls-6" d="M267.5,633.4l-1.7,1.7A75.3314,75.3314,0,0,1,288,688h2.6A77.1234,77.1234,0,0,0,267.5,633.4Z"/><circle class="cls-3" cx="265.5" cy="633.0004" r="6.5"/><path class="cls-6" d="M1446,609h-4v46h4Z"/><path class="cls-18" d="M1451.5,606.7v-1.4c.3-.3.8-.5,1.1-.8,1.9-1.9,2.4-9.5,2.4-9.5s-7.6.5-9.6,2.4a4.4393,4.4393,0,0,0-.8,1.1h-1.4c-.3-.3-.5-.8-.8-1.1-1.8-1.9-9.4-2.4-9.4-2.4s.5,7.6,2.4,9.6a4.4481,4.4481,0,0,0,1.1.8v1.4c-.3.3-.8.5-1.1.8-1.9,1.9-2.4,9.6-2.4,9.6s7.6-.5,9.6-2.4a10.45,10.45,0,0,1,.8-1.1h1.4c.3.3.5.8.8,1.1,1.9,1.9,9.6,2.4,9.6,2.4s-.5-7.6-2.4-9.6a3.7843,3.7843,0,0,0-1.3-.9Z"/><path class="cls-3" d="M1444.3,610.3a4.4813,4.4813,0,1,0-.0374,0Z"/><path class="cls-6" d="M1449,633a8.0235,8.0235,0,0,1,8-8A8.0235,8.0235,0,0,1,1449,633Z"/><path class="cls-6" d="M1569.1,640.3l-8.1,46.3,2,.4,8.1-46.4Z"/><path class="cls-6" d="M1567,639.7a3.1745,3.1745,0,0,1,3.6544-2.6079l.0456.0079a3.2969,3.2969,0,0,1,2.6,3.8l-4.6,7.4-1.7-8.6Zm1.6,14.8-7.6-1.3a3.0408,3.0408,0,0,1-2.4-2.1,3.263,3.263,0,0,1,3.6-4.3,3.4134,3.4134,0,0,1,1.8,1.1Z"/><path class="cls-6" d="M1567.3,654.3l7.6,1.3a3.1938,3.1938,0,0,0,3.6859-2.6105c.0052-.03.01-.06.0141-.09a3.2906,3.2906,0,0,0-2.689-3.7981l-.011-.0019a3.0831,3.0831,0,0,0-2.1.4Zm-1.7,9.5,8.9,1.6a3.9065,3.9065,0,0,0,4.4-3.2,4.007,4.007,0,0,0-3.2-4.5,4.3448,4.3448,0,0,0-2.5.5l-7.6,5.6Z"/><path class="cls-6" d="M1566.5,664l-8.9-1.6a3.75,3.75,0,0,1-2.9-4.4,3.8113,3.8113,0,0,1,4.3-3.1,4.9638,4.9638,0,0,1,2.2,1.3Zm-2.5,9.4,8.9,1.6a3.8071,3.8071,0,0,0,3.9-1.2,4.0578,4.0578,0,0,0,.7-4.1,3.9479,3.9479,0,0,0-3.4-2.4,4.3446,4.3446,0,0,0-2.5.5l-7.6,5.6Z"/><path class="cls-6" d="M1564.9,673.6,1556,672a3.75,3.75,0,0,1-2.9-4.4,3.8111,3.8111,0,0,1,4.3-3.1,4.9614,4.9614,0,0,1,2.2,1.3Z"/><path class="cls-6" d="M60.2,632.1,35,671.9l1.7,1.1,25.2-39.8Z"/><path class="cls-6" d="M58.5,630.8a3.3492,3.3492,0,0,1,4.5-1,3.2315,3.2315,0,0,1,.915,4.4775L63.9,634.3l-7.1,5.1Zm-4.2,14.3L47.8,641a3.27,3.27,0,0,1-1.5-2.9,3.1049,3.1049,0,0,1,1.8-2.7,3.0717,3.0717,0,0,1,3.2.2,3.7079,3.7079,0,0,1,1.3,1.7Z"/><path class="cls-6" d="M53.1,644.4l6.5,4.1a3.2,3.2,0,0,0,4.42-.9691q.0413-.0645.0795-.1309a3.2373,3.2373,0,0,0-.9624-4.476L63.1,642.9a3.0837,3.0837,0,0,0-2.1-.4ZM48,652.6l7.6,4.9a3.9087,3.9087,0,0,0,5.3-1.3,3.8591,3.8591,0,0,0-1.2-5.3,4.3448,4.3448,0,0,0-2.5-.5L48,652.6Z"/><path class="cls-6" d="M48.7,653.1l-7.6-4.9a3.8494,3.8494,0,0,1,4.1-6.5,4.08,4.08,0,0,1,1.5,2.1l2,9.3Zm-6,7.7,7.6,4.8a3.8115,3.8115,0,0,0,4.1.4,4.0186,4.0186,0,0,0,2.2-3.5,3.8377,3.8377,0,0,0-2.2-3.5,4.3448,4.3448,0,0,0-2.5-.5Z"/><path class="cls-6" d="M43.5,661.3l-7.6-4.8A3.8494,3.8494,0,0,1,40,650a4.08,4.08,0,0,1,1.5,2.1Z"/><path class="cls-6" d="M1735,680l11.7-11.7a10.5513,10.5513,0,0,0-3.1-.4,13.0556,13.0556,0,0,0-11.9,7.7,12.9308,12.9308,0,0,0-12-7.7,10.993,10.993,0,0,0-3.1.4l11.8,11.7Z"/><path class="cls-9" d="M1547.5,604H1560l-11.7-6.2c-.4-.3-.2-.8.4-.8h7.9l13.2,7h12.5a7.6942,7.6942,0,0,1,4.1,1.1l37.6,29.4v1.7l-77.3-31.3C1545.7,604.4,1545.9,604,1547.5,604Z"/><path class="cls-12" d="M1547,556v7h5v35.1c2.8,0,5-.2,5-1.4V556Z"/><path class="cls-11" d="M1547,561v35.6c0,1.2,2.2,1.4,5,1.4V561Z"/><path class="cls-7" d="M1532.3,529l5.5-31h-3.5l16.5-82.3,18.1,82.3h-2.8l6.3,31h-6.6l5.9,30h-38.8l5.5-30Z"/><path class="cls-9" d="M1550.8,415.5,1540.1,498h-7.3ZM1536.4,498h8l-3.2,31h5.5l-5.5,30h-10.4l5.5-30h-5.8Z"/><path class="cls-9" d="M75.5,587H63l11.7-6.2c.4-.3.2-.8-.4-.8H66.4l-13.2,7H40.8a7.6944,7.6944,0,0,0-4.1,1.1L-1,617.5v1.7l77.3-31.3C77.3,587.4,77.1,587,75.5,587Z"/><path class="cls-12" d="M76,539v7H71v35.1c-2.8,0-5-.2-5-1.4V539Z"/><path class="cls-11" d="M76,544v35.6c0,1.2-2.2,1.4-5,1.4V544Z"/><path class="cls-7" d="M90.2,512l-5.5-31h3.5L71.7,398.7,53.6,481h2.8l-6.3,31h6.6l-5.9,30H89.6l-5.5-30Z"/><path class="cls-9" d="M71.7,398.5,82.4,481h7.3ZM86.1,481h-8l3.2,31H75.8l5.5,30H91.7l-5.5-30H92Z"/><path class="cls-6" d="M1618,631h-4v55h4Z"/><path class="cls-3" d="M1624,628.7v-1.4c.4-.3.8-.5,1.2-.8,2.1-2.1,2.6-10.2,2.6-10.2s-8.1.5-10.2,2.6a3.1659,3.1659,0,0,0-.8,1.2h-1.4c-.3-.4-.5-.8-.8-1.2-2.1-2.1-10.2-2.6-10.2-2.6s.5,8.1,2.6,10.2a3.1657,3.1657,0,0,0,1.2.8v1.4c-.4.3-.8.5-1.2.8-2.1,2.1-2.6,10.2-2.6,10.2s8.1-.5,10.2-2.6a3.1656,3.1656,0,0,0,.8-1.2h1.4c.3.4.5.8.8,1.2,2.1,2.1,10.2,2.6,10.2,2.6s-.5-8.1-2.6-10.2A5.0217,5.0217,0,0,1,1624,628.7Z"/><path class="cls-18" d="M1616.3,632.3a4.5,4.5,0,1,0-4.5-4.5h0a4.4814,4.4814,0,0,0,4.4626,4.5Z"/><path class="cls-6" d="M1828,608h-4v50h4Z"/><path class="cls-3" d="M1826,620a8,8,0,1,0-8-8A8,8,0,0,0,1826,620Z"/><path class="cls-18" d="M1826,616a4,4,0,1,0-4-4A4,4,0,0,0,1826,616Z"/><path class="cls-6" d="M1832,632a8.0235,8.0235,0,0,1,8-8A8.0235,8.0235,0,0,1,1832,632Zm-211,31a8.0235,8.0235,0,0,1,8-8A8.0235,8.0235,0,0,1,1621,663Z"/><path class="cls-8" d="M1590,504h-3l-4-2h3Z"/><path class="cls-8" d="M1599,508l-8-5h-12Z"/><path class="cls-11" d="M1586,502V492h-3v10Z"/><path class="cls-12" d="M1583,492h3v4h-3Z"/><path class="cls-9" d="M1588,484l1.6,9h-10.9l1.5-9h-1.5l4.5-22.3.8-4.3v.1l5.6,26.5Z"/><path class="cls-9" d="M600.9,522H595l4.1-1h-3.6l-4.5,1h-4.3a22.7353,22.7353,0,0,0-3.9,1.6l-10.9,6c-.4.2-.2.7.3.6l29.1-7.3c.3,0,.7-.9-.4-.9Z"/><path class="cls-11" d="M595,500v20.9a3.7147,3.7147,0,0,0,2.3.6c1,0,1.8-.3,1.7-.6V500Z"/><path class="cls-12" d="M599,499h-4v5h4Z"/><path class="cls-11" d="M598,510.4l3-.9V508h-3Z"/><path class="cls-9" d="M589.8,488l8.1-41.4,6.9,41.4h-2.2l2.2,14h-15l2.3-14Z"/><path class="cls-8" d="M601.3,488l-3.6-41.4,7.6,41.4h-2.2l2.2,14h-4l-2.2-14Z"/><path class="cls-6" d="M1954.1,585l10,57.6-2.4.4-10-57.5Z"/><path class="cls-6" d="M1954.6,594.9l-5.6-9.2a4.0009,4.0009,0,0,1,3.1613-4.6927L1952.2,581a3.9526,3.9526,0,0,1,4.5965,3.1808l.0034.0192Zm5.9-.4a4.2537,4.2537,0,0,1,2.3-1.4,3.9431,3.9431,0,0,1,3.7,1.3,4.11,4.11,0,0,1,.7,4,3.9641,3.9641,0,0,1-3,2.6l-9.3,1.7,5.6-8.2Z"/><path class="cls-6" d="M1948.3,596.6a3.44,3.44,0,0,0-2.6-.5,4.1465,4.1465,0,0,0-3.3,4.7,3.9216,3.9216,0,0,0,4.4373,3.3268q.0816-.0117.1627-.0268l9.3-1.7Zm.7,10.8a4.7272,4.7272,0,1,0-1.6,8.8l11-2-9.4-6.8Z"/><path class="cls-6" d="M1964,604.8a5.45,5.45,0,0,1,2.7-1.7,4.68,4.68,0,0,1,5.2,3.9,4.8913,4.8913,0,0,1-3.6,5.5l-11,2,6.7-9.7Zm-12.9,14.4a4.7173,4.7173,0,0,0-3.1-.6,4.634,4.634,0,0,0-4.1,3,4.9789,4.9789,0,0,0,.8,5.1,4.6624,4.6624,0,0,0,4.8,1.5l11-1.9-9.4-7.1Z"/><path class="cls-6" d="M1966,616.7a5.4512,5.4512,0,0,1,2.7-1.7,4.68,4.68,0,0,1,5.2,3.9,4.8913,4.8913,0,0,1-3.6,5.5l-11,1.9,6.7-9.6Z"/><path class="cls-6" d="M966.1,651l10,57.6-2.4.4-10-57.5Z"/><path class="cls-6" d="M966.6,660.9l-5.6-9.2a4.0008,4.0008,0,0,1,3.1613-4.6926L964.2,647a3.9527,3.9527,0,0,1,4.5966,3.1808l.0034.0192Zm5.9-.4a4.2537,4.2537,0,0,1,2.3-1.4,3.9433,3.9433,0,0,1,3.7,1.3,4.11,4.11,0,0,1,.7,4,3.9639,3.9639,0,0,1-3,2.6l-9.3,1.7,5.6-8.2Z"/><path class="cls-6" d="M960.3,662.6a3.44,3.44,0,0,0-2.6-.5,4.1463,4.1463,0,0,0-3.3,4.7,3.9215,3.9215,0,0,0,4.437,3.3268q.0817-.0117.163-.0268l9.3-1.7Zm.7,10.8a4.7272,4.7272,0,1,0-1.6,8.8l11-2-9.4-6.8Z"/><path class="cls-6" d="M976,670.8a5.4509,5.4509,0,0,1,2.7-1.7,4.68,4.68,0,0,1,5.2,3.9,4.8914,4.8914,0,0,1-3.6,5.5l-11,2,6.7-9.7Z"/><path class="cls-6" d="M132.1,698.7h8.4l-18.4-53.5H129l-19.1-54.3L90.7,645.2h7.1L79.3,698.7h8.4L77,729h65.8Z"/><path class="cls-17" d="M133,698.7h7.8l-18.3-53.5h6.9l-19.5-54.3,6.9,54.3h-6.9l15.5,53.5h-7.2l9,30.3h16.5Z"/><path class="cls-6" d="M101.1,655.9l21.4-10.7H101.1Zm2.4,61.7,29.7-18.9H103.5Z"/><path class="cls-6" d="M1314.1,724.2l-17-47.8h6.8l-16.8-47.7h8.4l-18.4-53.5h6.9l-19.1-54.3-19.2,54.3h7.1l-18.5,53.5h8.4l-16.8,47.7h6.9l-17.1,47.8h98.4Z"/><path class="cls-17" d="M1281.5,676.4l15.2,47.8h19l-17-47.8h6.1L1288,628.7h7.8l-18.3-53.5h6.9l-19.5-54.3,6.9,54.3h-6.9l15.5,53.5h-7.2l14.2,47.7Z"/><path class="cls-6" d="M1256.1,585.9l21.4-10.7h-21.4Zm2.4,61.7,29.7-18.9h-29.7Zm10.7,47.8,29.7-19h-29.7Z"/><path class="cls-6" d="M1951,632a61.0723,61.0723,0,0,0-43.3,18H1804c-7.6,0-18.3,2.7-23.6,8.2l-19.3,18.7c-5.2,5.1-15.4,9.2-22.8,9.2H1556c-7.2,0-17.3-5-22.3-9.9l-13-13.2a29.8818,29.8818,0,0,0-21.3-8.9H1394c-5.1,0-12.1-2.6-15.7-6.1l-4.1-3.2c-3.6-3.5-10.7-5.7-15.7-5.7h-15.7c-5.2,0-12.4,2.3-16.2,5.9l-9.1,9.4c-1,.8-1.9,1.7-3,2.6-3.9-3.3-10.4-6-15.2-6h-25.9c-4,0-9.3,2.3-13.1,5.2l-9.8-9.7c-4.2-4.6-12.7-8.5-18.8-8.5h-7.3a38.6411,38.6411,0,0,0-23.4-7.7,40.2909,40.2909,0,0,0-24,7.8c-1.1.1-2.3.2-3.5.4a42.4984,42.4984,0,0,0-6.3,1.7,94.7736,94.7736,0,0,1-32,5.8h-.9a93.7915,93.7915,0,0,1-15-1.1,44.6591,44.6591,0,0,0-7.2-.6c-10.4,0-19.5,4.5-24.6,11.7a129.3593,129.3593,0,0,1-27.8,3H1053c-6,0-14.5,2.3-18.7,6.6L1019.1,680c-4.1,4-12.2,7-18,7H874.6c-5.9,0-14-3.7-18.2-7.9l-5.5-5.5A40.1355,40.1355,0,0,0,822.7,662H775.3a17.5387,17.5387,0,0,1-10.7-4.3l-2.8-2.5c-2.4-2.4-7.3-4.2-10.7-4.2H712.7c-3.9,0-9.3,2-12,4.8l-10.5,11.3c-4,4-11.7,7.9-17.3,7.9H629.1c-3.9,0-9.3-3.1-12-5.8l-3.1-2.9c-2.7-2.7-8.2-4.3-12-4.3H420.8c-8,0-15.1-2.4-20.8-8l-9-9c-4.3-4.3-12.5-8-18.7-8H318.6c-1,0-2,.1-3.1.2a29.52,29.52,0,0,0-18.3,10.3,31.4809,31.4809,0,0,1-3.6,3.7c-4.4,3.5-11.2,6.8-16.3,6.8H194.2c-6,0-14.5,2.3-18.8,6.6L160.2,679c-4.1,4-12.3,7-18,7H67.3c-5.8,0-14-3.7-18.2-7.9l-5.4-5.4A40.04,40.04,0,0,0,15.4,661H-14v99H1986V643.1A60.4672,60.4672,0,0,0,1951,632Zm-835-17a10.0294,10.0294,0,0,1,10-10A10.0294,10.0294,0,0,1,1116,615Z"/><path class="cls-6" d="M437.1,262.4a3.6855,3.6855,0,0,0,3.5-.9l5.3-3.5h-15c-4,0-9.3,2.8-12.2,5h13.4l9.9,10.8a16.8014,16.8014,0,0,0-4.9-11.4Z"/><path class="cls-6" d="M434,263v.2l-10.5,10.6a18.8866,18.8866,0,0,1,3.8-10.8Z"/><path class="cls-6" d="M488.7,235.1a3.5139,3.5139,0,0,0-3.5-.9l.1-.1a16.5269,16.5269,0,0,0,4.8-11.3l-8.9,9.2-9.7-9.8a16.915,16.915,0,0,0,.7,4.5A14.6484,14.6484,0,0,0,476,233h-9.2a17.3217,17.3217,0,0,0,11.1,5h13.5l-2.7-2.9Z"/></svg>