<?xml version="1.0" encoding="utf-8"?>
<!-- Generator: Adobe Illustrator 26.0.0, SVG Export Plug-In . SVG Version: 6.00 Build 0)  -->
<svg version="1.1" id="Layer_1" xmlns="http://www.w3.org/2000/svg" xmlns:xlink="http://www.w3.org/1999/xlink" x="0px" y="0px"
	 viewBox="0 0 256 256" style="enable-background:new 0 0 256 256;" xml:space="preserve">
<style type="text/css">
	.st0{fill:#330000;}
	.st1{fill:#FF9A00;}
</style>
<g id="Layer_2_00000022518786071460302070000009555718152299256479_">
	<g id="Surfaces_00000016754925965473485090000018154780835460140464_">
		<g id="Drawing_Surface">
			<g id="Outline_no_shadow_00000103964383832799469180000003034305438806672292_">
				<path class="st0" d="M45.3,3.2h165.3c25.1,0,45.3,20.3,45.3,45.3v158.9c0,25.1-20.3,45.3-45.3,45.3H45.3
					C20.3,252.8,0,232.5,0,207.5V48.5C0,23.5,20.3,3.2,45.3,3.2z"/>
			</g>
		</g>
	</g>
	<g id="Outlined_Mnemonics_Logos_00000066485442206739424790000015742720083725248908_">
		<g id="Ai">
			<path class="st1" d="M124.1,153H84.4L76.3,178c-0.2,1-1.1,1.6-2,1.5H54.2c-1.2,0-1.5-0.6-1.2-1.9l34.3-98.9
				c0.3-1.1,0.6-2.2,1.1-3.5c0.4-2.2,0.6-4.6,0.6-6.9c-0.1-0.5,0.3-1.1,0.9-1.2c0.1,0,0.2,0,0.3,0h27.3c0.9,0,1.3,0.3,1.4,0.9
				l38.9,109.9c0.3,1.2,0,1.7-1.1,1.7h-22.3c-0.7,0.1-1.5-0.4-1.7-1.2L124.1,153z M90.6,131.3h27.1c-0.6-2.2-1.5-4.9-2.5-7.7
				c-1-2.9-1.9-6-2.9-9.2c-1.1-3.3-2-6.5-3.1-9.8c-1.1-3.3-2-6.4-2.9-9.5c-0.9-3-1.6-5.8-2.3-8.3h-0.2c-1,4.6-2.1,9.2-3.6,13.8
				c-1.6,5.1-3.2,10.5-4.9,15.8C93.8,121.8,92.2,126.8,90.6,131.3L90.6,131.3z"/>
			<path class="st1" d="M181.1,85.3c-3.5,0.1-6.9-1.3-9.5-3.7c-2.5-2.7-3.7-6.2-3.6-9.8c-0.1-3.6,1.3-7,3.8-9.5
				c2.6-2.5,6-3.7,9.5-3.7c4.2,0,7.4,1.3,9.7,3.7c2.3,2.6,3.6,6,3.5,9.5c0.1,3.6-1.2,7.1-3.7,9.8C188.4,84.2,184.7,85.5,181.1,85.3z
				 M169.2,177.9V95.8c0-1.1,0.4-1.5,1.4-1.5h21.1c1,0,1.4,0.5,1.4,1.5v82.1c0,1.2-0.4,1.7-1.4,1.7h-20.9
				C169.7,179.6,169.2,179,169.2,177.9z"/>
		</g>
	</g>
</g>
</svg>
