<svg xmlns="http://www.w3.org/2000/svg" xmlns:xlink="http://www.w3.org/1999/xlink" width="926.6325" height="785.9741" viewBox="0 0 926.6325 785.9741"><defs><style>.cls-1{isolation:isolate;}.cls-2{fill:#3f3d56;}.cls-100,.cls-101,.cls-102,.cls-103,.cls-104,.cls-105,.cls-106,.cls-107,.cls-108,.cls-109,.cls-11,.cls-110,.cls-115,.cls-116,.cls-119,.cls-12,.cls-120,.cls-121,.cls-122,.cls-123,.cls-124,.cls-125,.cls-127,.cls-128,.cls-129,.cls-13,.cls-130,.cls-131,.cls-132,.cls-133,.cls-134,.cls-135,.cls-14,.cls-143,.cls-144,.cls-145,.cls-148,.cls-149,.cls-15,.cls-150,.cls-151,.cls-153,.cls-16,.cls-17,.cls-18,.cls-19,.cls-20,.cls-21,.cls-22,.cls-23,.cls-24,.cls-25,.cls-26,.cls-27,.cls-28,.cls-29,.cls-3,.cls-30,.cls-31,.cls-32,.cls-33,.cls-34,.cls-35,.cls-36,.cls-37,.cls-38,.cls-4,.cls-41,.cls-42,.cls-43,.cls-44,.cls-45,.cls-46,.cls-47,.cls-48,.cls-49,.cls-5,.cls-50,.cls-51,.cls-52,.cls-53,.cls-54,.cls-55,.cls-56,.cls-57,.cls-58,.cls-59,.cls-60,.cls-61,.cls-62,.cls-63,.cls-64,.cls-65,.cls-66,.cls-67,.cls-68,.cls-69,.cls-71,.cls-72,.cls-73,.cls-74,.cls-75,.cls-76,.cls-77,.cls-78,.cls-79,.cls-80,.cls-81,.cls-82,.cls-83,.cls-84,.cls-85,.cls-86,.cls-87,.cls-88,.cls-89,.cls-90,.cls-93,.cls-95,.cls-96,.cls-97,.cls-98,.cls-99{fill-rule:evenodd;}.cls-3{fill:url(#Безымянный_градиент_182);}.cls-4{fill:#400e86;}.cls-5{fill:#611d93;}.cls-113,.cls-115,.cls-116,.cls-118,.cls-126,.cls-135,.cls-142,.cls-145,.cls-146,.cls-29,.cls-34,.cls-5,.cls-57,.cls-73,.cls-96{mix-blend-mode:multiply;}.cls-130,.cls-132,.cls-142,.cls-146,.cls-152,.cls-34,.cls-5,.cls-57,.cls-73,.cls-96{opacity:0.5;}.cls-6{fill:url(#Безымянный_градиент_214);}.cls-10,.cls-11,.cls-117,.cls-130,.cls-132,.cls-152,.cls-7,.cls-8{mix-blend-mode:screen;}.cls-10,.cls-11,.cls-7,.cls-8{opacity:0.2;}.cls-7{fill:url(#Безымянный_градиент_218);}.cls-8{fill:url(#Безымянный_градиент_216);}.cls-9{fill:url(#Безымянный_градиент_214-2);}.cls-10{fill:url(#Безымянный_градиент_218-2);}.cls-11{fill:url(#Безымянный_градиент_216-2);}.cls-12{fill:url(#Безымянный_градиент_188);}.cls-13{fill:url(#Безымянный_градиент_37);}.cls-14{fill:#6829a4;}.cls-15{fill:url(#Безымянный_градиент_188-2);}.cls-16{fill:#4a0e72;}.cls-17{fill:url(#Безымянный_градиент_188-3);}.cls-18{fill:url(#Безымянный_градиент_182-2);}.cls-19{fill:#740e86;}.cls-20{fill:url(#Безымянный_градиент_325);}.cls-21{fill:url(#Безымянный_градиент_326);}.cls-22{fill:#a70047;}.cls-23{fill:#f2f0f5;}.cls-110,.cls-23,.cls-39,.cls-76{mix-blend-mode:soft-light;}.cls-24{fill:url(#Безымянный_градиент_337);}.cls-25{fill:url(#Безымянный_градиент_72);}.cls-26{fill:#5440be;}.cls-27{fill:#9c75d8;}.cls-28{fill:#6654c5;}.cls-126,.cls-135,.cls-147,.cls-29,.cls-73,.cls-95{fill:#614881;}.cls-118,.cls-126,.cls-29{opacity:0.3;}.cls-30{fill:url(#Безымянный_градиент_162);}.cls-31{fill:url(#Безымянный_градиент_365);}.cls-32{fill:url(#Безымянный_градиент_380);}.cls-33{fill:url(#Безымянный_градиент_108);}.cls-142,.cls-34{fill:#b15a93;}.cls-35{fill:url(#Безымянный_градиент_365-2);}.cls-36{fill:url(#Безымянный_градиент_377);}.cls-37{fill:url(#Безымянный_градиент_72-2);}.cls-38{fill:url(#Безымянный_градиент_164);}.cls-40{fill:#ffdded;}.cls-41{fill:url(#Безымянный_градиент_10);}.cls-42{fill:url(#Безымянный_градиент_7);}.cls-43{fill:#598800;}.cls-44{fill:#5e9339;}.cls-45{fill:#97b368;}.cls-46{fill:#b1cc00;}.cls-47{fill:#e5cc00;}.cls-48{fill:#ead631;}.cls-49{fill:url(#Безымянный_градиент_10-2);}.cls-50{fill:url(#Безымянный_градиент_7-2);}.cls-51{fill:#005d88;}.cls-52{fill:#005ad9;}.cls-53{fill:#5b5bff;}.cls-54{fill:#8d91ff;}.cls-55{fill:#c2baff;}.cls-56{fill:#ff8df4;}.cls-57{fill:#914881;}.cls-58{fill:url(#Безымянный_градиент_10-3);}.cls-59{fill:url(#Безымянный_градиент_7-3);}.cls-60{fill:#88005b;}.cls-61{fill:#d9005b;}.cls-62{fill:#ff665b;}.cls-63{fill:#ff928d;}.cls-64{fill:#ffc4ba;}.cls-65{fill:#ffd88d;}.cls-66{fill:url(#Безымянный_градиент_10-4);}.cls-67{fill:url(#Безымянный_градиент_12);}.cls-68{fill:url(#Безымянный_градиент_26);}.cls-69{fill:url(#Безымянный_градиент_118);}.cls-70{fill:#642f4d;}.cls-71{fill:url(#Безымянный_градиент_118-2);}.cls-72{fill:url(#Безымянный_градиент_26-2);}.cls-74{fill:url(#Безымянный_градиент_97);}.cls-75{fill:url(#Безымянный_градиент_85);}.cls-111,.cls-76,.cls-78{fill:#fff;}.cls-76{opacity:0.6;}.cls-77{fill:url(#Безымянный_градиент_72-3);}.cls-79{fill:url(#Безымянный_градиент_310);}.cls-80{fill:url(#Безымянный_градиент_106);}.cls-81{fill:#ff6bff;}.cls-82{fill:url(#Безымянный_градиент_132);}.cls-83{fill:url(#Безымянный_градиент_94);}.cls-84{fill:url(#Безымянный_градиент_94-2);}.cls-85{fill:#ddaee5;}.cls-86{fill:#f0dbf4;}.cls-87{fill:#ceecf4;}.cls-88{fill:#cec4f4;}.cls-89{fill:#ced1f4;}.cls-90{fill:#ffc4f4;}.cls-91{fill:url(#Безымянный_градиент_94-3);}.cls-92{fill:url(#Безымянный_градиент_132-2);}.cls-93{fill:url(#Безымянный_градиент_132-3);}.cls-94{fill:#130025;}.cls-96{fill:#6148b0;}.cls-97{fill:url(#Безымянный_градиент_72-4);}.cls-98{fill:#a900ff;}.cls-99{fill:#f0f;}.cls-100{fill:#ff60ff;}.cls-101{fill:#ff86ff;}.cls-102{fill:#ffb0ff;}.cls-103{fill:#ffdbff;}.cls-104{fill:#2f56ff;}.cls-105{fill:#2e8eff;}.cls-106{fill:#7f97ff;}.cls-107{fill:#cec2ff;}.cls-108{fill:#2fe7ff;}.cls-109{fill:#b0bfff;}.cls-110{fill:#ddc2ff;}.cls-112{fill:url(#Безымянный_градиент_210);}.cls-113,.cls-115,.cls-116,.cls-145{opacity:0.8;}.cls-114{fill:url(#Безымянный_градиент_282);}.cls-115{fill:url(#Безымянный_градиент_253);}.cls-116{fill:url(#Безымянный_градиент_253-2);}.cls-117{fill:url(#Безымянный_градиент_276);}.cls-118{fill:url(#Безымянный_градиент_279);}.cls-119{fill:url(#Безымянный_градиент_227);}.cls-120{fill:url(#Безымянный_градиент_244);}.cls-121{fill:url(#Безымянный_градиент_234);}.cls-122{fill:url(#Безымянный_градиент_240);}.cls-123{fill:url(#Безымянный_градиент_240-2);}.cls-124{fill:url(#Безымянный_градиент_26-3);}.cls-125{fill:url(#Безымянный_градиент_26-4);}.cls-127{fill:url(#Безымянный_градиент_151);}.cls-128{fill:url(#Безымянный_градиент_157);}.cls-129{fill:url(#Безымянный_градиент_154);}.cls-130{fill:url(#Безымянный_градиент_398);}.cls-131{fill:url(#Безымянный_градиент_80);}.cls-132{fill:url(#Безымянный_градиент_399);}.cls-133{fill:url(#Безымянный_градиент_184);}.cls-134{fill:#9f2e45;}.cls-136{fill:url(#Безымянный_градиент_337-2);}.cls-137{fill:url(#Безымянный_градиент_72-5);}.cls-138{fill:#7c77ff;}.cls-139{fill:url(#Безымянный_градиент_449);}.cls-140{fill:url(#Безымянный_градиент_158);}.cls-141{fill:#9a0054;}.cls-143{fill:url(#Безымянный_градиент_134);}.cls-144{fill:url(#Безымянный_градиент_127);}.cls-145{fill:url(#Безымянный_градиент_87);}.cls-148{fill:url(#Безымянный_градиент_95);}.cls-149{fill:url(#Безымянный_градиент_109);}.cls-150{fill:url(#Безымянный_градиент_137);}.cls-151{fill:url(#Безымянный_градиент_141);}.cls-152{fill:url(#Безымянный_градиент_146);}.cls-153{fill:url(#Безымянный_градиент_170);}</style><linearGradient id="Безымянный_градиент_182" x1="637.04" y1="224.9825" x2="637.04" y2="52.7297" gradientTransform="matrix(0.9757, 0.2191, -0.2191, 0.9757, 65.9592, -99.313)" gradientUnits="userSpaceOnUse"><stop offset="0" stop-color="#590e86"/><stop offset="0.9848" stop-color="#4d2b90"/></linearGradient><radialGradient id="Безымянный_градиент_214" cx="610.0868" cy="165.7039" r="123.5112" gradientTransform="translate(642.0516 -430.6982) rotate(76.9714)" gradientUnits="userSpaceOnUse"><stop offset="0.0152" stop-color="#462490"/><stop offset="0.6732" stop-color="#470189"/><stop offset="1" stop-color="#b14a48"/></radialGradient><radialGradient id="Безымянный_градиент_218" cx="577.8168" cy="179.3844" r="38.0323" gradientTransform="translate(615.2683 -424.4768) rotate(76.3019)" gradientUnits="userSpaceOnUse"><stop offset="0" stop-color="#005eff"/><stop offset="0.0286" stop-color="#0058ef"/><stop offset="0.1386" stop-color="#0044b8"/><stop offset="0.2522" stop-color="#003287"/><stop offset="0.3671" stop-color="#00225d"/><stop offset="0.4834" stop-color="#00163c"/><stop offset="0.6017" stop-color="#000c21"/><stop offset="0.7227" stop-color="#00050f"/><stop offset="0.8482" stop-color="#000104"/><stop offset="0.9851"/></radialGradient><radialGradient id="Безымянный_градиент_216" cx="632.8548" cy="231.4708" r="38.0336" gradientTransform="matrix(1, -0.0001, 0, 1.1998, -16.9844, -110.9762)" gradientUnits="userSpaceOnUse"><stop offset="0" stop-color="#009cff"/><stop offset="0.0286" stop-color="#0092ef"/><stop offset="0.1386" stop-color="#0071b8"/><stop offset="0.2522" stop-color="#005287"/><stop offset="0.3671" stop-color="#00395d"/><stop offset="0.4834" stop-color="#00243c"/><stop offset="0.6017" stop-color="#001421"/><stop offset="0.7227" stop-color="#00090f"/><stop offset="0.8482" stop-color="#000204"/><stop offset="0.9851"/></radialGradient><radialGradient id="Безымянный_градиент_214-2" cx="449.7178" cy="272.1382" r="95.4355" gradientTransform="matrix(0.698, 0.716, -0.716, 0.698, 320.8977, -295.7593)" xlink:href="#Безымянный_градиент_214"/><radialGradient id="Безымянный_градиент_218-2" cx="424.7834" cy="282.7087" r="29.3871" gradientTransform="translate(401.1691 -292.3914) rotate(55.966)" xlink:href="#Безымянный_градиент_218"/><radialGradient id="Безымянный_градиент_216-2" cx="443.5752" cy="264.688" r="29.3864" gradientTransform="matrix(0.6255, -0.7802, 0.9361, 0.7505, -100.1403, 342.0052)" xlink:href="#Безымянный_градиент_216"/><linearGradient id="Безымянный_градиент_188" x1="650.701" y1="331.0917" x2="650.701" y2="243.7524" gradientTransform="matrix(0.92, 0.3918, -0.3918, 0.92, 182.7791, -165.0599)" gradientUnits="userSpaceOnUse"><stop offset="0" stop-color="#590e86"/><stop offset="0.9848" stop-color="#462490"/></linearGradient><linearGradient id="Безымянный_градиент_37" x1="727.9312" y1="401.2802" x2="727.9312" y2="313.6762" gradientTransform="matrix(0.9973, 0.0733, -0.0733, 0.9973, 29.6753, -35.2533)" gradientUnits="userSpaceOnUse"><stop offset="0" stop-color="#2c3bae"/><stop offset="0.9848" stop-color="#4624a9"/></linearGradient><linearGradient id="Безымянный_градиент_188-2" x1="84.8111" y1="565.1238" x2="84.8111" y2="467.611" gradientTransform="translate(-232.9432 -18.464) rotate(-29.177)" xlink:href="#Безымянный_градиент_188"/><linearGradient id="Безымянный_градиент_188-3" x1="167.9696" y1="580.2137" x2="167.9696" y2="527.4296" gradientTransform="matrix(-0.9227, -0.3856, -0.3856, 0.9227, 554.1035, -311.0683)" xlink:href="#Безымянный_градиент_188"/><linearGradient id="Безымянный_градиент_182-2" x1="83.471" y1="284.6682" x2="83.471" y2="217.9309" gradientTransform="translate(137.9597 -23.82) rotate(25.2838)" xlink:href="#Безымянный_градиент_182"/><radialGradient id="Безымянный_градиент_325" cx="177.389" cy="226.7187" r="35.1287" gradientTransform="matrix(0.8934, 0.4492, -0.4492, 0.8934, 170.7537, -74.8804)" gradientUnits="userSpaceOnUse"><stop offset="0" stop-color="#ff224d"/><stop offset="0.0137" stop-color="#fd214d"/><stop offset="0.2353" stop-color="#e41353"/><stop offset="0.4647" stop-color="#d10857"/><stop offset="0.705" stop-color="#c70259"/><stop offset="0.9736" stop-color="#c3005a"/></radialGradient><linearGradient id="Безымянный_градиент_326" x1="175.7897" y1="282.8737" x2="175.7897" y2="199.5184" gradientTransform="matrix(0.8934, 0.4492, -0.4492, 0.8934, 170.7537, -74.8804)" gradientUnits="userSpaceOnUse"><stop offset="0" stop-color="#ff427e"/><stop offset="1" stop-color="#ff5973"/></linearGradient><linearGradient id="Безымянный_градиент_337" x1="243.4616" y1="305.0584" x2="347.8293" y2="200.6907" gradientTransform="matrix(0.8934, 0.4492, -0.4492, 0.8934, 170.7537, -74.8804)" gradientUnits="userSpaceOnUse"><stop offset="0.0264" stop-color="#9042ff"/><stop offset="1" stop-color="#6e7cff"/></linearGradient><linearGradient id="Безымянный_градиент_72" x1="240.5621" y1="297.0645" x2="350.748" y2="186.8786" gradientTransform="matrix(0.8934, 0.4492, -0.4492, 0.8934, 170.7537, -74.8804)" gradientUnits="userSpaceOnUse"><stop offset="0.0264" stop-color="#bb86ff"/><stop offset="1" stop-color="#7c9fff"/></linearGradient><linearGradient id="Безымянный_градиент_162" x1="619.0548" y1="459.042" x2="634.2526" y2="432.7186" gradientUnits="userSpaceOnUse"><stop offset="0.0335" stop-color="#ffbd00"/><stop offset="1" stop-color="#ffe727"/></linearGradient><linearGradient id="Безымянный_градиент_365" x1="649.2457" y1="683.9916" x2="649.2457" y2="457.2629" gradientUnits="userSpaceOnUse"><stop offset="0" stop-color="#2d2f76"/><stop offset="0.9792" stop-color="#531d68"/></linearGradient><linearGradient id="Безымянный_градиент_380" x1="647.1446" y1="683.3254" x2="647.1446" y2="456.5967" gradientUnits="userSpaceOnUse"><stop offset="0" stop-color="#593c9c"/><stop offset="0.9792" stop-color="#5c0c77"/></linearGradient><linearGradient id="Безымянный_градиент_108" x1="644.144" y1="679.5036" x2="644.144" y2="460.4185" gradientUnits="userSpaceOnUse"><stop offset="0" stop-color="#4aa0ff"/><stop offset="1" stop-color="#00cea9"/></linearGradient><linearGradient id="Безымянный_градиент_365-2" x1="627.7213" y1="683.9916" x2="627.7213" y2="457.2629" xlink:href="#Безымянный_градиент_365"/><linearGradient id="Безымянный_градиент_377" x1="625.6202" y1="683.3254" x2="625.6202" y2="456.5967" gradientUnits="userSpaceOnUse"><stop offset="0.0208" stop-color="#6b2289"/><stop offset="1" stop-color="#594a9c"/></linearGradient><linearGradient id="Безымянный_градиент_72-2" x1="669.7858" y1="685.4419" x2="669.7858" y2="453.4906" gradientTransform="matrix(1, 0, 0, 1, 0, 0)" xlink:href="#Безымянный_градиент_72"/><linearGradient id="Безымянный_градиент_164" x1="577.1492" y1="459.702" x2="589.5223" y2="438.2713" gradientUnits="userSpaceOnUse"><stop offset="0" stop-color="#fe0173"/><stop offset="1" stop-color="#d842ff"/></linearGradient><linearGradient id="Безымянный_градиент_10" x1="362.9299" y1="659.3031" x2="362.9299" y2="457.4507" gradientTransform="translate(-182.0925 402.8287) rotate(-62.4202)" gradientUnits="userSpaceOnUse"><stop offset="0.0208" stop-color="#c289b0"/><stop offset="1" stop-color="#ff93ac"/></linearGradient><linearGradient id="Безымянный_градиент_7" x1="363.2351" y1="658.5937" x2="363.2351" y2="456.7413" gradientTransform="translate(-182.0925 402.8287) rotate(-62.4202)" gradientUnits="userSpaceOnUse"><stop offset="0.0208" stop-color="#ffdbe7"/><stop offset="1" stop-color="#ffe8de"/></linearGradient><linearGradient id="Безымянный_градиент_10-2" x1="379.5529" y1="615.7239" x2="379.5529" y2="459.071" xlink:href="#Безымянный_градиент_10"/><linearGradient id="Безымянный_градиент_7-2" x1="379.7046" y1="614.9668" x2="379.7046" y2="458.3139" xlink:href="#Безымянный_градиент_7"/><linearGradient id="Безымянный_градиент_10-3" x1="390.7965" y1="564.8309" x2="390.7965" y2="456.7414" xlink:href="#Безымянный_градиент_10"/><linearGradient id="Безымянный_градиент_7-3" x1="390.7964" y1="564.0586" x2="390.7964" y2="455.9692" xlink:href="#Безымянный_градиент_7"/><linearGradient id="Безымянный_градиент_10-4" x1="390.798" y1="538.1535" x2="390.798" y2="451.2203" xlink:href="#Безымянный_градиент_10"/><linearGradient id="Безымянный_градиент_12" x1="390.7981" y1="537.4028" x2="390.7981" y2="450.4697" gradientTransform="translate(-182.0925 402.8287) rotate(-62.4202)" gradientUnits="userSpaceOnUse"><stop offset="0.0208" stop-color="#ffe5ee"/><stop offset="1" stop-color="#ffe8de"/></linearGradient><linearGradient id="Безымянный_градиент_26" x1="261.7042" y1="478.8984" x2="261.7042" y2="462.5529" gradientTransform="translate(-182.0925 402.8287) rotate(-62.4202)" gradientUnits="userSpaceOnUse"><stop offset="0.0208" stop-color="#b1acc7"/><stop offset="1" stop-color="#cccae2"/></linearGradient><linearGradient id="Безымянный_градиент_118" x1="261.7042" y1="475.4691" x2="261.7042" y2="465.982" gradientTransform="translate(-182.0925 402.8287) rotate(-62.4202)" gradientUnits="userSpaceOnUse"><stop offset="0" stop-color="#a6a3cc"/><stop offset="0.9792" stop-color="#8c7dac"/></linearGradient><linearGradient id="Безымянный_градиент_118-2" x1="377.4254" y1="671.9919" x2="377.4254" y2="620.1855" gradientTransform="matrix(1, 0, 0, 1, 0, 0)" xlink:href="#Безымянный_градиент_118"/><linearGradient id="Безымянный_градиент_26-2" x1="376.404" y1="682.1022" x2="376.404" y2="671.9952" gradientTransform="matrix(1, 0, 0, 1, 0, 0)" xlink:href="#Безымянный_градиент_26"/><linearGradient id="Безымянный_градиент_97" x1="137.7227" y1="478.779" x2="617.284" y2="478.779" gradientUnits="userSpaceOnUse"><stop offset="0" stop-color="#ffc393"/><stop offset="0.1157" stop-color="#9272ae"/><stop offset="0.9146" stop-color="#8f87ae"/><stop offset="1" stop-color="#e7e6f1"/></linearGradient><radialGradient id="Безымянный_градиент_85" cx="161.9639" cy="425.8698" r="312.463" gradientUnits="userSpaceOnUse"><stop offset="0" stop-color="#ac344c"/><stop offset="0.9848" stop-color="#4d2b90"/></radialGradient><linearGradient id="Безымянный_градиент_72-3" x1="213.0265" y1="647.1341" x2="544.1663" y2="315.9943" gradientTransform="matrix(1, 0, 0, 1, 0, 0)" xlink:href="#Безымянный_градиент_72"/><linearGradient id="Безымянный_градиент_310" x1="148.2607" y1="464.7777" x2="606.4338" y2="464.7777" gradientUnits="userSpaceOnUse"><stop offset="0.0152" stop-color="#1a0018"/><stop offset="1" stop-color="#0b0425"/></linearGradient><linearGradient id="Безымянный_градиент_106" x1="584.732" y1="604.296" x2="592.233" y2="593.9717" gradientUnits="userSpaceOnUse"><stop offset="0.0264" stop-color="#bd5ac9"/><stop offset="1" stop-color="#a45cff"/></linearGradient><linearGradient id="Безымянный_градиент_132" x1="336.1619" y1="537.0172" x2="441.3039" y2="392.3017" gradientUnits="userSpaceOnUse"><stop offset="0.0264" stop-color="#ff9ddf"/><stop offset="1" stop-color="#e0c7ff"/></linearGradient><linearGradient id="Безымянный_градиент_94" x1="380.7961" y1="522.3012" x2="481.6194" y2="383.5298" gradientUnits="userSpaceOnUse"><stop offset="0.0264" stop-color="#ff6bcf"/><stop offset="1" stop-color="#b67cff"/></linearGradient><linearGradient id="Безымянный_градиент_94-2" x1="222.899" y1="394.1641" x2="241.1064" y2="369.1038" xlink:href="#Безымянный_градиент_94"/><linearGradient id="Безымянный_градиент_94-3" x1="333.8679" y1="441.3441" x2="351.3694" y2="417.2553" xlink:href="#Безымянный_градиент_94"/><linearGradient id="Безымянный_градиент_132-2" x1="305.9473" y1="432.5224" x2="315.28" y2="419.677" xlink:href="#Безымянный_градиент_132"/><linearGradient id="Безымянный_градиент_132-3" x1="232.1917" y1="459.1474" x2="237.9512" y2="451.2202" xlink:href="#Безымянный_градиент_132"/><linearGradient id="Безымянный_градиент_72-4" x1="386.8847" y1="451.257" x2="575.631" y2="451.257" gradientTransform="matrix(1, 0, 0, 1, 0, 0)" xlink:href="#Безымянный_градиент_72"/><radialGradient id="Безымянный_градиент_210" cx="71.9802" cy="505.4527" r="81.2992" gradientTransform="translate(0 -208.8278) scale(1 1.4132)" gradientUnits="userSpaceOnUse"><stop offset="0.2484" stop-color="#fffeae"/><stop offset="0.2919" stop-color="#fff9a8"/><stop offset="0.4838" stop-color="#ffe795"/><stop offset="0.6775" stop-color="#ffdd89"/><stop offset="0.8743" stop-color="#ffd985"/><stop offset="0.893" stop-color="#ffd385"/><stop offset="0.9422" stop-color="#ffc884"/><stop offset="1" stop-color="#ffc584"/></radialGradient><radialGradient id="Безымянный_градиент_282" cx="64.6146" cy="539.7825" r="69.9254" gradientUnits="userSpaceOnUse"><stop offset="0.0615" stop-color="#fff"/><stop offset="0.1536" stop-color="#fefbfd"/><stop offset="0.9944" stop-color="#ffbede"/></radialGradient><linearGradient id="Безымянный_градиент_253" x1="64.9964" y1="610.4855" x2="64.9964" y2="541.3625" gradientUnits="userSpaceOnUse"><stop offset="0.0056" stop-color="#d486c2"/><stop offset="0.9385" stop-color="#ffddd1"/></linearGradient><linearGradient id="Безымянный_градиент_253-2" x1="64.3475" y1="612.0315" x2="64.3475" y2="603.6132" xlink:href="#Безымянный_градиент_253"/><radialGradient id="Безымянный_градиент_276" cx="-248.9526" cy="450.5972" r="27.9759" gradientTransform="matrix(0.4862, -0.1987, 0.3783, 0.9257, -30.6175, 71.6824)" gradientUnits="userSpaceOnUse"><stop offset="0.0056" stop-color="#ffffa9"/><stop offset="0.0864" stop-color="#e0e095"/><stop offset="0.2771" stop-color="#9d9d68"/><stop offset="0.4583" stop-color="#656543"/><stop offset="0.6246" stop-color="#393926"/><stop offset="0.773" stop-color="#1a1a11"/><stop offset="0.8983" stop-color="#070705"/><stop offset="0.9851"/></radialGradient><linearGradient id="Безымянный_градиент_279" x1="64.3406" y1="614.8421" x2="64.3406" y2="536.6225" gradientUnits="userSpaceOnUse"><stop offset="0.0056" stop-color="#d486c2"/><stop offset="0.9385" stop-color="#fff"/></linearGradient><radialGradient id="Безымянный_градиент_227" cx="62.915" cy="615.6143" r="26.7052" gradientTransform="translate(0 -112.8667) scale(1 1.1833)" gradientUnits="userSpaceOnUse"><stop offset="0" stop-color="#b3b0d3"/><stop offset="0.4644" stop-color="#b1aed1"/><stop offset="0.6918" stop-color="#aca6cb"/><stop offset="0.8671" stop-color="#a399c1"/><stop offset="0.9792" stop-color="#998cb6"/></radialGradient><linearGradient id="Безымянный_градиент_244" x1="64.1559" y1="653.6219" x2="64.1559" y2="647.133" gradientUnits="userSpaceOnUse"><stop offset="0" stop-color="#7f7bb5"/><stop offset="0.9792" stop-color="#685491"/></linearGradient><radialGradient id="Безымянный_градиент_234" cx="64.0231" cy="652.6415" r="12.6827" gradientTransform="translate(0 -560.8083) scale(1 1.8593)" gradientUnits="userSpaceOnUse"><stop offset="0" stop-color="#474b72"/><stop offset="0.4163" stop-color="#474870"/><stop offset="0.6894" stop-color="#454068"/><stop offset="0.9208" stop-color="#43315a"/><stop offset="0.9848" stop-color="#422b55"/></radialGradient><radialGradient id="Безымянный_градиент_240" cx="64.9964" cy="636.505" r="24.783" gradientTransform="translate(0 -546.9423) scale(1 1.8593)" gradientUnits="userSpaceOnUse"><stop offset="0" stop-color="#9490c1"/><stop offset="0.4546" stop-color="#938ebf"/><stop offset="0.6772" stop-color="#8d86b9"/><stop offset="0.8488" stop-color="#8579ae"/><stop offset="0.9792" stop-color="#7a69a0"/></radialGradient><radialGradient id="Безымянный_градиент_240-2" cx="66.2352" cy="621.5954" r="25.8099" gradientTransform="translate(0 -534.1307) scale(1 1.8593)" xlink:href="#Безымянный_градиент_240"/><linearGradient id="Безымянный_градиент_26-3" x1="66.2352" y1="628.9637" x2="66.2352" y2="610.4855" gradientTransform="matrix(1, 0, 0, 1, 0, 0)" xlink:href="#Безымянный_градиент_26"/><linearGradient id="Безымянный_градиент_26-4" x1="64.9964" y1="641.1749" x2="64.9964" y2="626.3176" gradientTransform="matrix(1, 0, 0, 1, 0, 0)" xlink:href="#Безымянный_градиент_26"/><linearGradient id="Безымянный_градиент_151" x1="292.6687" y1="277.1242" x2="294.9542" y2="325.4371" gradientTransform="matrix(-0.8506, -0.5257, 0.3827, -0.6193, 261.2445, 687.3869)" gradientUnits="userSpaceOnUse"><stop offset="0" stop-color="#e55036"/><stop offset="0.4218" stop-color="#5b1b5c"/><stop offset="0.9848" stop-color="#2a164a"/></linearGradient><linearGradient id="Безымянный_градиент_157" x1="237.0222" y1="295.9861" x2="237.0222" y2="262.4909" gradientTransform="translate(230.6795 737.4294) rotate(-148.2825)" gradientUnits="userSpaceOnUse"><stop offset="0.0264" stop-color="#9a007e"/><stop offset="0.3827" stop-color="#cd0558"/><stop offset="1" stop-color="#ff792e"/></linearGradient><radialGradient id="Безымянный_градиент_154" cx="158.0601" cy="267.3267" r="4.1699" gradientTransform="matrix(-0.8506, -0.5257, 0.2411, -0.3901, 311.7489, 605.7697)" gradientUnits="userSpaceOnUse"><stop offset="0" stop-color="#2f3460"/><stop offset="0.6397" stop-color="#391b5c"/><stop offset="0.9848" stop-color="#2a164a"/></radialGradient><linearGradient id="Безымянный_градиент_398" x1="287.5188" y1="272.6732" x2="426.4695" y2="272.6732" gradientTransform="translate(230.6795 737.4294) rotate(-148.2825)" gradientUnits="userSpaceOnUse"><stop offset="0.0056" stop-color="#6052a9"/><stop offset="0.0565" stop-color="#594c9c"/><stop offset="0.292" stop-color="#393165"/><stop offset="0.5108" stop-color="#211c39"/><stop offset="0.7061" stop-color="#0f0d1a"/><stop offset="0.8708" stop-color="#040307"/><stop offset="0.9851"/></linearGradient><linearGradient id="Безымянный_градиент_80" x1="401.7407" y1="291.0338" x2="401.7407" y2="267.5177" gradientTransform="translate(230.6795 737.4294) rotate(-148.2825)" gradientUnits="userSpaceOnUse"><stop offset="0.433" stop-color="#d8d9ff"/><stop offset="0.8352" stop-color="#80618e"/><stop offset="0.9637" stop-color="#e3dce6"/></linearGradient><linearGradient id="Безымянный_градиент_399" x1="172.1353" y1="294.3302" x2="172.1353" y2="264.2187" gradientTransform="translate(230.6795 737.4294) rotate(-148.2825)" gradientUnits="userSpaceOnUse"><stop offset="0.0149"/><stop offset="0.1292" stop-color="#040307"/><stop offset="0.2939" stop-color="#0f0d1a"/><stop offset="0.4892" stop-color="#211c39"/><stop offset="0.708" stop-color="#393165"/><stop offset="0.9435" stop-color="#594c9c"/><stop offset="0.9944" stop-color="#6052a9"/></linearGradient><linearGradient id="Безымянный_градиент_184" x1="228.7911" y1="271.5654" x2="228.7911" y2="264.9996" gradientTransform="translate(230.6795 737.4294) rotate(-148.2825)" gradientUnits="userSpaceOnUse"><stop offset="0.0264" stop-color="#930045"/><stop offset="1" stop-color="#6b004d"/></linearGradient><linearGradient id="Безымянный_градиент_337-2" x1="798.8733" y1="686.9771" x2="798.8733" y2="591.8513" gradientTransform="matrix(1, 0, 0, 1, 0, 0)" xlink:href="#Безымянный_градиент_337"/><linearGradient id="Безымянный_градиент_72-5" x1="781.9279" y1="686.9771" x2="781.9279" y2="587.3609" gradientTransform="matrix(1, 0, 0, 1, 0, 0)" xlink:href="#Безымянный_градиент_72"/><linearGradient id="Безымянный_градиент_449" x1="885.8668" y1="688.1127" x2="885.8668" y2="606.6598" gradientUnits="userSpaceOnUse"><stop offset="0" stop-color="#7c004d"/><stop offset="0.9736" stop-color="#af0059"/></linearGradient><linearGradient id="Безымянный_градиент_158" x1="872.978" y1="688.1127" x2="872.978" y2="606.6598" gradientUnits="userSpaceOnUse"><stop offset="0" stop-color="#ff224d"/><stop offset="0.9736" stop-color="#c3005a"/></linearGradient><radialGradient id="Безымянный_градиент_134" cx="130.9702" cy="702.3483" r="96.9035" gradientTransform="translate(32.0889 404.5018) rotate(0.149) scale(1 0.426)" gradientUnits="userSpaceOnUse"><stop offset="0" stop-color="#272360"/><stop offset="0.9848" stop-color="#27003d"/></radialGradient><linearGradient id="Безымянный_градиент_127" x1="65.1043" y1="666.7537" x2="266.8856" y2="666.7537" gradientTransform="translate(33.137 1.3876) rotate(0.149)" gradientUnits="userSpaceOnUse"><stop offset="0" stop-color="#c43440"/><stop offset="0.6397" stop-color="#6d1b5c"/><stop offset="0.9848" stop-color="#2a2cd4"/></linearGradient><linearGradient id="Безымянный_градиент_87" x1="65.1043" y1="682.494" x2="229.7756" y2="682.494" gradientTransform="translate(33.137 1.3876) rotate(0.149)" gradientUnits="userSpaceOnUse"><stop offset="0.0056" stop-color="#542f83"/><stop offset="0.9385" stop-color="#fff"/></linearGradient><radialGradient id="Безымянный_градиент_95" cx="123.3001" cy="635.2661" r="15.114" gradientTransform="translate(33.137 1.3876) rotate(0.149)" gradientUnits="userSpaceOnUse"><stop offset="0" stop-color="#635272"/><stop offset="0.3142" stop-color="#614f70"/><stop offset="0.523" stop-color="#594669"/><stop offset="0.701" stop-color="#4c375e"/><stop offset="0.8609" stop-color="#3a224e"/><stop offset="0.9848" stop-color="#270c3d"/></radialGradient><radialGradient id="Безымянный_градиент_109" cx="109.1824" cy="643.0159" r="17.1577" gradientTransform="translate(33.137 1.3876) rotate(0.149)" gradientUnits="userSpaceOnUse"><stop offset="0" stop-color="#2f1160"/><stop offset="0.9848" stop-color="#1d002c"/></radialGradient><linearGradient id="Безымянный_градиент_137" x1="183.354" y1="658.8565" x2="250.5625" y2="658.8565" gradientTransform="translate(33.137 1.3876) rotate(0.149)" gradientUnits="userSpaceOnUse"><stop offset="0.071" stop-color="#f92cff"/><stop offset="0.6034" stop-color="#009fff"/><stop offset="0.9916" stop-color="#00ff90"/></linearGradient><linearGradient id="Безымянный_градиент_141" x1="122.0349" y1="635.0159" x2="156.1043" y2="635.0159" gradientTransform="translate(33.137 1.3876) rotate(0.149)" gradientUnits="userSpaceOnUse"><stop offset="0" stop-color="#009fff"/><stop offset="0.929" stop-color="#f92cff"/></linearGradient><radialGradient id="Безымянный_градиент_146" cx="415.6514" cy="586.5621" r="15.1784" gradientTransform="matrix(2.3023, 0, 0, 0.7608, -792.764, 206.8977)" gradientUnits="userSpaceOnUse"><stop offset="0.0056" stop-color="#003772"/><stop offset="0.0857" stop-color="#003064"/><stop offset="0.368" stop-color="#001c39"/><stop offset="0.622" stop-color="#000d1a"/><stop offset="0.8363" stop-color="#000307"/><stop offset="0.9851"/></radialGradient><radialGradient id="Безымянный_градиент_170" cx="120.1236" cy="663.7624" r="27.7917" gradientTransform="matrix(1, 0.0026, -0.001, 0.3909, 32.0858, 405.6799)" gradientUnits="userSpaceOnUse"><stop offset="0" stop-color="#0f062d"/><stop offset="0.9848" stop-color="#0e0020"/></radialGradient></defs><g class="cls-1"><g id="Layer_1" data-name="Layer 1"><path class="cls-2" d="M894.2028,329.0562c-46.34,59.26-133.78,72.83-206.13,52.19a335.5136,335.5136,0,0,1-68.1-28.35c-12.54-6.81-24.78-14.28-36.77-22.24-2.95-1.95-5.9-3.93-8.82-5.95q-2.9855-2.04-5.95-4.13c-24.76-17.42-48.55-36.53-71.94-55.53-58.39-47.43-118.38-96.32-190.12-118.95-14.78-4.66-33.9-6.84-43.04,5.68-7.93,10.87-3.09,26.26,3.62,37.92,24.89,43.19,70.07,70.46,115.29,91.43s93.12,37.96,132.43,68.62,69.32,79.39,61.28,128.58c-6.93,42.39-41.54,76.83-81.78,91.84-40.24,15-85.12,12.91-126.95,3.17-41.83-9.75-81.54-26.76-121.91-41.42-24.34-8.85-56.16-14.97-72.31,5.28-13.64,17.11-5.8,44.1,10.81,58.34s39.09,19.01,60.54,23.29q99.9,19.95,199.8,39.89c20.43,4.07,41.34,8.33,59.14,19.17,17.8,10.83,32.16,29.75,31.65,50.58-.51,20.53-15.54,38.67-33.96,47.76-18.41,9.08-39.67,10.48-60.18,9.5-76.86-3.68-297.21-125.79-350.06-141.4-33.96-10.02-71.09-24.74-85.41-57.12-17.83-40.31,11.51-89.08,51.56-107.49,40.04-18.42,86.46-14.34,130.1-8.14s88.72,14.09,131.2,2.31,81.4-50.18,77.21-94.06c-3.65-38.18-38.04-66.95-74.23-79.63-28.33-9.93-58.47-12.63-88.2295-17.1-8.26-1.23-16.49-2.61-24.64-4.31a307.0829,307.0829,0,0,1-60.75-19.5,312.9244,312.9244,0,0,1-58.04-33.31,305.2562,305.2562,0,0,1-40.32-35.01q-2.8353-2.94-5.61-6.01c-1.76-1.96-3.5-3.96-5.2-6-22.12-26.43-38.46-58.98-33.56-92.52,4.89-33.45,30.96-61.3,62-74.68,17.94-7.73,37.29-11.19,56.88-11.69a233.7908,233.7908,0,0,1,42.78,3.08c65.41,10.46,125.35,42.24,181.9605,76.65,56.6,34.41,111.76,72.18,173.29,96.71,61.53,24.54,131.57,34.93,193.99,12.74,62.42-22.18,113.7-82.7,110.65-148.87,41.4,35.65,76.58,80.46,92.16,132.82S927.8527,286.0163,894.2028,329.0562Z" transform="translate(0.0001 -0.0197)"/><path class="cls-3" d="M739.7364,106.0309l-129.26-21.016L574.4547,245.4577l127.5495,28.6364ZM694.227,260.6241,615.8107,244.21l27.827-140.5286L726.81,115.4942Z" transform="translate(0.0001 -0.0197)"/><polygon class="cls-4" points="717.744 277.608 700.231 273.474 739.736 106.011 760.54 110.957 717.744 277.608"/><polygon class="cls-4" points="726.81 115.475 643.638 103.661 615.811 244.19 587.778 238.315 616.461 93.45 727.85 110.844 726.81 115.475"/><polygon class="cls-5" points="616.461 93.45 639.795 123.068 643.638 103.661 726.81 115.475 727.85 110.844 616.461 93.45"/><polygon class="cls-5" points="642.007 260.604 648.455 251.023 623.031 245.701 613.355 254.172 642.007 260.604"/><circle class="cls-6" cx="591.8957" cy="188.4427" r="75.3698" transform="translate(274.8682 722.5996) rotate(-76.9714)"/><circle class="cls-7" cx="577.8167" cy="179.3844" r="38.0323" transform="translate(266.7041 698.2672) rotate(-76.3019)"/><ellipse class="cls-8" cx="615.849" cy="166.7062" rx="38.0323" ry="45.6327" transform="translate(-18.7753 232.3589) rotate(-21.0547)"/><circle class="cls-9" cx="417.5535" cy="218.4045" r="58.2345" transform="translate(104.3563 570.4628) rotate(-75.9569)"/><circle class="cls-10" cx="404.6311" cy="217.8332" r="29.3856" transform="translate(160.4113 607.0876) rotate(-86.1928)"/><path class="cls-11" d="M443.4715,171.6489c15.1929,12.18,19.2795,32.3193,9.1279,44.9817s-30.6973,13.0529-45.89.8727-19.2794-32.3193-9.1278-44.9815S428.2788,159.4687,443.4715,171.6489Z" transform="translate(0.0001 -0.0197)"/><polygon class="cls-12" points="654.275 300.66 628.082 373.799 683.349 407.966 716.655 329.758 654.275 300.66"/><polygon class="cls-13" points="716.655 329.758 775.01 348.31 736.728 419.073 683.349 407.966 716.655 329.758"/><polygon class="cls-14" points="654.275 300.66 719.409 318.714 775.01 348.31 716.655 329.758 654.275 300.66"/><polygon class="cls-15" points="35.535 367.184 82.191 440.306 150.133 414.878 103.865 332.012 35.535 367.184"/><polygon class="cls-16" points="103.865 332.012 160.136 293.184 196.429 375.351 150.133 414.878 103.865 332.012"/><polygon class="cls-14" points="35.535 367.184 96 322.031 160.136 293.184 103.865 332.012 35.535 367.184"/><polygon class="cls-17" points="214.925 118.839 194.306 161.027 156.204 151.509 176.018 104.104 214.925 118.839"/><polygon class="cls-16" points="176.018 104.104 143.373 86.664 126.494 128.726 156.204 151.509 176.018 104.104"/><polygon class="cls-14" points="214.925 118.839 179.637 98.253 143.373 86.664 176.018 104.104 214.925 118.839"/><path class="cls-18" d="M100.403,199.4588,7.7225,189.69l96.1847,85.232,100.8513,12.9224Zm3.86,70.4426L24.3523,195.2765l76.9079,9.98L190.8,281.793Z" transform="translate(0.0001 -0.0197)"/><polygon class="cls-19" points="7.723 189.67 8.272 200.296 100.832 281.979 103.907 274.902 7.723 189.67"/><polygon class="cls-4" points="204.759 287.824 198.544 292.631 100.832 281.979 103.907 274.902 204.759 287.824"/><polygon class="cls-4" points="30.913 200.625 100.517 208.691 179.024 280.155 190.8 281.773 101.26 205.237 24.352 195.257 30.913 200.625"/><path class="cls-20" d="M253.403,224.9063l-.37-6.403,3.7388-12.1531-7.7833-11.8453L236.35,193.1131l-5.73-2.881-8.6555-9.3143-14.15.8178-7.5249,10.25-5.36,3.5218-12.3944,2.8388-6.3666,12.6631,5.1139,11.6415.37,6.403-3.7388,12.153,7.7831,11.8453,12.6388,1.3919,5.73,2.8809,8.6555,9.3143,14.15-.8178,7.5247-10.25,5.36-3.5219,12.3944-2.8387,6.3666-12.6631Zm-45.9173,18.4775a21.9438,21.9438,0,1,1,29.4624-9.7484A21.944,21.944,0,0,1,207.4857,243.3838Z" transform="translate(0.0001 -0.0197)"/><path class="cls-21" d="M256.6871,220.7332l-.382-6.61,3.86-12.5468L252.13,189.3476l-13.048-1.4369-5.9157-2.9743L224.23,175.32l-14.6081.8444-7.7685,10.5815-5.5336,3.636-12.7957,2.9306-6.5728,13.0732,5.28,12.0185.3821,6.61-3.86,12.5466,8.0352,12.2289,13.0482,1.4368,5.9156,2.9743,8.9359,9.616,14.6081-.8443,7.7685-10.5816,5.5335-3.636,12.7956-2.9306,6.573-13.0732Zm-47.4042,19.0759a22.6544,22.6544,0,1,1,30.4165-10.0639A22.6543,22.6543,0,0,1,209.2829,239.8091Z" transform="translate(0.0001 -0.0197)"/><polygon class="cls-22" points="176.168 210.989 176.951 206.366 182.231 218.385 181.282 222.631 176.168 210.989"/><polygon class="cls-22" points="185.697 253.032 186.789 249.771 199.837 251.207 198.336 254.424 185.697 253.032"/><polygon class="cls-22" points="252.151 249.191 255.394 245.805 242.598 248.736 239.756 252.03 252.151 249.191"/><polygon class="cls-22" points="226.871 265.801 229.296 262.953 214.688 263.798 212.721 266.619 226.871 265.801"/><path class="cls-23" d="M199.8367,251.2271s-9.4711-2.1621-12.17-3.1844-8.9138-10.4813-8.9138-10.4813l8.0352,12.2289Z" transform="translate(0.0001 -0.0197)"/><path class="cls-23" d="M205.7523,254.2014l8.9359,9.616,14.6081-.8443s-11.1787.2821-13.6933-.5644S205.7523,254.2014,205.7523,254.2014Z" transform="translate(0.0001 -0.0197)"/><path class="cls-23" d="M255.3939,245.8249l6.573-13.0732s-6.1106,10.57-7.9254,11.8055-11.4432,4.1983-11.4432,4.1983Z" transform="translate(0.0001 -0.0197)"/><path class="cls-23" d="M182.231,218.4045l-5.28-12.0185,6.5728-13.0732s-4.1681,9.889-4.4465,13.5844S182.231,218.4045,182.231,218.4045Z" transform="translate(0.0001 -0.0197)"/><path class="cls-24" d="M383.5791,304.1385l11.5554-1.9244,1.8076-24.6627-11.1513-3.5889L379.336,254.454l6.81-9.5318-16.161-18.7173-10.4229,5.3474-18.359-9.23-1.9243-11.5554-24.6629-1.8076L311.0272,220.11l-19.5087,6.4548L280.7623,218.88l-18.18,15.6969,6.0346,11.7617-9.23,18.359-11.5554,1.9245-1.8077,24.6627,11.1512,3.5889,6.455,19.5086-6.81,9.5317,16.1612,18.7175,10.4227-5.3476,18.359,9.23,1.9245,11.5554,24.6627,1.8077,3.5889-11.1514,19.5085-6.4548,9.5318,6.81,18.7174-16.161-5.3476-10.4228Zm-81.4475,17.4159a41.8712,41.8712,0,1,1,56.2175-18.6008A41.8712,41.8712,0,0,1,302.1316,321.5544Z" transform="translate(0.0001 -0.0197)"/><path class="cls-25" d="M391.9577,295.5336l12.2-2.0317,1.9085-26.0376-11.7729-3.7889-6.8147-20.5962,7.19-10.0631-17.062-19.7608-11.0039,5.6456-19.3824-9.745-2.0318-12.1995L319.15,195.0479l-3.7888,11.773-20.5964,6.8148-11.3556-8.1134-19.1934,16.5719,6.3709,12.4174-9.7449,19.3825-12.2,2.0319-1.9085,26.0375,11.7729,3.7888,6.8149,20.5963-7.19,10.063,17.062,19.761,11.0038-5.6458,19.3825,9.745,2.0317,12.2,26.0377,1.9083,3.7889-11.7729,20.5961-6.8147,10.0632,7.19L387.8583,325.92l-5.6454-11.004ZM305.97,313.92a44.2053,44.2053,0,1,1,59.3514-19.6378A44.2052,44.2052,0,0,1,305.97,313.92Z" transform="translate(0.0001 -0.0197)"/><polygon class="cls-26" points="395.135 302.194 404.157 293.482 391.958 295.514 388.002 303.382 395.135 302.194"/><polygon class="cls-27" points="333.649 354.36 328.35 359.858 303.687 358.05 307.612 352.452 333.649 354.36"/><polygon class="cls-27" points="275.194 336.153 272.981 342.612 256.82 323.894 258.132 316.392 275.194 336.153"/><polygon class="cls-26" points="301.762 346.495 305.58 340.252 307.612 352.452 303.687 358.05 301.762 346.495"/><polygon class="cls-26" points="257.175 294.854 258.507 285.733 246.734 281.944 246.024 291.265 257.175 294.854"/><polygon class="cls-26" points="266.611 242.409 270.587 234.492 264.216 222.074 262.583 234.557 266.611 242.409"/><polygon class="cls-28" points="351.447 342.252 358.034 335.772 368.098 342.962 360.979 349.062 351.447 342.252"/><path class="cls-29" d="M360.528,270.5173l7.8811-7.96s3.9131,11.1085-1.211,27.4454l-5.76,4.8A38.9889,38.9889,0,0,0,360.528,270.5173Z" transform="translate(0.0001 -0.0197)"/><path class="cls-29" d="M302.926,246.3454l3.2221-11.5052s-21.0574,9.74-24.1807,33.9984C288.69,249.73,302.926,246.3454,302.926,246.3454Z" transform="translate(0.0001 -0.0197)"/><path class="cls-23" d="M305.58,340.2718s1.7587,8.8218,4.5163,10.0869,23.5531,4.0211,23.5531,4.0211l-26.0377-1.9083Z" transform="translate(0.0001 -0.0197)"/><path class="cls-23" d="M286.1975,330.5268l-11.0038,5.6458-17.062-19.761s14.06,15.176,17.476,16.4861S286.1975,330.5268,286.1975,330.5268Z" transform="translate(0.0001 -0.0197)"/><path class="cls-23" d="M248.6423,255.926l-1.9085,26.0375,11.7729,3.7888s-8.3392-2.5327-9.922-4.9885S248.6423,255.926,248.6423,255.926Z" transform="translate(0.0001 -0.0197)"/><path class="cls-23" d="M358.0344,335.7922l10.0632,7.19L387.8583,325.92s-16.3087,15.3275-19.9018,14.8607S358.0344,335.7922,358.0344,335.7922Z" transform="translate(0.0001 -0.0197)"/><polygon class="cls-30" points="614.785 456.577 617.074 435.583 639.214 435.583 636.002 456.577 614.785 456.577"/><path class="cls-31" d="M566.801,683.9916H702.4484a29.2855,29.2855,0,0,0,29.27-28.3346l6.5161-168.1581a29.2855,29.2855,0,0,0-29.27-30.236H560.2412Z" transform="translate(0.0001 -0.0197)"/><path class="cls-32" d="M564.7,683.3254H700.3471a29.2854,29.2854,0,0,0,29.27-28.3346l6.5163-168.1581a29.2855,29.2855,0,0,0-29.27-30.236H558.14Z" transform="translate(0.0001 -0.0197)"/><path class="cls-33" d="M564.4788,679.5036H695.553a28.298,28.298,0,0,0,28.2831-27.3794l6.2966-162.4889a28.2981,28.2981,0,0,0-28.2833-29.2168H558.14Z" transform="translate(0.0001 -0.0197)"/><path class="cls-34" d="M723.65,654.5256l-10.3133-.0891,5.2428-170.5219s-1.8533-10.3346-9.207-16.7708l-13.8192,212.36S719.05,679.9829,723.65,654.5256Z" transform="translate(0.0001 -0.0197)"/><path class="cls-35" d="M545.2766,683.9916H680.924a29.2853,29.2853,0,0,0,29.27-28.3346L716.71,487.4989a29.2852,29.2852,0,0,0-29.27-30.236H538.7168Z" transform="translate(0.0001 -0.0197)"/><path class="cls-36" d="M543.1755,683.3254H678.8227a29.2855,29.2855,0,0,0,29.27-28.3346l6.5162-168.1581a29.2853,29.2853,0,0,0-29.27-30.236H536.6157Z" transform="translate(0.0001 -0.0197)"/><path class="cls-37" d="M670.9538,456.5967l-3.075,226.7287s15.2721.6662,22.4469.6662l-.7175,1.45H649.2458V453.4906s23.9629,2.46,34.7251,1.3836l1.368,1.7225Z" transform="translate(0.0001 -0.0197)"/><path class="cls-34" d="M669.7858,454.9765l-3.957,230.4654h23.7794l.7175-1.45-20.54-.6662,2.3467-226.7287h13.2064l-1.368-1.7225S675.0488,455.245,669.7858,454.9765Z" transform="translate(0.0001 -0.0197)"/><polygon class="cls-38" points="571.736 456.577 568.491 440.864 594.012 440.864 598.488 456.577 571.736 456.577"/><g class="cls-39"><path class="cls-40" d="M567.7705,665.05a6.4806,6.4806,0,0,1-2.7783,2.7022,9.4257,9.4257,0,0,1-4.4033.955h-4.92V653.2227h4.92a9.6117,9.6117,0,0,1,4.4033.9335,6.3517,6.3517,0,0,1,2.7783,2.68,9.4031,9.4031,0,0,1,0,8.2139Zm-2.7012.2969a5.8461,5.8461,0,0,0,1.6026-4.3926,5.9052,5.9052,0,0,0-1.5918-4.4033,6.3477,6.3477,0,0,0-4.6455-1.57H557.667v11.9257h2.7676A6.3815,6.3815,0,0,0,565.0693,665.3467Z" transform="translate(0.0001 -0.0197)"/><path class="cls-40" d="M573.4141,654.8486v5.293h5.8867v1.5371h-5.8867v5.4033h6.5449v1.625h-8.543V653.2227h8.543v1.6259Z" transform="translate(0.0001 -0.0197)"/><path class="cls-40" d="M591.7979,666.7305a3.9729,3.9729,0,0,1-1.6036,1.5371,5.4438,5.4438,0,0,1-2.6572.5928,6.3917,6.3917,0,0,1-2.7353-.56,4.8607,4.8607,0,0,1-1.91-1.5371,4.3434,4.3434,0,0,1-.8242-2.2295h2.1308a3.0224,3.0224,0,0,0,.45,1.2851,2.9916,2.9916,0,0,0,1.0987,1.0323,3.4333,3.4333,0,0,0,1.7236.4062,2.7338,2.7338,0,0,0,2.0205-.7031,2.4372,2.4372,0,0,0,.7031-1.8008,2.3249,2.3249,0,0,0-.4941-1.5381,3.5166,3.5166,0,0,0-1.2188-.9326,16.474,16.474,0,0,0-1.9775-.7363,19.9042,19.9042,0,0,1-2.36-.9112,4.0257,4.0257,0,0,1-1.5157-1.2851,3.75,3.75,0,0,1-.6259-2.2617,3.911,3.911,0,0,1,.582-2.1309,3.8134,3.8134,0,0,1,1.6689-1.4277,6.0336,6.0336,0,0,1,2.5586-.5049,5.51,5.51,0,0,1,3.624,1.1094,4.2415,4.2415,0,0,1,1.56,2.8222h-2.1523a2.91,2.91,0,0,0-.9444-1.625,2.9741,2.9741,0,0,0-2.0869-.7031,2.8568,2.8568,0,0,0-1.9326.626,2.2088,2.2088,0,0,0-.7246,1.7676,2.1855,2.1855,0,0,0,.4727,1.4609,3.2781,3.2781,0,0,0,1.1748.8779,18.4621,18.4621,0,0,0,1.9326.7139,19.7052,19.7052,0,0,1,2.4052.9228,4.06,4.06,0,0,1,1.5479,1.3291,3.97,3.97,0,0,1,.6367,2.36A4.1332,4.1332,0,0,1,591.7979,666.7305Z" transform="translate(0.0001 -0.0197)"/><path class="cls-40" d="M597.002,653.2227V668.707h-1.9981V653.2227Z" transform="translate(0.0001 -0.0197)"/><path class="cls-40" d="M611.7725,654.4092a6.5189,6.5189,0,0,1,2.4707,3.6455h-2.1084a4.7418,4.7418,0,0,0-1.834-2.2617,5.3546,5.3546,0,0,0-3.042-.8565,5.4868,5.4868,0,0,0-2.833.7354A5.1334,5.1334,0,0,0,602.46,657.77a6.8188,6.8188,0,0,0-.7139,3.2061,6.8917,6.8917,0,0,0,.7246,3.2617,5.1268,5.1268,0,0,0,2.01,2.1084,5.83,5.83,0,0,0,2.9541.7363,5.5884,5.5884,0,0,0,2.6133-.6152,5.0667,5.0667,0,0,0,1.9443-1.79,6.0949,6.0949,0,0,0,.9111-2.7559h-6.084v-1.4941h7.7754v1.8447a7.6883,7.6883,0,0,1-1.1426,3.3389,6.8481,6.8481,0,0,1-2.5478,2.372,7.4563,7.4563,0,0,1-3.6455.878,7.6918,7.6918,0,0,1-3.9531-.9991,6.9472,6.9472,0,0,1-2.669-2.789,9.2614,9.2614,0,0,1,0-8.1924,7.0181,7.0181,0,0,1,2.669-2.8,7.5871,7.5871,0,0,1,3.9316-1.0108A7.4849,7.4849,0,0,1,611.7725,654.4092Z" transform="translate(0.0001 -0.0197)"/><path class="cls-40" d="M629.332,668.707h-1.998l-8.0391-12.2334V668.707h-1.998V653.2227h1.998l8.0391,12.2558V653.2227h1.998Z" transform="translate(0.0001 -0.0197)"/></g><path class="cls-41" d="M566.2952,230.7705,345.8781,382.0588a7.848,7.848,0,0,0-1.8457,11.0778l38.3611,52.398a7.8375,7.8375,0,0,0,10.5983,1.9308L611.788,304.8871a7.8358,7.8358,0,0,0,2.432-10.6007l-36.7472-61.1192A7.83,7.83,0,0,0,566.2952,230.7705ZM359.2641,393.8916a4.7369,4.7369,0,1,1,1.3826-6.5547A4.7382,4.7382,0,0,1,359.2641,393.8916Z" transform="translate(0.0001 -0.0197)"/><path class="cls-42" d="M565.8076,230.1716,345.3905,381.46a7.8481,7.8481,0,0,0-1.8455,11.0778l38.3609,52.3978a7.8375,7.8375,0,0,0,10.5985,1.9309L611.3,304.2882a7.8359,7.8359,0,0,0,2.4322-10.6006l-36.7474-61.1192A7.83,7.83,0,0,0,565.8076,230.1716ZM358.7766,393.2928a4.7369,4.7369,0,1,1,1.3825-6.5548A4.7381,4.7381,0,0,1,358.7766,393.2928Z" transform="translate(0.0001 -0.0197)"/><polygon class="cls-43" points="431.034 412.335 403.577 430.227 366.483 377.687 393.948 358.89 431.034 412.335"/><polygon class="cls-44" points="463.102 391.438 434.913 409.807 397.83 356.233 426.039 336.926 463.102 391.438"/><polygon class="cls-45" points="496.02 369.987 467.07 388.852 430.01 334.209 458.995 314.372 496.02 369.987"/><polygon class="cls-46" points="529.839 347.949 500.095 367.331 463.076 311.579 492.867 291.19 529.839 347.949"/><polygon class="cls-47" points="564.595 325.3 534.026 345.22 497.062 288.318 527.695 267.353 564.595 325.3"/><polygon class="cls-48" points="600.33 302.013 568.9 322.494 532.009 264.4 563.52 242.835 600.33 302.013"/><path class="cls-49" d="M530.364,190.3626,346.0223,383.9861a7.8478,7.8478,0,0,0,.4866,11.22l48.3731,43.3259a7.8372,7.8372,0,0,0,10.7685-.3039l184.558-184.7664a7.8358,7.8358,0,0,0,.186-10.8745l-48.5991-52.1926A7.83,7.83,0,0,0,530.364,190.3626Zm-168.7968,202.43a4.7369,4.7369,0,1,1-.0037-6.6991A4.7382,4.7382,0,0,1,361.5672,392.7929Z" transform="translate(0.0001 -0.0197)"/><path class="cls-50" d="M529.7631,189.8776,345.4214,383.501a7.8478,7.8478,0,0,0,.4866,11.22l48.3732,43.326a7.8371,7.8371,0,0,0,10.7684-.3039l184.558-184.7665a7.8358,7.8358,0,0,0,.1861-10.8745L541.1946,189.91A7.83,7.83,0,0,0,529.7631,189.8776Zm-168.7968,202.43a4.7369,4.7369,0,1,1-.0037-6.6991A4.738,4.738,0,0,1,360.9663,392.3078Z" transform="translate(0.0001 -0.0197)"/><polygon class="cls-51" points="435.604 395.986 412.444 419.172 365.28 375.445 388.262 351.371 435.604 395.986"/><polygon class="cls-52" points="462.654 368.905 438.876 392.71 391.51 347.969 415.114 323.243 462.654 368.905"/><polygon class="cls-53" points="490.421 341.107 466.001 365.555 418.436 319.762 442.689 294.357 490.421 341.107"/><polygon class="cls-54" points="518.948 312.548 493.859 337.665 446.103 290.78 471.031 264.668 518.948 312.548"/><polygon class="cls-55" points="548.265 283.197 522.48 309.012 474.541 260.99 500.173 234.141 548.265 283.197"/><polygon class="cls-56" points="578.408 253.02 551.896 279.562 503.783 230.359 530.149 202.74 578.408 253.02"/><path class="cls-57" d="M486.9455,159.1026,344.2366,385.1691a7.8481,7.8481,0,0,0,2.6815,10.9057l55.9423,32.978a7.8376,7.8376,0,0,0,10.499-2.4136L558.02,209.2146a7.8356,7.8356,0,0,0-1.9541-10.699l-57.9058-41.6275A7.83,7.83,0,0,0,486.9455,159.1026ZM361.2088,390.75a4.7369,4.7369,0,1,1-1.32-6.5676A4.7382,4.7382,0,0,1,361.2088,390.75Z" transform="translate(0.0001 -0.0197)"/><path class="cls-58" d="M485.7983,157.92,343.09,383.9867a7.8478,7.8478,0,0,0,2.6814,10.9056l55.9424,32.978a7.8372,7.8372,0,0,0,10.4989-2.4136L556.8734,208.0321a7.8359,7.8359,0,0,0-1.9543-10.699l-57.9056-41.6274A7.83,7.83,0,0,0,485.7983,157.92ZM360.0615,389.5678a4.7369,4.7369,0,1,1-1.32-6.5677A4.7381,4.7381,0,0,1,360.0615,389.5678Z" transform="translate(0.0001 -0.0197)"/><path class="cls-59" d="M485.1138,157.5627,342.405,383.6291a7.848,7.848,0,0,0,2.6814,10.9056l55.9425,32.9782a7.8374,7.8374,0,0,0,10.4988-2.4136L556.1888,207.6745a7.8356,7.8356,0,0,0-1.9541-10.699l-57.9058-41.6274A7.83,7.83,0,0,0,485.1138,157.5627ZM359.3771,389.21a4.7369,4.7369,0,1,1-1.32-6.5677A4.738,4.738,0,0,1,359.3771,389.21Z" transform="translate(0.0001 -0.0197)"/><polygon class="cls-60" points="433.286 378.153 415.133 405.438 360.298 371.828 378.102 343.709 433.286 378.153"/><polygon class="cls-61" points="454.489 346.285 435.852 374.297 380.618 339.734 398.904 310.853 454.489 346.285"/><polygon class="cls-62" points="476.254 313.574 457.112 342.343 401.478 306.787 420.267 277.113 476.254 313.574"/><polygon class="cls-63" points="498.613 279.967 478.948 309.524 422.912 272.935 442.224 242.434 498.613 279.967"/><polygon class="cls-64" points="521.594 245.428 501.382 275.806 444.943 238.138 464.801 206.776 521.594 245.428"/><polygon class="cls-65" points="545.22 209.918 524.44 241.15 467.597 202.359 488.023 170.098 545.22 209.918"/><path class="cls-57" d="M461.7344,147.7l-116.86,240.4889a7.8478,7.8478,0,0,0,3.817,10.5618l57.9049,26.2636a7.8373,7.8373,0,0,0,10.1857-3.5078l120.9174-231.472a7.8359,7.8359,0,0,0-3.0719-10.4333l-61.974-35.2865A7.83,7.83,0,0,0,461.7344,147.7ZM362.34,391.9487a4.7369,4.7369,0,1,1-2.0053-6.3918A4.738,4.738,0,0,1,362.34,391.9487Z" transform="translate(0.0001 -0.0197)"/><path class="cls-66" d="M460.5764,147.0956l-116.86,240.4888a7.848,7.848,0,0,0,3.817,10.5618L405.4383,424.41a7.8376,7.8376,0,0,0,10.1857-3.5077L536.5412,189.43a7.8357,7.8357,0,0,0-3.0717-10.4332L471.4953,143.71A7.83,7.83,0,0,0,460.5764,147.0956Zm-99.394,244.2482a4.7368,4.7368,0,1,1-2.0052-6.3918A4.7383,4.7383,0,0,1,361.1824,391.3438Z" transform="translate(0.0001 -0.0197)"/><path class="cls-67" d="M459.9111,146.748l-116.86,240.4888a7.8479,7.8479,0,0,0,3.817,10.5618l57.905,26.2635a7.8372,7.8372,0,0,0,10.1856-3.5076L535.8758,189.0824a7.8356,7.8356,0,0,0-3.0719-10.4332L470.83,143.3627A7.83,7.83,0,0,0,459.9111,146.748ZM360.5169,390.9962a4.7369,4.7369,0,1,1-2.0051-6.3919A4.7382,4.7382,0,0,1,360.5169,390.9962Z" transform="translate(0.0001 -0.0197)"/><path class="cls-68" d="M349.08,385.0235a8.1731,8.1731,0,1,0,11.0246-3.4717A8.1648,8.1648,0,0,0,349.08,385.0235Zm10.94,5.7147a4.1779,4.1779,0,1,1-1.7687-5.6375A4.1792,4.1792,0,0,1,360.019,390.7382Z" transform="translate(0.0001 -0.0197)"/><path class="cls-69" d="M352.119,386.6114a4.7437,4.7437,0,1,0,6.3974-2.02A4.74,4.74,0,0,0,352.119,386.6114Zm7.9,4.1268a4.1779,4.1779,0,1,1-1.7687-5.6375A4.1792,4.1792,0,0,1,360.019,390.7382Z" transform="translate(0.0001 -0.0197)"/><path class="cls-70" d="M437.1084,233.5645a8.0816,8.0816,0,0,1,5.1753-.5606l-1.1084,2.1226a5.8663,5.8663,0,0,0-3.47.6352,6.2985,6.2985,0,0,0-2.6158,2.7715,5.646,5.646,0,0,0,.4434,6.1274,8.0378,8.0378,0,0,0,2.8755,2.3882,7.893,7.893,0,0,0,3.57.9785,5.6665,5.6665,0,0,0,5.2725-3.1416,6.2919,6.2919,0,0,0,.78-3.73,5.865,5.865,0,0,0-1.46-3.2114l1.1084-2.1225a8.0731,8.0731,0,0,1,2.4956,4.5683,8.5581,8.5581,0,0,1-1.0561,5.4424,8.3288,8.3288,0,0,1-3.0269,3.3438,7.8245,7.8245,0,0,1-4.1763,1.1533,9.8565,9.8565,0,0,1-4.5923-1.2031,9.9762,9.9762,0,0,1-3.644-3.0992,7.8147,7.8147,0,0,1-1.4507-4.0923,8.3367,8.3367,0,0,1,1.0152-4.3945A8.5684,8.5684,0,0,1,437.1084,233.5645Z" transform="translate(0.0001 -0.0197)"/><path class="cls-70" d="M445.1953,217.0337a8.168,8.168,0,0,1,4.2671-1.2461,10.2,10.2,0,0,1,8.2471,4.3081,8.1629,8.1629,0,0,1,1.4145,4.2144,8.5433,8.5433,0,0,1-1.0219,4.434,8.6686,8.6686,0,0,1-3.0669,3.3926,8.1079,8.1079,0,0,1-4.2784,1.2691,10.2031,10.2031,0,0,1-8.247-4.3081,8.1153,8.1153,0,0,1-1.4034-4.2373,8.6844,8.6844,0,0,1,1.0328-4.4551A8.5479,8.5479,0,0,1,445.1953,217.0337Zm-1.9433,7.625a5.7947,5.7947,0,0,0,1.0825,3.0991,8.6171,8.6171,0,0,0,6.4677,3.3779,5.7623,5.7623,0,0,0,3.1724-.8754,6.3417,6.3417,0,0,0,2.2485-2.4976,6.2325,6.2325,0,0,0,.7447-3.2564,5.8868,5.8868,0,0,0-1.0943-3.1044,8.5893,8.5893,0,0,0-6.457-3.3726,5.7973,5.7973,0,0,0-3.1616.8809,6.7076,6.7076,0,0,0-3.0029,5.7485Z" transform="translate(0.0001 -0.0197)"/><path class="cls-70" d="M462.811,215.4727l2.8872-5.5274,1.57.82-3.938,7.5391-15.5869-8.1426,1.0507-2.0117Z" transform="translate(0.0001 -0.0197)"/><path class="cls-70" d="M459.3438,189.95a8.1613,8.1613,0,0,1,4.267-1.2461,10.1979,10.1979,0,0,1,8.2466,4.3081,8.1666,8.1666,0,0,1,1.4151,4.2144A8.5358,8.5358,0,0,1,472.25,201.66a8.6621,8.6621,0,0,1-3.0664,3.393,8.1152,8.1152,0,0,1-4.2793,1.2691,10.1983,10.1983,0,0,1-8.2466-4.3086,8.1055,8.1055,0,0,1-1.4028-4.2368,8.6845,8.6845,0,0,1,1.0322-4.4556A8.5548,8.5548,0,0,1,459.3438,189.95Zm-1.9434,7.625a5.7883,5.7883,0,0,0,1.0825,3.0986,8.6207,8.6207,0,0,0,6.4673,3.3789,5.7725,5.7725,0,0,0,3.1728-.8759,6.3347,6.3347,0,0,0,2.2481-2.4981,6.2321,6.2321,0,0,0,.7451-3.2558,5.8858,5.8858,0,0,0-1.0947-3.1045,8.5829,8.5829,0,0,0-6.457-3.3726,5.7918,5.7918,0,0,0-3.1612.8809,6.7045,6.7045,0,0,0-3.0029,5.7485Z" transform="translate(0.0001 -0.0197)"/><path class="cls-70" d="M481.7979,182.9521l-8.4922.7422-1.1436,2.1885,6.3672,3.3262-1.0508,2.0117-15.5869-8.1426,2.68-5.1289a6.2609,6.2609,0,0,1,3.3506-3.3154,5.019,5.019,0,0,1,4.0635.4346,4.9192,4.9192,0,0,1,2.5087,2.6611,5.5889,5.5889,0,0,1-.1572,3.8291l8.6514-.8838Zm-11.0948,2.1685,1.5362-2.94q1.7914-3.4271-1.2159-4.9981t-4.7978,1.8565l-1.5361,2.94Z" transform="translate(0.0001 -0.0197)"/><path class="cls-70" d="M464.6016,265.2212l6.2793,3.28-1.0508,2.0117L454.2422,262.37l2.5869-4.9521a6.3789,6.3789,0,0,1,3.34-3.35,5.0385,5.0385,0,0,1,4.1094.4585,4.9031,4.9031,0,0,1,2.6992,3.1547,6.4777,6.4777,0,0,1-.84,4.5987Zm.3691-6.688a3.8547,3.8547,0,0,0-4.41-2.3047,4.2576,4.2576,0,0,0-2.143,2.2442l-1.4439,2.7636,5.9473,3.1065,1.4434-2.7637A4.2041,4.2041,0,0,0,464.9707,258.5332Z" transform="translate(0.0001 -0.0197)"/><path class="cls-70" d="M477.59,246.874l-3.58,6.8545,2.9228,3.187-1.1318,2.1665-12.2852-13.7627,1.19-2.2773,18.3027,2.2441-1.1318,2.1665Zm-1.8691-.2446-9.3613-1.2593,6.3818,6.9634Z" transform="translate(0.0001 -0.0197)"/><path class="cls-70" d="M483.5508,240.42l2.8877-5.5273,1.57.82L484.07,243.252l-15.5879-8.1426,1.0508-2.0117Z" transform="translate(0.0001 -0.0197)"/><path class="cls-70" d="M476.1826,224.3569l5.3281,2.7837,3.0957-5.9258,1.5479.8086-3.0957,5.9258,5.4385,2.8413,3.4424-6.5888,1.6367.8545-4.4932,8.6005-15.5879-8.1425,4.4932-8.6006,1.6367.8545Z" transform="translate(0.0001 -0.0197)"/><path class="cls-70" d="M484.3291,204.7754l1.6367.8545-2.2988,4.4,13.9512,7.2881-1.0508,2.0122-13.9512-7.2881-2.2988,4.3994-1.6367-.8545Z" transform="translate(0.0001 -0.0197)"/><path class="cls-70" d="M490.3574,193.2349l1.6367.8545-2.2978,4.4,13.9512,7.288-1.0518,2.0118-13.9512-7.2881L486.3467,204.9l-1.6367-.8545Z" transform="translate(0.0001 -0.0197)"/><path class="cls-70" d="M494.085,190.0879l5.3281,2.7832,3.0947-5.9253,1.5479.8086-3.0948,5.9253,5.4385,2.8418,3.4414-6.5889,1.6367.8545-4.4931,8.6006-15.5879-8.1426,4.4931-8.6006,1.6368.8545Z" transform="translate(0.0001 -0.0197)"/><path class="cls-5" d="M542.39,660.82l55.0144-13.4335s10.2078-4.2876,12.1353-12.5113l1.9276-38.2064-69.9054,4.6606Z" transform="translate(0.0001 -0.0197)"/><path class="cls-71" d="M444.5487,671.9919H310.3022L321.39,621.983l.3975-1.7975h16.7262a35.6063,35.6063,0,0,0,1.4192,4.92c3.2166,8.95,12.8475,26.83,38.3911,26.83,16.5373,0,25.7708-7.4928,30.88-15.2126a40.03,40.03,0,0,0,6.263-16.5373h17.5967l4.73,21.3431Z" transform="translate(0.0001 -0.0197)"/><path class="cls-72" d="M269.7642,671.9952s-3.1217,5.3291,3.1219,10.107H477.7548s7.4143-4.1936,5.8534-10.107Z" transform="translate(0.0001 -0.0197)"/><path class="cls-73" d="M338.5138,620.1855a35.6063,35.6063,0,0,0,1.4192,4.92L321.39,621.983l-.227-.0378.6245-1.76Z" transform="translate(0.0001 -0.0197)"/><path class="cls-73" d="M437.7937,641.5286l-28.59-4.8058a40.03,40.03,0,0,0,6.263-16.5373h17.5967Z" transform="translate(0.0001 -0.0197)"/><path class="cls-74" d="M137.9,595.5126l30.2945-238.9814a21.9244,21.9244,0,0,1,21.75-19.1672h378.668A21.9245,21.9245,0,0,1,590.4011,356.85l26.7442,238.9813a21.9244,21.9244,0,0,1-21.7885,24.3627H159.65A21.9245,21.9245,0,0,1,137.9,595.5126Z" transform="translate(0.0001 -0.0197)"/><path class="cls-75" d="M137.09,594.0166l31.7339-250.3357a16.2471,16.2471,0,0,1,16.1181-14.2041H573.69a16.2472,16.2472,0,0,1,16.1463,14.44L617.8512,594.253a16.247,16.247,0,0,1-16.1463,18.0539H153.2081A16.2473,16.2473,0,0,1,137.09,594.0166Z" transform="translate(0.0001 -0.0197)"/><path class="cls-76" d="M347.5911,329.4768,605.1864,481.0823l-15.35-137.1652s-1.2084-14.44-16.1463-14.44Z" transform="translate(0.0001 -0.0197)"/><polygon class="cls-77" points="176.445 355.074 575.359 347.187 606.434 582.368 148.261 582.368 176.445 355.074"/><polygon class="cls-78" points="182.148 582.368 204.356 373.717 552.83 373.717 574.499 582.368 182.148 582.368"/><polygon class="cls-79" points="150.531 582.368 178.853 357.225 574.499 348.86 603.924 582.368 606.434 582.368 575.359 347.187 176.445 355.074 148.261 582.368 150.531 582.368"/><polygon class="cls-80" points="580.621 597.545 580.621 601.309 595.918 601.309 595.918 596.649 580.621 597.545"/><polygon class="cls-81" points="580.621 597.545 590.748 597.056 590.748 601.309 580.621 601.309 580.621 597.545"/><path class="cls-82" d="M536.6157,467.2309c-46.8644,0-63.5916-79.3087-115.6107-75.7038s-56.9759,75.7038-80.408,75.7038-23.8827-39.7735-55.8764-37.9115-44.6113,37.9115-44.6113,37.9115Z" transform="translate(0.0001 -0.0197)"/><path class="cls-83" d="M346.9463,467.2309H536.6157s6.6665-54.7248-34.6976-64.8889-57.2285,36.05-73.9013,39.2038-19.827-8.6676-39.6542-7.4881-21.179,25.0622-33.3458,29.1177-16.2222-7.5976-30.642-4.9254-19.3764,8.9809-19.3764,8.9809Z" transform="translate(0.0001 -0.0197)"/><polygon class="cls-84" points="210.016 379.094 209.207 384.216 253.959 384.216 254.857 379.094 210.016 379.094"/><polygon class="cls-85" points="334.163 379.094 333.354 384.216 351.615 384.216 352.514 379.094 334.163 379.094"/><polygon class="cls-85" points="368.533 379.094 367.724 384.216 385.986 384.216 386.885 379.094 368.533 379.094"/><polygon class="cls-85" points="402.904 379.094 402.095 384.216 420.357 384.216 421.255 379.094 402.904 379.094"/><polygon class="cls-85" points="437.274 379.094 436.466 384.216 454.727 384.216 455.626 379.094 437.274 379.094"/><polygon class="cls-85" points="518.66 379.094 517.852 384.216 536.113 384.216 537.012 379.094 518.66 379.094"/><polygon class="cls-86" points="204.326 478.759 551.388 473.934 553.968 501.289 202.415 501.206 204.326 478.759"/><polygon class="cls-87" points="300.867 576.67 243.651 576.67 251.621 506.324 305.402 506.324 300.867 576.67"/><path class="cls-78" d="M262.5259,525.3575l-2.4844,24.4409h29.2149l1.8606-24.4409Zm22.0316,20.1446H265.5041l1.5558-15.9989H285.846Z" transform="translate(0.0001 -0.0197)"/><polygon class="cls-78" points="267.409 544.035 283.333 544.035 279.033 535.382 275.006 538.72 273.749 537.802 267.409 544.035"/><path class="cls-78" d="M275.6808,534.61a3.01,3.01,0,0,1-2.9809,2.6464,2.4141,2.4141,0,0,1-2.4962-2.6464,3.0113,3.0113,0,0,1,2.98-2.634A2.4148,2.4148,0,0,1,275.6808,534.61Z" transform="translate(0.0001 -0.0197)"/><polygon class="cls-88" points="370.297 576.67 313.081 576.67 316.883 506.324 370.663 506.324 370.297 576.67"/><path class="cls-78" d="M328.9143,525.3575l-1.0361,24.4409H357.093l.4122-24.4409ZM352.14,545.5021H333.0862l.6078-15.9989H352.48Z" transform="translate(0.0001 -0.0197)"/><polygon class="cls-78" points="334.906 544.035 350.83 544.035 346.016 535.382 342.187 538.72 340.876 537.802 334.906 544.035"/><path class="cls-78" d="M342.6174,534.61a2.7977,2.7977,0,0,1-2.824,2.6464A2.5879,2.5879,0,0,1,337.14,534.61a2.7992,2.7992,0,0,1,2.8238-2.634A2.5889,2.5889,0,0,1,342.6174,534.61Z" transform="translate(0.0001 -0.0197)"/><polygon class="cls-89" points="439.727 576.67 382.511 576.67 382.145 506.324 435.925 506.324 439.727 576.67"/><path class="cls-78" d="M395.3026,525.3575l.4123,24.4409H424.93l-1.036-24.4409Zm24.4191,20.1446H400.6683l-.34-15.9989h18.7862Z" transform="translate(0.0001 -0.0197)"/><polygon class="cls-78" points="402.402 544.035 418.326 544.035 413 535.382 409.368 538.72 408.003 537.802 402.402 544.035"/><path class="cls-78" d="M409.5541,534.61a2.6046,2.6046,0,0,1-2.6674,2.6464,2.7792,2.7792,0,0,1-2.81-2.6464,2.6056,2.6056,0,0,1,2.6675-2.634A2.7807,2.7807,0,0,1,409.5541,534.61Z" transform="translate(0.0001 -0.0197)"/><polygon class="cls-90" points="509.157 576.67 451.942 576.67 447.406 506.324 501.187 506.324 509.157 576.67"/><path class="cls-78" d="M461.6909,525.3575l1.8607,24.4409h29.2147l-2.4843-24.4409Zm25.6129,20.1446H468.25l-1.2886-15.9989H485.748Z" transform="translate(0.0001 -0.0197)"/><polygon class="cls-78" points="469.898 544.035 485.822 544.035 479.983 535.382 476.55 538.72 475.13 537.802 469.898 544.035"/><path class="cls-78" d="M476.4907,534.61a2.4293,2.4293,0,0,1-2.51,2.6464,2.9894,2.9894,0,0,1-2.9667-2.6464,2.43,2.43,0,0,1,2.5115-2.634A2.9912,2.9912,0,0,1,476.4907,534.61Z" transform="translate(0.0001 -0.0197)"/><circle class="cls-91" cx="342.6187" cy="429.2997" r="14.8866"/><circle class="cls-92" cx="310.6136" cy="426.0997" r="7.9383"/><path class="cls-93" d="M239.97,455.1839a4.899,4.899,0,1,1-4.899-4.899A4.8989,4.8989,0,0,1,239.97,455.1839Z" transform="translate(0.0001 -0.0197)"/><polygon class="cls-94" points="182.568 582.412 181.729 582.323 203.977 373.294 553.21 373.294 553.249 373.673 574.919 582.325 574.079 582.41 552.448 374.138 204.735 374.138 182.568 582.412"/><polygon class="cls-76" points="402.095 353.571 587.002 455.251 574.499 348.86 402.095 353.571"/><path class="cls-95" d="M415.4666,620.1855H338.5138v-.0378Z" transform="translate(0.0001 -0.0197)"/><polygon class="cls-96" points="372.197 468.967 374.961 550.075 567.599 550.075 556.601 467.287 372.197 468.967"/><polygon class="cls-78" points="386.885 444.186 389.198 529.484 583.728 529.484 574.022 444.186 386.885 444.186"/><polygon class="cls-97" points="387.268 458.328 575.631 458.328 574.022 444.186 386.885 444.186 387.268 458.328"/><path class="cls-94" d="M584.2018,529.9255H388.7874l-.0117-.4105-2.3246-85.73H574.3983l.0427.3743Zm-194.5934-.8442h193.647l-9.6106-84.4525H387.3184Z" transform="translate(0.0001 -0.0197)"/><polygon class="cls-98" points="442.082 486.069 423.437 486.069 422.166 467.287 440.812 467.287 442.082 486.069"/><polygon class="cls-99" points="463.898 486.069 445.253 486.069 443.982 467.287 462.628 467.287 463.898 486.069"/><polygon class="cls-100" points="485.418 486.069 466.772 486.069 465.502 467.287 484.147 467.287 485.418 486.069"/><polygon class="cls-101" points="506.937 486.069 488.292 486.069 487.021 467.287 505.667 467.287 506.937 486.069"/><polygon class="cls-102" points="528.457 486.069 509.811 486.069 508.541 467.287 527.186 467.287 528.457 486.069"/><polygon class="cls-103" points="549.976 486.069 531.331 486.069 530.06 467.287 548.706 467.287 549.976 486.069"/><polygon class="cls-104" points="443.626 508.894 424.981 508.894 423.71 490.111 442.356 490.111 443.626 508.894"/><polygon class="cls-105" points="465.442 508.894 446.797 508.894 445.526 490.111 464.172 490.111 465.442 508.894"/><polygon class="cls-106" points="486.962 508.894 468.316 508.894 467.046 490.111 485.691 490.111 486.962 508.894"/><polygon class="cls-107" points="508.481 508.894 489.836 508.894 488.565 490.111 507.211 490.111 508.481 508.894"/><polygon class="cls-108" points="530.001 508.894 511.355 508.894 510.085 490.111 528.73 490.111 530.001 508.894"/><polygon class="cls-109" points="551.52 508.894 532.875 508.894 531.604 490.111 550.25 490.111 551.52 508.894"/><polygon class="cls-110" points="557.273 445.969 558.349 456.545 573.541 456.545 572.331 445.969 557.273 445.969"/><path class="cls-76" d="M339.933,630.857s11.03,22.5155,36.471,22.5155S412.84,634.491,412.84,634.491s-11.4724,20.8533-36.4533,20.8533C350.28,655.3443,339.933,630.857,339.933,630.857Z" transform="translate(0.0001 -0.0197)"/><path class="cls-78" d="M386.2544,652.3621s6.27-.842,14.4277-5.9313C400.6821,646.4308,395.2726,653.7907,386.2544,652.3621Z" transform="translate(0.0001 -0.0197)"/><rect class="cls-111" x="564.9241" y="446.3976" width="1.6876" height="9.7582" transform="translate(-146.0847 581.6784) rotate(-48.9594)"/><rect class="cls-111" x="561.1247" y="450.4326" width="9.0662" height="1.6881" transform="translate(-153.4234 532.1366) rotate(-45)"/><path class="cls-112" d="M128.0384,530.8643c-.6024,2.7181-1.2889,5.2259-2.0314,7.5516v.014c-8.7565,27.6983-25.9052,30.29-34.9557,76.4122H38.1763c-9.2328-47.1026-26.9277-48.798-35.5021-78.22q-.7986-2.7109-1.4711-5.7582c-7.8458-35.1238,33.5127-66.1428,63.4107-66.1428S135.87,495.7405,128.0384,530.8643Z" transform="translate(0.0001 -0.0197)"/><g class="cls-113"><path class="cls-114" d="M64.6146,465.572c17.9619,0,39.433,11.1383,52.2135,27.0862,6.7323,8.4011,13.9984,21.8171,10.3808,38.023-3.4854,15.6139-9.3125,24.0572-15.4818,32.9962-7.4684,10.8217-15.9252,23.0755-21.3659,50.3156H38.868c-5.4408-27.24-13.8976-39.4939-21.3661-50.3156-6.1691-8.939-11.9962-17.3823-15.4817-32.9962-3.6175-16.2059,3.6485-29.6219,10.381-38.023,12.78-15.9479,34.2513-27.0862,52.2134-27.0862Zm0-.8442c-29.8983,0-71.26,31.0062-63.4182,66.1374s27.1753,33.978,36.9781,83.972h52.88c9.8029-49.994,29.1361-48.841,36.9782-83.972s-33.52-66.1374-63.4182-66.1374Z" transform="translate(0.0001 -0.0197)"/></g><path class="cls-115" d="M75.9218,541.3625s1.8918,21.3038-10.9253,25.2521c-12.8172-3.9483-10.9255-25.2521-10.9255-25.2521l-2.8341,1.7049c4.5236,22.1451,5.6685,67.4181,5.6685,67.4181H73.0875s1.1448-45.273,5.6685-67.4181Z" transform="translate(0.0001 -0.0197)"/><path class="cls-116" d="M35.6055,603.6132c2.3142,6.4383,46.2034,9.3346,57.4839,2.0675l-1.323,5.6937-54.1634.6571Z" transform="translate(0.0001 -0.0197)"/><path class="cls-117" d="M32.4053,532.708c5.8448,14.3018,4.493,28.3844-3.02,31.4548S11.0449,558.1281,5.2,543.8263.707,515.4417,8.22,512.3715,26.56,518.4062,32.4053,532.708Z" transform="translate(0.0001 -0.0197)"/><path class="cls-118" d="M126.007,538.43c-8.7565,27.6983-25.9052,30.29-34.9557,76.4122H38.1763c-9.2328-47.1026-26.9277-48.798-35.5021-78.22C12.72,558.0443,36.2288,566.2683,74.547,564.8533,112.9073,563.4384,126.007,538.43,126.007,538.43Z" transform="translate(0.0001 -0.0197)"/><path class="cls-119" d="M32.695,612.9176l3.986,37.2829s18.5763-4.7783,54.95,0l5.0437-35.4379S70.1287,605.5274,32.695,612.9176Z" transform="translate(0.0001 -0.0197)"/><path class="cls-120" d="M36.681,650.2005s27.6076,7.6982,54.95,0C91.6309,650.2005,59.51,643.2986,36.681,650.2005Z" transform="translate(0.0001 -0.0197)"/><path class="cls-121" d="M46.6357,650.2005,49.29,655.51s14.6,3.4509,29.4658,0l2.6546-5.1322A73.4105,73.4105,0,0,0,46.6357,650.2005Z" transform="translate(0.0001 -0.0197)"/><path class="cls-73" d="M49.29,655.51s16.68-4.07,29.4658,0C78.756,655.51,63.3153,658.8721,49.29,655.51Z" transform="translate(0.0001 -0.0197)"/><path class="cls-122" d="M36.2072,645.77l-5.0124-4.5951s30.4393-16.9893,67.6033-13.45l-5.0531,7.6211S62.6334,627.3588,36.2072,645.77Z" transform="translate(0.0001 -0.0197)"/><path class="cls-123" d="M34.7154,631.8163l-3.5206-2.8526s25.5283-20.5729,70.0809-17.22l-5.2738,7.7441S64.9589,611.1315,34.7154,631.8163Z" transform="translate(0.0001 -0.0197)"/><path class="cls-124" d="M31.1948,628.9637l2.8205-3.6962s35.0516-19.8947,67.26-13.5237C101.2757,611.7438,66.4122,606.1344,31.1948,628.9637Z" transform="translate(0.0001 -0.0197)"/><path class="cls-125" d="M31.1948,641.1749l4.0219-4.67S61.1174,624.6172,95,626.525l3.7977,1.2S64.023,624.3183,31.1948,641.1749Z" transform="translate(0.0001 -0.0197)"/><path class="cls-126" d="M31.1948,641.1749l5.0124,4.5951.4738,3.0147s8.4061-11.5033,28.7579-13.6268,27.4764,6.017,27.4764,6.017l.83-5.8288,5.0531-7.6211S60.3509,625.9111,31.1948,641.1749Z" transform="translate(0.0001 -0.0197)"/><path class="cls-126" d="M31.1948,628.9637l3.5206,2.8526.5013,4.6887s6.508-12.9388,28.8063-16.2128,31.2806,4.1019,31.2806,4.1019l.6983-4.9062,5.2738-7.7441S65.5273,606.3113,31.1948,628.9637Z" transform="translate(0.0001 -0.0197)"/><path class="cls-127" d="M11.7959,287.8691c39.5725,23.2131,115.0061,74.77,115.0061,74.77l1.4066-2.2759L211.412,411.787l-1.4065,2.2759,4.6432,2.87,23.0705.74,1.8689-3.0239,1.8688-3.024L230.4784,391.32l-4.643-2.87-1.4066,2.2757-83.2036-51.4234,1.4065-2.2757S62.7833,292.6129,24.3236,267.5989c0,0-7.4679,4.0083-9.5763,8.0878C12.0412,279.3969,11.7959,287.8691,11.7959,287.8691Z" transform="translate(0.0001 -0.0197)"/><path class="cls-128" d="M210.0055,414.0629l-2.095.7363s-43.9015-31.83-81.6035-50.4345c0,0,3.576-13.59,16.91-28.9218,0,0,43.63,30.5524,82.93,51.2541l-.3117,1.7532S215.583,407.5358,210.0055,414.0629Z" transform="translate(0.0001 -0.0197)"/><path class="cls-129" d="M238.2316,416.8429,242.66,419.58a2.34,2.34,0,0,0,3.1308-1.0074h0a2.3405,2.3405,0,0,0-.499-3.2509l-4.4282-2.7367Z" transform="translate(0.0001 -0.0197)"/><path class="cls-73" d="M125.4728,361.7328s4.3694-15.9317,13.7-26.6367l2.8413,1.7562s-11.9461,12.71-15.2125,25.7873Z" transform="translate(0.0001 -0.0197)"/><path class="cls-130" d="M12.2727,283.0727c.6179-3.0175,109.8636,68.9946,112.6224,70.6211s1.1408,6.1919,1.1408,6.1919a117.1808,117.1808,0,0,1,4.9863-12.2327s-3.4138,4.1482-5.3912,3.6014S16.0377,282.2669,14.9153,280.9221s-.6946-4.4-.6946-4.4A26.8146,26.8146,0,0,0,12.2727,283.0727Z" transform="translate(0.0001 -0.0197)"/><path class="cls-131" d="M30.9859,299.5447a47.4946,47.4946,0,0,1,12.3626-20.0028l-1.1617-.7178A38.3586,38.3586,0,0,0,29.6908,298.73Z" transform="translate(0.0001 -0.0197)"/><path class="cls-132" d="M214.6487,416.9325a50.3422,50.3422,0,0,0,15.83-25.6127l10.9785,20.3043-3.7377,6.0479Z" transform="translate(0.0001 -0.0197)"/><path class="cls-133" d="M202.7373,408.653a17.85,17.85,0,0,0,4.2892-5.0668l-56.4034-34.86-2.8421,4.5986S179.5946,393.9639,202.7373,408.653Z" transform="translate(0.0001 -0.0197)"/><path class="cls-134" d="M203.6559,407.8583l-26.347-16.2836-.0233-1.8355-1.652.8-27.4658-17.84,2.4553-3.9728,56.4034,34.86S205.2789,407.0167,203.6559,407.8583Z" transform="translate(0.0001 -0.0197)"/><polygon class="cls-135" points="150.623 368.707 177.775 386.742 175.634 390.52 177.286 389.719 177.309 391.555 179.677 387.724 207.027 403.566 150.623 368.707"/><path class="cls-136" d="M816.489,670.1746H780.9859l-5.6919,16.8025H751.0392l34.4191-95.1258h26.83l34.4189,95.1258H822.18Zm-5.9622-17.8868L798.7374,617.462l-11.6541,34.8258Z" transform="translate(0.0001 -0.0197)"/><path class="cls-137" d="M800.3753,669.3815H763.196l-5.96,17.5956h-25.4L767.88,587.3609h28.0968L832.02,686.9771H806.3344ZM794.1315,650.65l-12.3459-36.47-12.2042,36.47Z" transform="translate(0.0001 -0.0197)"/><polygon class="cls-138" points="795.976 587.341 812.288 591.832 846.707 686.957 832.02 686.957 795.976 587.341"/><path class="cls-139" d="M849.6,627.3457a33.5554,33.5554,0,0,1,12.2507-13.8424c5.1666-3.229.9682-6.8435,7.3363-6.8435,5.4428,0,20.1864,3.1063,24.2936,5.32a24.4926,24.4926,0,0,1,9.4818,8.7214V609.7661h23.67v77.2388h-23.67V676.07a25.5645,25.5645,0,0,1-9.6213,8.72c-4.1071,2.215-21.9434,3.3228-27.3876,3.3228-6.2755,0,1.0638-1.6374-4.1028-4.9146A33.9293,33.9293,0,0,1,849.6,669.2176a50.9638,50.9638,0,0,1,0-41.8719Zm48.4479,7.0587a16.6345,16.6345,0,0,0-23.9464-.0684q-4.9158,5.0545-4.9145,13.9108,0,8.86,4.9145,14.05a16.4788,16.4788,0,0,0,23.9464.0684q4.9117-5.1189,4.9145-13.9805Q902.9624,639.5288,898.0479,634.4044Z" transform="translate(0.0001 -0.0197)"/><path class="cls-140" d="M835.7989,625.817a34.4,34.4,0,0,1,12.5589-14.1907,32.7924,32.7924,0,0,1,17.7387-4.9665,30.4882,30.4882,0,0,1,14.6869,3.405,25.1106,25.1106,0,0,1,9.72,8.9407v-11.21h24.2656v79.1819H890.5036v-11.21a26.2079,26.2079,0,0,1-9.8632,8.9393,30.4683,30.4683,0,0,1-14.6869,3.4066,32.182,32.182,0,0,1-17.5957-5.0382,34.7817,34.7817,0,0,1-12.5589-14.3323,52.2445,52.2445,0,0,1,0-42.9252Zm49.6666,7.2362a17.0532,17.0532,0,0,0-24.5488-.07q-5.0394,5.1817-5.0381,14.2608,0,9.0829,5.0381,14.4038a16.8936,16.8936,0,0,0,24.5488.07q5.0353-5.2478,5.0381-14.3321Q890.5036,638.3066,885.4655,633.0532Z" transform="translate(0.0001 -0.0197)"/><polygon class="cls-141" points="914.769 607.775 926.632 609.746 926.632 686.985 914.769 686.957 914.769 607.775"/><polygon class="cls-142" points="763.196 669.362 778.141 678.554 781.274 669.362 763.196 669.362"/><polygon class="cls-142" points="775.684 632.396 788.724 647.367 790.863 640.974 781.786 614.161 775.684 632.396"/><path class="cls-142" d="M858.7538,636.1489l11.3138,5.3172s2.0684-9.4311,11.38-11.57C881.4478,629.896,868.0889,622.8037,858.7538,636.1489Z" transform="translate(0.0001 -0.0197)"/><path class="cls-143" d="M96.4936,673.75l16.0515,32.3248,179.8391,4.0318s6.2325-8.5966,6.2156-9.2645c-.3571-14.1325-12.18-52.8113-67.1387-63.715C166.9519,624.329,96.4936,673.75,96.4936,673.75Z" transform="translate(0.0001 -0.0197)"/><path class="cls-144" d="M96.4936,673.75c116.4589-47.9987,85.6169,48.3974,201.72,24.22,0,0-4.5936-54.83-80.5746-61.96C151.3065,629.7848,96.4936,673.75,96.4936,673.75Z" transform="translate(0.0001 -0.0197)"/><path class="cls-73" d="M112.5451,706.0752c46.8951.1226,130.1568-1.6589,154.8811-4.2939s31.1736-.9388,31.1736-.9388l-6.2156,9.2645Z" transform="translate(0.0001 -0.0197)"/><path class="cls-145" d="M101.9577,683.3656s23.9978-11.0884,60.3408-1.5671,56.117,17.6464,58.2322,19.86-2.6117,3.95-2.6117,3.95l43.1725-3.2066s-11.3109,1.9549-39.7055-7.8615S174.2576,643.728,96.4936,673.75Z" transform="translate(0.0001 -0.0197)"/><g class="cls-146"><path class="cls-147" d="M267.9641,703.1617a164.024,164.024,0,0,1-34.1465-3.8119c-11.23-2.3907-20.0274-9.1391-29.342-16.283-21.2162-16.2716-45.26-34.7162-107.6553-8.5389l-.6531-1.5565c63.3015-26.5531,87.7582-7.7953,109.3355,8.7548,9.1589,7.0255,17.81,13.66,28.6661,15.9716,41.1026,8.7482,63.4935-.4121,63.7153-.5045l.6586,1.5531C298.3894,698.8124,287.8036,703.1617,267.9641,703.1617Z" transform="translate(0.0001 -0.0197)"/></g><path class="cls-147" d="M106.1616,673.485c13.67-9.8414,31.079-14.102,47.8481-12.6124a81.183,81.183,0,0,1,24.4523,6.1027c7.7994,3.2747,14.873,8.0274,21.5479,13.1161,6.6848,5.0765,13.38,10.1882,20.9294,13.835a75.0458,75.0458,0,0,0,11.6781,4.5416,96.5,96.5,0,0,0,12.2724,2.6269,144.688,144.688,0,0,0,25.101,1.1183c8.39-.2527,16.7622-1.0277,25.0986-2.0657-16.6055,2.3141-33.5379,3.7439-50.2769,1.4908a97.0378,97.0378,0,0,1-12.3672-2.5775,75.7132,75.7132,0,0,1-11.8061-4.5183c-7.64-3.64-14.4208-8.7619-21.1217-13.7935-6.6932-5.0452-13.6252-9.8321-21.3435-13.1014a80.7458,80.7458,0,0,0-24.2163-6.1948,74.2515,74.2515,0,0,0-24.9246,1.8876A68.3294,68.3294,0,0,0,106.1616,673.485Z" transform="translate(0.0001 -0.0197)"/><path class="cls-148" d="M179.6768,639.874l10.1475-1.2649s-23.1054-10.8432-40.7945.787C149.03,639.3961,164.6775,633.9993,179.6768,639.874Z" transform="translate(0.0001 -0.0197)"/><g class="cls-146"><path class="cls-147" d="M120.2275,660.7574l-.3972-.7452c40.41-21.5987,67.4726-22.8716,88.6179-21.2474l-.0642.8408C187.3656,638.0013,160.449,639.2593,120.2275,660.7574Z" transform="translate(0.0001 -0.0197)"/></g><path class="cls-149" d="M134.2246,653.0755s16.02-27.2049,45.4522-13.2015C179.6768,639.874,159.4669,642.7725,134.2246,653.0755Z" transform="translate(0.0001 -0.0197)"/><g class="cls-146"><path class="cls-147" d="M158.3732,661.2175l-.4839-.6926c.45-.3148,45.3926-31.3412,82.8852-21.6151l-.2127.8179C203.4518,630.0988,158.82,660.9041,158.3732,661.2175Z" transform="translate(0.0001 -0.0197)"/></g><path class="cls-150" d="M214.8309,640.3785s37.2694,2.822,62.3885,41.26l4.7131.0123s-19.7787-36.3535-64.6183-41.6779Z" transform="translate(0.0001 -0.0197)"/><path class="cls-151" d="M153.52,636.8909s13.3486-6.395,31.1476,2.361l2.9169-.3949S169.6979,630.091,153.52,636.8909Z" transform="translate(0.0001 -0.0197)"/><ellipse class="cls-152" cx="164.2137" cy="653.154" rx="34.9459" ry="11.5481" transform="translate(-103.5023 35.1501) rotate(-9.3101)"/><path class="cls-153" d="M120.4632,668.3713l5.8779,5.1765s27.94-5.7182,51.2444,4.9914l7.434-4.8379S154.4306,655.8491,120.4632,668.3713Z" transform="translate(0.0001 -0.0197)"/><g class="cls-146"><rect class="cls-147" x="151.4934" y="663.154" width="1.688" height="9.3416" transform="translate(-56.6623 15.4894) rotate(-4.9154)"/></g></g></g></svg>