<?xml version="1.0" encoding="utf-8"?>
<!-- Generator: Adobe Illustrator 26.0.0, SVG Export Plug-In . SVG Version: 6.00 Build 0)  -->
<svg version="1.1" id="Layer_1" xmlns="http://www.w3.org/2000/svg" xmlns:xlink="http://www.w3.org/1999/xlink" x="0px" y="0px"
	 viewBox="0 0 256 256" style="enable-background:new 0 0 256 256;" xml:space="preserve">
<style type="text/css">
	.st0{fill:#001E36;}
	.st1{fill:#31A8FF;}
</style>
<g id="Layer_2_1_">
	<g id="Surfaces">
		<g id="Photo_Surface">
			<g id="Outline_no_shadow">
				<path class="st0" d="M45.3,3.2h165.3c25.1,0,45.3,20.3,45.3,45.3v158.9c0,25.1-20.3,45.3-45.3,45.3H45.3
					C20.3,252.8,0,232.5,0,207.5V48.5C0,23.5,20.3,3.2,45.3,3.2z"/>
			</g>
		</g>
	</g>
	<g id="Outlined_Mnemonics_Logos">
		<g id="Ps">
			<path class="st1" d="M57.6,178.2V68.5c0-0.7,0.3-1.2,1.1-1.2c1.8,0,3.5,0,6-0.1c2.6-0.1,5.2-0.1,8.1-0.2c2.9-0.1,6-0.1,9.3-0.2
				s6.5-0.1,9.7-0.1c8.7,0,16,1.1,22,3.3c5.3,1.8,10.2,4.8,14.3,8.7c3.4,3.4,6.1,7.6,7.8,12.2c1.6,4.5,2.5,9.1,2.5,13.9
				c0,9.2-2.1,16.7-6.4,22.7s-10.2,10.5-17.2,13c-7.3,2.7-15.3,3.6-24,3.6c-2.6,0-4.3,0-5.3-0.1c-1.1-0.1-2.6-0.1-4.6-0.1v34.2
				c0.1,0.7-0.4,1.4-1.2,1.5c-0.1,0-0.2,0-0.4,0H58.9C58,179.6,57.6,179.2,57.6,178.2z M80.9,87.9v35.8c1.5,0.1,2.9,0.2,4.2,0.2h5.7
				c4.2,0,8.3-0.6,12.3-1.9c3.4-1,6.4-3,8.7-5.7c2.2-2.7,3.3-6.3,3.3-11c0.1-3.3-0.7-6.6-2.5-9.5c-1.8-2.8-4.4-4.9-7.5-6.1
				c-3.9-1.6-8.2-2.2-12.6-2.1c-2.8,0-5.2,0-7.3,0.1C83.1,87.7,81.6,87.8,80.9,87.9L80.9,87.9z"/>
			<path class="st1" d="M204.8,117.2c-3.2-1.7-6.6-2.9-10.2-3.6c-3.9-0.9-7.9-1.4-11.9-1.4c-2.1-0.1-4.4,0.2-6.4,0.7
				c-1.4,0.3-2.6,1.1-3.3,2.1c-0.5,0.9-0.9,1.9-0.9,2.9c0,1,0.4,1.9,1.1,2.8c1,1.2,2.2,2.1,3.6,2.9c2.5,1.3,5,2.5,7.6,3.5
				c5.8,1.9,11.3,4.6,16.4,7.8c3.5,2.2,6.4,5.2,8.4,8.9c1.7,3.4,2.6,7.1,2.5,11c0.1,5-1.4,10-4.2,14.2c-3,4.3-7.1,7.6-11.9,9.5
				c-5.2,2.2-11.6,3.4-19.3,3.4c-4.9,0-9.7-0.4-14.5-1.4c-3.7-0.6-7.5-1.8-10.9-3.4c-0.7-0.4-1.3-1.2-1.2-2v-18.6
				c0-0.3,0.1-0.7,0.4-1s0.6-0.1,1,0.1c4.2,2.5,8.5,4.2,13.2,5.2c4.1,1.1,8.3,1.6,12.6,1.6c4.1,0,6.9-0.5,8.9-1.5
				c1.7-0.7,2.9-2.6,2.9-4.5c0-1.5-0.9-2.9-2.6-4.3s-5.2-3-10.5-5c-5.4-1.9-10.5-4.5-15.1-7.7c-3.3-2.3-6.1-5.4-8.1-9.1
				c-1.7-3.4-2.6-7.1-2.5-10.9c0-4.6,1.3-9,3.6-12.9c2.7-4.3,6.6-7.7,11.2-9.8c5-2.6,11.3-3.7,18.9-3.7c4.4,0,8.9,0.3,13.2,1
				c3.2,0.4,6.3,1.3,9.2,2.5c0.4,0.1,0.9,0.5,1.1,1c0.1,0.4,0.2,0.9,0.2,1.3v17.4c0,0.4-0.2,0.9-0.5,1.1
				C205.8,117.4,205.2,117.4,204.8,117.2z"/>
		</g>
	</g>
</g>
</svg>
